<svg width="42" height="35" viewBox="0 0 42 35" fill="none" xmlns="http://www.w3.org/2000/svg">
<path d="M39.6397 1H2.36033C1.61042 1 1 1.61042 1 2.36033V32.8425C1 33.5924 1.61042 34.2029 2.36033 34.2029H11.1657C11.4897 34.2029 11.7522 33.9404 11.7522 33.6164C11.7522 33.2925 11.4897 33.03 11.1657 33.03H2.36033C2.25684 33.03 2.17135 32.946 2.17135 32.841V2.36033C2.17135 2.25684 2.25534 2.17135 2.36033 2.17135H39.6397C39.7432 2.17135 39.8286 2.25534 39.8286 2.36033V32.8425C39.8286 32.946 39.7447 33.0315 39.6397 33.0315H14.0469C13.7229 33.0315 13.4604 33.294 13.4604 33.6179C13.4604 33.9419 13.7229 34.2043 14.0469 34.2043H39.6397C40.3896 34.2043 41 33.5939 41 32.844V2.36033C41 1.61042 40.3896 1 39.6397 1Z" fill="#262556" stroke="#262556" stroke-width="0.5"/>
<path d="M8.40456 27.2692H15.4192C17.7454 29.3915 20.8395 30.6873 24.2291 30.6873C31.4447 30.6873 37.3149 24.8171 37.3149 17.6015C37.3149 14.9648 36.535 12.4241 35.0577 10.2524C34.8762 9.98541 34.5118 9.91491 34.2433 10.0979C33.9764 10.2794 33.9059 10.6438 34.0888 10.9123C35.4327 12.889 36.1436 15.2018 36.1436 17.603C36.1436 24.1721 30.7983 29.5175 24.2291 29.5175C17.6599 29.5175 12.3146 24.1721 12.3146 17.603C12.3146 11.0338 17.6599 5.68844 24.2291 5.68844C27.2917 5.68844 30.2013 6.8478 32.4226 8.95354C32.6565 9.17551 33.0285 9.16651 33.2505 8.93104C33.4724 8.69557 33.4634 8.32511 33.228 8.10314C30.7878 5.79043 27.5917 4.51709 24.2276 4.51709C20.8635 4.51709 17.7454 5.81293 15.4177 7.93516H8.40306C7.64565 7.93516 7.02923 8.55158 7.02923 9.30899V10.5058H5.73339C5.15596 10.5058 4.68652 10.9753 4.68652 11.5527V13.5985C4.68652 14.1759 5.15596 14.6453 5.73339 14.6453H7.02923V20.5591H5.73339C5.15596 20.5591 4.68652 21.0285 4.68652 21.606V23.6517C4.68652 24.2291 5.15596 24.6986 5.73339 24.6986H7.02923V25.8954C7.02923 26.6528 7.64565 27.2692 8.40306 27.2692H8.40456ZM5.85788 11.6757H9.37344V13.4725H5.85788V11.6757ZM8.20208 14.6438H9.49942C10.0768 14.6438 10.5463 14.1744 10.5463 13.597V11.5512C10.5463 10.9738 10.0768 10.5043 9.49942 10.5043H8.20208V9.30749C8.20208 9.19651 8.29357 9.10502 8.40456 9.10502H14.2838C12.3266 11.3922 11.1417 14.3604 11.1417 17.6015C11.1417 20.8425 12.3251 23.8092 14.2838 26.0979H8.40456C8.29357 26.0979 8.20208 26.0079 8.20208 25.8954V24.6986H9.49942C10.0768 24.6986 10.5463 24.2291 10.5463 23.6517V21.606C10.5463 21.0285 10.0768 20.5591 9.49942 20.5591H8.20208V14.6438ZM5.85788 21.7304H9.37344V23.5272H5.85788V21.7304Z" fill="#262556" stroke="#262556" stroke-width="0.5"/>
<path d="M24.2276 6.85962C18.3048 6.85962 13.4859 11.6785 13.4859 17.6013C13.4859 23.524 18.3048 28.3429 24.2276 28.3429C30.1504 28.3429 34.9693 23.524 34.9693 17.6013C34.9693 11.6785 30.1504 6.85962 24.2276 6.85962ZM24.2276 27.1716C18.9513 27.1716 14.6573 22.8776 14.6573 17.6013C14.6573 12.3249 18.9513 8.03097 24.2276 8.03097C29.5039 8.03097 33.7979 12.3249 33.7979 17.6013C33.7979 22.8776 29.5054 27.1716 24.2276 27.1716Z" fill="#262556" stroke="#262556" stroke-width="0.5"/>
<path d="M28.4721 15.8136L30.1039 14.1818C30.4353 13.8504 30.6183 13.4079 30.6183 12.9385C30.6183 12.4691 30.4353 12.0281 30.1039 11.6951C29.42 11.0097 28.3041 11.0097 27.6187 11.6951L25.9869 13.3269V11.0202C25.9869 10.0514 25.198 9.26245 24.2291 9.26245C23.2602 9.26245 22.4713 10.0514 22.4713 11.0202V13.3284L20.838 11.6936C20.5066 11.3622 20.0656 11.1792 19.5962 11.1792C19.1267 11.1792 18.6858 11.3622 18.3588 11.6891C18.3573 11.6906 18.3543 11.6936 18.3513 11.6951C17.6674 12.3791 17.6674 13.4934 18.3513 14.1803L19.9831 15.8121H17.6749C16.706 15.8121 15.9186 16.5995 15.9186 17.5714C15.9186 18.5433 16.706 19.3277 17.6749 19.3277H19.9846L18.3513 20.961C18.0199 21.2924 17.8369 21.7334 17.8369 22.2028C17.8369 22.6723 18.0199 23.1132 18.3468 23.4402C18.3483 23.4417 18.3513 23.4447 18.3528 23.4462C18.6948 23.7881 19.1447 23.9591 19.5947 23.9591C20.0446 23.9591 20.4946 23.7881 20.8365 23.4462L22.4698 21.8129V24.1226C22.4698 25.0915 23.2587 25.8789 24.2291 25.8789C25.1995 25.8789 25.9854 25.0915 25.9854 24.1226V21.8144L27.6172 23.4462C27.9486 23.7776 28.3911 23.9606 28.8605 23.9606C29.33 23.9606 29.7709 23.7776 30.1024 23.4462C30.4353 23.1147 30.6168 22.6723 30.6168 22.2028C30.6168 21.7334 30.4338 21.2924 30.1024 20.9595L28.4706 19.3277H30.7788C31.7477 19.3277 32.5366 18.5388 32.5366 17.5699C32.5366 16.601 31.7477 15.8121 30.7788 15.8121H28.4706L28.4721 15.8136ZM24.2276 20.532C22.6123 20.532 21.2985 19.2182 21.2985 17.6029C21.2985 15.9876 22.6123 14.6738 24.2276 14.6738C25.8429 14.6738 27.1567 15.9876 27.1567 17.6029C27.1567 19.2182 25.8429 20.532 24.2276 20.532ZM28.4466 12.5245C28.676 12.2966 29.0465 12.2951 29.276 12.5245C29.387 12.6355 29.4469 12.7825 29.4469 12.9385C29.4469 13.0945 29.3855 13.2415 29.276 13.3524L27.5002 15.1282C27.2632 14.8148 26.9828 14.5373 26.6663 14.3033L28.4466 12.523V12.5245ZM24.2276 10.4338C24.5516 10.4338 24.814 10.6963 24.814 11.0202V13.5429C24.6221 13.5159 24.4271 13.5009 24.2276 13.5009C24.0281 13.5009 23.8332 13.5159 23.6427 13.5429V11.0202C23.6427 10.6978 23.9066 10.4338 24.2291 10.4338H24.2276ZM19.1747 12.5305C19.1747 12.5305 19.1792 12.526 19.1822 12.5245C19.2932 12.4136 19.4387 12.3536 19.5962 12.3536C19.7537 12.3536 19.8991 12.4136 20.0101 12.5245L21.7919 14.3063C21.4769 14.5403 21.1965 14.8178 20.9595 15.1312L19.1822 13.3539C18.9543 13.126 18.9543 12.754 19.1762 12.5305H19.1747ZM17.09 17.5714C17.09 17.249 17.3525 16.9865 17.6749 16.9865H20.1736C20.1436 17.1875 20.1271 17.3929 20.1271 17.6014C20.1271 17.7904 20.1406 17.9764 20.1661 18.1578H17.6764C17.354 18.1578 17.0915 17.8954 17.0915 17.5714H17.09ZM20.0086 22.6198C19.7807 22.8478 19.4102 22.8478 19.1867 22.6258C19.1852 22.6243 19.1822 22.6213 19.1807 22.6183C19.0712 22.5088 19.0098 22.3618 19.0098 22.2043C19.0098 22.0469 19.0712 21.9014 19.1807 21.7919L20.9325 20.0401C21.1665 20.3551 21.4439 20.6355 21.7574 20.8725L20.0086 22.6198ZM24.2276 24.7105C23.9051 24.7105 23.6427 24.4481 23.6427 24.1256V21.6614C23.8347 21.6884 24.0296 21.7034 24.2276 21.7034C24.4256 21.7034 24.6221 21.6884 24.814 21.6614V24.1256C24.814 24.4481 24.5516 24.7105 24.2261 24.7105H24.2276ZM29.4469 22.2058C29.4469 22.3618 29.3855 22.5088 29.2745 22.6198C29.1635 22.7293 29.018 22.7908 28.8605 22.7908C28.703 22.7908 28.5561 22.7293 28.4466 22.6198L26.6993 20.8725C27.0113 20.6355 27.2902 20.3551 27.5227 20.0401L29.2745 21.7919C29.3855 21.9029 29.4454 22.0499 29.4454 22.2058H29.4469ZM31.3667 17.5714C31.3667 17.8939 31.1042 18.1578 30.7803 18.1578H28.2906C28.3161 17.9764 28.3296 17.7904 28.3296 17.6014C28.3296 17.3929 28.3131 17.1875 28.2831 16.9865H30.7803C31.1027 16.9865 31.3667 17.249 31.3667 17.5729V17.5714Z" fill="#262556" stroke="#262556" stroke-width="0.5"/>
</svg>
