<svg width="36" height="36" viewBox="0 0 36 36" fill="none" xmlns="http://www.w3.org/2000/svg">
<path d="M24.7149 6.376C24.3954 6.05648 23.8773 6.05648 23.5578 6.376C23.2383 6.69552 23.2383 7.21357 23.5578 7.53309L25.4338 9.40909L23.5578 11.2851C23.2383 11.6046 23.2383 12.1227 23.5578 12.4422C23.8773 12.7617 24.3954 12.7617 24.7149 12.4422L26.5909 10.5662L28.4669 12.4422C28.7864 12.7617 29.3045 12.7617 29.624 12.4422C29.9435 12.1227 29.9435 11.6046 29.624 11.2851L27.748 9.40909L29.624 7.53309C29.9435 7.21357 29.9435 6.69552 29.624 6.376C29.3045 6.05648 28.7864 6.05648 28.4669 6.376L26.5909 8.25201L24.7149 6.376Z" fill="#262556"/>
<path fill-rule="evenodd" clip-rule="evenodd" d="M26.5909 2.45455C22.75 2.45455 19.6364 5.5682 19.6364 9.40909C19.6364 13.25 22.75 16.3636 26.5909 16.3636C30.4318 16.3636 33.5455 13.25 33.5455 9.40909C33.5455 5.5682 30.4318 2.45455 26.5909 2.45455ZM21.2727 9.40909C21.2727 6.47194 23.6538 4.09091 26.5909 4.09091C29.5281 4.09091 31.9091 6.47194 31.9091 9.40909C31.9091 12.3462 29.5281 14.7273 26.5909 14.7273C23.6538 14.7273 21.2727 12.3462 21.2727 9.40909Z" fill="#262556"/>
<path d="M22.9091 26.5909C22.9091 26.139 23.2754 25.7727 23.7273 25.7727H29.4545C29.9064 25.7727 30.2727 26.139 30.2727 26.5909C30.2727 27.0428 29.9064 27.4091 29.4545 27.4091H23.7273C23.2754 27.4091 22.9091 27.0428 22.9091 26.5909Z" fill="#262556"/>
<path d="M27.8182 24.1364C27.8182 24.8142 27.2687 25.3636 26.5909 25.3636C25.9131 25.3636 25.3636 24.8142 25.3636 24.1364C25.3636 23.4586 25.9131 22.9091 26.5909 22.9091C27.2687 22.9091 27.8182 23.4586 27.8182 24.1364Z" fill="#262556"/>
<path d="M26.5909 30.2727C27.2687 30.2727 27.8182 29.7233 27.8182 29.0455C27.8182 28.3677 27.2687 27.8182 26.5909 27.8182C25.9131 27.8182 25.3636 28.3677 25.3636 29.0455C25.3636 29.7233 25.9131 30.2727 26.5909 30.2727Z" fill="#262556"/>
<path fill-rule="evenodd" clip-rule="evenodd" d="M19.6364 26.5909C19.6364 22.75 22.75 19.6364 26.5909 19.6364C30.4318 19.6364 33.5455 22.75 33.5455 26.5909C33.5455 30.4318 30.4318 33.5455 26.5909 33.5455C22.75 33.5455 19.6364 30.4318 19.6364 26.5909ZM26.5909 21.2727C23.6538 21.2727 21.2727 23.6538 21.2727 26.5909C21.2727 29.5281 23.6538 31.9091 26.5909 31.9091C29.5281 31.9091 31.9091 29.5281 31.9091 26.5909C31.9091 23.6538 29.5281 21.2727 26.5909 21.2727Z" fill="#262556"/>
<path d="M6.54545 25.7727C6.09359 25.7727 5.72727 26.139 5.72727 26.5909C5.72727 27.0428 6.09359 27.4091 6.54545 27.4091H12.2727C12.7246 27.4091 13.0909 27.0428 13.0909 26.5909C13.0909 26.139 12.7246 25.7727 12.2727 25.7727H6.54545Z" fill="#262556"/>
<path fill-rule="evenodd" clip-rule="evenodd" d="M9.40909 19.6364C5.5682 19.6364 2.45455 22.75 2.45455 26.5909C2.45455 30.4318 5.5682 33.5455 9.40909 33.5455C13.25 33.5455 16.3636 30.4318 16.3636 26.5909C16.3636 22.75 13.25 19.6364 9.40909 19.6364ZM4.09091 26.5909C4.09091 23.6538 6.47194 21.2727 9.40909 21.2727C12.3462 21.2727 14.7273 23.6538 14.7273 26.5909C14.7273 29.5281 12.3462 31.9091 9.40909 31.9091C6.47194 31.9091 4.09091 29.5281 4.09091 26.5909Z" fill="#262556"/>
<path d="M6.54545 8.59091C6.09359 8.59091 5.72727 8.95722 5.72727 9.40909C5.72727 9.86096 6.09359 10.2273 6.54545 10.2273H8.59091V12.2727C8.59091 12.7246 8.95722 13.0909 9.40909 13.0909C9.86096 13.0909 10.2273 12.7246 10.2273 12.2727V10.2273H12.2727C12.7246 10.2273 13.0909 9.86096 13.0909 9.40909C13.0909 8.95722 12.7246 8.59091 12.2727 8.59091H10.2273V6.54545C10.2273 6.09359 9.86096 5.72727 9.40909 5.72727C8.95722 5.72727 8.59091 6.09359 8.59091 6.54545V8.59091H6.54545Z" fill="#262556"/>
<path fill-rule="evenodd" clip-rule="evenodd" d="M2.45455 9.40909C2.45455 5.5682 5.5682 2.45455 9.40909 2.45455C13.25 2.45455 16.3636 5.5682 16.3636 9.40909C16.3636 13.25 13.25 16.3636 9.40909 16.3636C5.5682 16.3636 2.45455 13.25 2.45455 9.40909ZM9.40909 4.09091C6.47194 4.09091 4.09091 6.47194 4.09091 9.40909C4.09091 12.3462 6.47194 14.7273 9.40909 14.7273C12.3462 14.7273 14.7273 12.3462 14.7273 9.40909C14.7273 6.47194 12.3462 4.09091 9.40909 4.09091Z" fill="#262556"/>
<path fill-rule="evenodd" clip-rule="evenodd" d="M2.45455 0C1.09894 0 0 1.09894 0 2.45455V33.5455C0 34.9011 1.09894 36 2.45455 36H33.5455C34.9011 36 36 34.9011 36 33.5455V2.45455C36 1.09894 34.9011 0 33.5455 0H2.45455ZM20.4545 17.1818L34.3636 17.1818V2.45455C34.3636 2.00268 33.9973 1.63636 33.5455 1.63636H18.8182V15.5455C18.8182 15.5917 18.8143 15.637 18.807 15.6812C19.5134 15.927 20.073 16.4866 20.3188 17.193C20.363 17.1857 20.4083 17.1818 20.4545 17.1818ZM20.3188 18.807C20.073 19.5134 19.5134 20.073 18.807 20.3188C18.8143 20.363 18.8182 20.4083 18.8182 20.4545V34.3636H33.5455C33.9973 34.3636 34.3636 33.9973 34.3636 33.5455V18.8182H20.4545C20.4083 18.8182 20.363 18.8143 20.3188 18.807ZM17.193 20.3188C16.4866 20.073 15.927 19.5134 15.6812 18.807C15.637 18.8143 15.5917 18.8182 15.5455 18.8182H1.63636V33.5455C1.63636 33.9973 2.00268 34.3636 2.45455 34.3636H17.1818V20.4545C17.1818 20.4083 17.1857 20.363 17.193 20.3188ZM15.6812 17.193C15.927 16.4866 16.4866 15.927 17.193 15.6812C17.1857 15.637 17.1818 15.5917 17.1818 15.5455V1.63636H2.45455C2.00268 1.63636 1.63636 2.00268 1.63636 2.45455V17.1818L15.5455 17.1818C15.5917 17.1818 15.637 17.1857 15.6812 17.193ZM17.1818 18C17.1818 17.5481 17.5481 17.1818 18 17.1818C18.4519 17.1818 18.8182 17.5481 18.8182 18C18.8182 18.4519 18.4519 18.8182 18 18.8182C17.5481 18.8182 17.1818 18.4519 17.1818 18Z" fill="#262556"/>
</svg>
