<svg width="275" height="175" viewBox="0 0 275 175" fill="none" xmlns="http://www.w3.org/2000/svg">
<path d="M233.392 170.895H155.32C154.868 170.895 154.516 170.543 154.516 170.091C154.516 169.638 154.868 169.286 155.32 169.286H233.392C236.728 169.286 239.426 166.571 239.426 163.252C239.426 159.917 236.711 157.218 233.392 157.218H228.967C228.515 157.218 228.163 156.866 228.163 156.414C228.163 155.961 228.515 155.609 228.967 155.609H233.392C237.616 155.609 241.035 159.045 241.035 163.252C241.052 167.459 237.616 170.895 233.392 170.895Z" fill="#172960"/>
<path d="M158.689 135.882C156.627 135.882 154.783 134.943 153.543 133.485C152.571 132.328 151.984 130.82 151.984 129.177V94.2981C151.984 92.4544 152.739 90.7616 153.945 89.5548C155.152 88.348 156.828 87.5938 158.689 87.5938C162.393 87.5938 165.393 90.5939 165.393 94.2981V129.177C165.393 132.882 162.393 135.882 158.689 135.882Z" fill="#E9EBF3"/>
<path d="M230.308 149.307H156.795V82.9678C156.795 80.5207 157.935 78.3586 159.695 76.9339C161.019 75.878 162.678 75.2578 164.505 75.2578H230.308V149.307Z" fill="#E9EBF3"/>
<path d="M230.308 144.465H164.856V164.31H230.308V144.465Z" fill="#E9EBF3"/>
<path d="M230.308 150.113H156.795C156.342 150.113 155.99 149.761 155.99 149.308C155.99 148.856 156.359 148.504 156.795 148.504H230.308C230.76 148.504 231.112 148.856 231.112 149.308C231.112 149.761 230.76 150.113 230.308 150.113Z" fill="white"/>
<path d="M179.874 157.621H169.147C168.695 157.621 168.343 157.269 168.343 156.816C168.343 156.364 168.695 156.012 169.147 156.012H179.874C180.327 156.012 180.679 156.364 180.679 156.816C180.679 157.252 180.327 157.621 179.874 157.621Z" fill="#172960"/>
<path d="M220.52 115.769H198.798C198.345 115.769 197.993 115.417 197.993 114.965C197.993 114.512 198.345 114.16 198.798 114.16H220.52C220.972 114.16 221.324 114.512 221.324 114.965C221.324 115.417 220.972 115.769 220.52 115.769Z" fill="#172960"/>
<path d="M220.52 121.402H198.798C198.345 121.402 197.993 121.05 197.993 120.597C197.993 120.145 198.345 119.793 198.798 119.793H220.52C220.972 119.793 221.324 120.145 221.324 120.597C221.324 121.05 220.972 121.402 220.52 121.402Z" fill="#172960"/>
<path d="M220.52 127.031H198.798C198.345 127.031 197.993 126.679 197.993 126.226C197.993 125.774 198.345 125.422 198.798 125.422H220.52C220.972 125.422 221.324 125.774 221.324 126.226C221.324 126.679 220.972 127.031 220.52 127.031Z" fill="#172960"/>
<path d="M153.51 155.407C153.526 155.424 153.543 155.424 153.56 155.441C154.314 155.843 154.7 156.698 154.498 157.57C154.281 158.525 153.141 159.145 152.219 158.86C151.398 158.609 150.778 157.972 150.224 157.335C149.856 156.899 149.47 156.447 149.135 155.977C149.169 156.262 149.219 156.547 149.252 156.815C149.252 156.832 149.252 156.849 149.252 156.866C149.604 158.039 149.889 159.262 149.722 160.486C149.554 161.827 148.75 162.816 147.627 163.235C147.291 163.62 146.856 163.939 146.302 164.207C145.163 164.777 144.174 164.944 143.285 164.81C142.917 164.978 142.514 165.078 142.095 165.078C141.04 165.078 140.084 164.408 139.531 163.553C139.112 162.916 139.028 162.162 138.76 161.492C138.509 160.905 138.14 160.352 137.855 159.765C136.43 157.704 134.989 155.726 132.927 155.441C132.843 155.424 132.776 155.407 132.693 155.391H127.916C128.134 158.307 127.916 161.156 126.944 163.989C126.692 164.743 125.435 165.112 125.05 164.24C123.793 161.374 124.078 158.391 124.497 155.407H112.429C112.529 155.91 112.278 156.497 111.809 156.664C111.239 157.251 110.183 157.502 109.529 157C108.792 156.43 107.987 155.977 107.183 155.491C107.132 155.458 107.099 155.441 107.049 155.407H103.043C103.998 156.597 104.97 157.787 105.909 158.994C106.881 160.218 107.786 161.374 108.339 162.849C108.691 163.788 107.937 164.877 107.049 165.129C106.026 165.414 105.121 164.777 104.769 163.838C104.92 164.24 104.585 163.453 104.534 163.369C104.4 163.134 104.266 162.899 104.115 162.682C103.747 162.145 103.311 161.626 102.909 161.123C102.674 160.838 102.439 160.536 102.205 160.251C102.741 161.609 103.11 162.983 103.244 164.291C103.378 165.648 103.244 167.056 101.92 167.76C101.199 168.146 100.562 167.827 99.8414 167.961C98.534 168.196 98.4837 168.364 97.3105 169.688C96.7741 170.291 95.802 169.922 95.5841 169.235C95.5003 168.95 95.3327 168.665 95.1651 168.38C94.8969 168.883 94.612 169.369 94.26 169.889C93.908 170.408 93.1035 170.626 92.6342 170.09C90.7738 168.045 89.4161 164.106 86.6003 163.268C84.1029 162.531 82.1922 164.928 80.3485 166.218C79.6446 166.704 78.8903 167.106 78.2031 167.291V175.001H158.689V155.424H153.51V155.407Z" fill="#E9EBF3"/>
<path d="M117.508 168.145H111.876C110.837 168.145 110.837 169.754 111.876 169.754H117.508C118.547 169.754 118.547 168.145 117.508 168.145Z" fill="#172960"/>
<path d="M121.128 161.711H118.714C117.675 161.711 117.675 163.32 118.714 163.32H121.128C122.167 163.32 122.167 161.711 121.128 161.711Z" fill="#172960"/>
<path d="M152.118 166.535H146.889C145.85 166.535 145.85 168.144 146.889 168.144H152.118C153.157 168.144 153.157 166.535 152.118 166.535Z" fill="#172960"/>
<path d="M105.037 170.156H103.025C101.986 170.156 101.986 171.765 103.025 171.765H105.037C106.076 171.765 106.076 170.156 105.037 170.156Z" fill="#172960"/>
<path d="M139.23 167.34H134.805C133.766 167.34 133.766 168.949 134.805 168.949H139.23C140.269 168.949 140.269 167.34 139.23 167.34Z" fill="#172960"/>
<path d="M48.9888 65.8045C45.5361 73.7324 55.492 78.7439 61.8276 75.3247C66.0346 73.062 67.8783 68.5701 68.7498 64.1117C69.3197 61.1618 69.5208 57.9772 70.9623 55.2787C72.8897 51.6751 76.5436 50.4181 80.2142 49.4795V49.4962C79.9125 50.4851 81.4713 50.9041 81.773 49.9152C84.0357 42.4231 75.1692 39.1715 69.5041 42.0712C64.9619 44.4009 62.5315 49.1442 59.9336 53.2842C57.872 56.5525 55.559 58.7817 52.7265 61.3126C51.2683 62.6367 49.7765 63.9944 48.9888 65.8045Z" fill="#172960"/>
<path d="M108.791 56.536C116.719 53.2844 117.926 43.2614 110.048 42.3731C102.171 41.4848 84.4713 42.1217 79.0575 50.234C73.6437 58.3462 66.9059 67.4641 75.4539 74.3361C84.0187 81.2248 108.791 56.536 108.791 56.536Z" fill="#172960"/>
<path d="M91.2096 95.774L92.9694 88.2484C97.5116 89.4216 100.948 89.3713 104.015 85.9521C107.116 82.4994 107.836 73.0966 109.01 64.1463C109.395 61.1796 109.328 58.6487 108.792 56.5201C107.334 50.6873 102.339 47.9218 93.6902 47.7374C83.6337 47.5195 81.8403 53.4361 81.8403 53.4361C81.438 52.4807 80.4156 51.2907 79.0412 50.2348C75.7058 47.6704 70.3423 45.9607 66.9566 50.6873C62.1798 57.3581 67.8449 63.8949 75.1527 66.761C75.1527 66.761 74.5493 74.4374 77.583 78.0075C77.583 78.0075 76.7114 86.6561 75.6555 95.9081C75.4879 97.4836 87.321 109.333 91.2096 95.774Z" fill="white"/>
<path d="M84.9912 103.015C84.4884 103.015 83.9856 102.965 83.533 102.864C79.4601 102.059 74.7001 97.4837 74.8844 95.8076C75.8063 87.6786 76.6108 79.9183 76.7784 78.2423C74.2643 74.9571 74.281 69.1579 74.3481 67.2807C69.4204 65.2191 65.8671 61.8334 64.7776 58.146C63.9899 55.481 64.5262 52.7323 66.3364 50.2014C67.6605 48.3577 69.3533 47.2682 71.3814 46.9665C75.0185 46.4302 78.3204 48.6091 79.5607 49.5812C80.4658 50.2852 81.2368 51.0394 81.7899 51.7769C83.0302 49.8829 86.198 46.7822 93.7069 46.933C102.842 47.1341 108.037 50.2014 109.579 56.3358C110.149 58.5483 110.216 61.1462 109.814 64.2637C109.646 65.5375 109.496 66.8281 109.328 68.1019C108.356 75.946 107.451 83.3543 104.618 86.5053C101.434 90.0419 97.8803 90.2263 93.5728 89.2374L91.9972 95.9752C91.9972 95.992 91.9973 96.0088 91.9805 96.0088C90.3882 101.573 87.5221 103.015 84.9912 103.015ZM76.4767 95.9249C76.7784 96.8468 80.9016 101.305 84.8236 101.406C87.4215 101.439 89.2988 99.5118 90.4385 95.5897L92.1984 88.0809C92.2487 87.863 92.3828 87.6954 92.5671 87.578C92.7515 87.4607 92.9694 87.4272 93.1873 87.4942C97.3942 88.5837 100.579 88.6172 103.428 85.4494C105.926 82.6839 106.847 75.175 107.736 67.9343C107.887 66.6605 108.054 65.3699 108.222 64.0793C108.59 61.2132 108.523 58.7494 108.021 56.7549C106.663 51.3411 102.104 48.7432 93.6733 48.5756C84.4046 48.3744 82.6782 53.4865 82.6112 53.7044C82.5106 54.0228 82.2257 54.2575 81.8905 54.2742C81.5552 54.291 81.2368 54.1066 81.1027 53.7882C80.7507 52.9501 79.7618 51.8439 78.555 50.9053C76.2923 49.1622 73.6776 48.3074 71.5993 48.6091C70.0238 48.8437 68.6829 49.7153 67.627 51.1902C66.1017 53.3356 65.6492 55.5313 66.3029 57.727C67.275 61.0121 70.7948 64.1967 75.4711 66.0236C75.8063 66.1577 76.0074 66.4761 75.9739 66.8281C75.9739 66.8952 75.4375 74.2196 78.2031 77.5048C78.3372 77.6724 78.4042 77.8903 78.3874 78.1082C78.3874 78.1752 77.5159 86.807 76.4767 95.9249Z" fill="#172960"/>
<path d="M100.361 73.8672C100.127 73.8672 99.9086 73.7667 99.741 73.5823C99.4561 73.2471 99.4896 72.7275 99.8416 72.4426C102.674 70.0458 102.791 66.4087 100.277 58.5981C100.143 58.1791 100.378 57.7265 100.797 57.5924C101.216 57.4584 101.669 57.693 101.803 58.112C104.166 65.4701 104.769 70.381 100.881 73.6829C100.73 73.8002 100.546 73.8672 100.361 73.8672Z" fill="#172960"/>
<path d="M91.4384 61.7316C91.667 61.2254 91.442 60.6297 90.9358 60.4011C90.4296 60.1725 89.8339 60.3976 89.6053 60.9038C89.3767 61.41 89.6018 62.0056 90.108 62.2342C90.6142 62.4628 91.2098 62.2378 91.4384 61.7316Z" fill="#172960"/>
<path d="M106.962 63.423C107.19 62.9168 106.965 62.3211 106.459 62.0925C105.953 61.8639 105.357 62.089 105.129 62.5952C104.9 63.1014 105.125 63.697 105.631 63.9256C106.138 64.1542 106.733 63.9292 106.962 63.423Z" fill="#172960"/>
<path d="M89.919 76.1796C87.8742 75.8444 86.6841 73.8163 87.4551 71.8721C87.8406 70.9167 86.3657 70.2463 85.9802 71.2016C84.8237 74.118 86.5333 77.2523 89.6508 77.7719C90.69 77.9395 90.9414 76.3472 89.919 76.1796Z" fill="#172960"/>
<path d="M93.0363 56.5534C92.986 56.1009 92.5838 55.816 92.148 55.8327C91.6954 55.8495 91.2429 55.8663 90.8071 55.8663C90.3713 55.883 90.0529 56.3356 90.0864 56.7546C90.1367 57.2071 90.5389 57.4921 90.9747 57.4753C91.4273 57.4585 91.8798 57.4418 92.3156 57.4418C92.7514 57.425 93.0698 56.9557 93.0363 56.5534Z" fill="#172960"/>
<path d="M107.065 56.8532L106.143 56.4342C105.204 56.0152 104.534 57.4734 105.473 57.9091L106.394 58.3282C107.35 58.7472 108.003 57.2722 107.065 56.8532Z" fill="#172960"/>
<path d="M77.4318 61.0778C76.9961 61.0778 76.6441 60.7426 76.6273 60.3068C76.577 58.8654 74.7166 54.9266 72.1186 54.3232C71.6829 54.2226 71.4147 53.7868 71.5153 53.3511C71.6158 52.9153 72.0516 52.6471 72.4874 52.7477C75.8563 53.5187 78.1526 58.0944 78.2364 60.2398C78.2531 60.6755 77.9011 61.061 77.4654 61.0778C77.4486 61.0778 77.4486 61.0778 77.4318 61.0778Z" fill="#172960"/>
<path d="M81.1701 53.2003C82.2428 55.0943 84.7401 54.0719 86.1481 53.2339C88.4778 51.8427 90.2377 49.7309 91.3272 47.267C91.7294 46.3284 90.355 45.5071 89.936 46.4457C89.8522 46.6301 89.7684 46.8145 89.6678 46.9988C89.6008 46.9821 89.5505 46.9486 89.4835 46.9486C87.1537 46.8647 84.8742 47.4849 82.997 48.9096C81.7735 49.8482 80.2315 51.5745 81.1701 53.2003Z" fill="#172960"/>
<path d="M45.687 161.24C45.4021 161.24 45.1171 161.09 44.983 160.821C44.7819 160.436 44.916 159.933 45.3182 159.732C79.4266 141.496 92.8353 143.407 100.696 147.111L101.45 147.463C108.54 150.798 112.429 152.625 113.233 154.989C113.501 155.76 113.418 156.581 112.999 157.385C112.06 159.196 108.993 157.67 105.439 155.911C104.316 155.357 102.825 154.62 102.238 154.486C102.037 154.62 101.769 154.653 101.534 154.553C101.115 154.402 100.914 153.933 101.065 153.514C101.165 153.246 101.367 153.044 101.635 152.927C102.355 152.642 103.395 153.095 106.143 154.469C107.669 155.223 110.803 156.765 111.591 156.581C111.792 156.179 111.825 155.843 111.708 155.508C111.121 153.799 106.998 151.854 100.763 148.921L100.009 148.569C92.4833 145.033 79.5607 143.256 46.0725 161.157C45.9384 161.207 45.8043 161.24 45.687 161.24Z" fill="#172960"/>
<path d="M107.099 166.622C105.859 166.622 104.853 165.365 103.696 163.906C103.11 163.169 102.506 162.398 101.869 161.845C101.534 161.543 101.518 161.04 101.819 160.705C102.121 160.37 102.624 160.353 102.959 160.655C103.68 161.309 104.333 162.13 104.953 162.918C105.657 163.806 106.63 165.029 107.099 165.029C107.183 165.029 107.3 164.946 107.417 164.778C107.468 164.711 107.535 164.46 107.468 163.957C107.049 161.258 103.143 155.275 97.7463 151.671C97.3776 151.42 97.277 150.934 97.5284 150.548C97.7798 150.179 98.2659 150.079 98.6514 150.33C104.132 153.984 108.54 160.32 109.077 163.705C109.211 164.594 109.093 165.298 108.691 165.784C108.222 166.337 107.702 166.622 107.099 166.622Z" fill="#172960"/>
<path d="M100.981 169.418C100.864 169.418 100.763 169.418 100.646 169.402C99.3889 169.234 98.4 168.128 98.4 166.871C98.4 166.418 98.7688 166.066 99.2046 166.066C99.6571 166.066 100.009 166.418 100.009 166.871C100.009 167.323 100.395 167.742 100.864 167.793C101.534 167.893 102.121 167.223 102.456 166.049C103.361 162.764 99.523 157.384 93.3215 153.261C92.9528 153.009 92.8522 152.523 93.1036 152.138C93.355 151.769 93.8411 151.669 94.2266 151.92C101.199 156.58 105.138 162.429 104.015 166.485C103.395 168.647 102.104 169.418 100.981 169.418Z" fill="#172960"/>
<path d="M96.9917 171.18C96.8743 171.18 96.7738 171.163 96.69 171.163C95.3156 170.978 94.1591 169.654 94.1591 168.297C94.1591 167.844 94.5111 167.492 94.9636 167.492C95.4161 167.492 95.7681 167.844 95.7681 168.297C95.7681 168.867 96.338 169.503 96.9079 169.57C97.6453 169.671 98.0476 168.682 98.2152 168.079C99.07 165.012 96.9581 159.916 90.2873 155.491C89.9186 155.24 89.818 154.754 90.0694 154.368C90.3208 154 90.8069 153.899 91.1924 154.15C98.5169 159.028 100.78 164.877 99.774 168.515C99.1203 170.844 97.7124 171.18 96.9917 171.18Z" fill="#172960"/>
<path d="M66.8063 172.707C66.4878 172.707 66.1861 172.506 66.052 172.187C65.8844 171.768 66.1023 171.299 66.5046 171.148C66.6387 171.098 80.2988 165.751 83.2822 163.957C85.0086 162.918 86.6176 162.65 88.059 163.153C89.7519 163.756 91.1263 165.449 92.0984 168.181C92.4336 169.137 93.1878 169.891 93.5063 169.891C93.5566 169.891 93.7745 169.74 93.9756 169.036C94.9813 165.533 92.3833 161.594 86.45 157.655C86.0812 157.404 85.9807 156.901 86.2321 156.532C86.4835 156.164 86.9863 156.063 87.3551 156.315C95.6349 161.846 96.3724 166.522 95.5344 169.472C95.0651 171.098 94.2103 171.466 93.5733 171.483C93.5566 171.483 93.5398 171.483 93.5231 171.483C92.266 171.483 91.076 170.075 90.5899 168.718C89.7686 166.455 88.7462 165.097 87.5227 164.645C86.5673 164.309 85.4276 164.527 84.1202 165.298C81.0195 167.159 67.6611 172.371 67.0912 172.606C67.0074 172.69 66.9068 172.707 66.8063 172.707Z" fill="#172960"/>
<path d="M77.7505 167.509C78.2533 167.257 78.7729 167.006 79.2757 166.738C79.259 166.721 79.2254 166.687 79.2087 166.671C77.3818 165.145 75.5716 160.201 75.7895 155.273C75.9068 152.726 76.6275 149.306 79.3428 147.429C79.7115 147.178 79.7953 146.675 79.5439 146.306C79.2925 145.938 78.7897 145.854 78.4209 146.105C75.1526 148.351 74.2978 152.29 74.1637 155.206C73.9458 159.883 75.5213 165.212 77.7505 167.509Z" fill="#172960"/>
<path d="M153.073 160.152C151.246 160.152 149.755 157.822 148.313 155.559C147.576 154.403 146.469 152.676 145.95 152.559C145.514 152.459 145.246 152.04 145.347 151.604C145.447 151.168 145.866 150.9 146.302 151C147.475 151.269 148.447 152.777 149.671 154.705C150.71 156.33 152.135 158.56 153.073 158.56C153.358 158.56 153.408 158.476 153.425 158.442C153.643 158.057 153.476 156.682 152.151 154.436C149.553 150.062 143.017 143.609 135.575 143.76C124.228 143.978 117.708 148.067 115.06 156.649C114.926 157.068 114.473 157.319 114.054 157.185C113.635 157.051 113.384 156.598 113.518 156.179C116.384 146.844 123.39 142.385 135.541 142.151C143.151 142.017 150.19 147.983 153.526 153.615C154.381 155.056 155.688 157.705 154.816 159.23C154.481 159.833 153.861 160.152 153.073 160.152Z" fill="#172960"/>
<path d="M141.726 166.454C141.642 166.454 141.558 166.454 141.474 166.438C140.435 166.337 138.943 165.549 137.787 162.365C136.211 158.024 130.798 154.873 129.608 154.856C129.289 155.426 129.138 157.655 129.038 159.147C128.82 162.398 128.635 164.426 127.714 165.214C126.892 165.918 125.937 166.069 125.166 165.633C123.406 164.644 123.054 161.024 124.077 154.588C124.144 154.152 124.563 153.85 124.998 153.917C125.434 153.984 125.736 154.403 125.669 154.839C124.345 163.069 125.786 164.141 125.954 164.225C126.205 164.359 126.591 164.041 126.674 163.974C127.144 163.555 127.328 160.722 127.445 159.029C127.68 155.51 127.848 153.649 129.088 153.297C131.233 152.694 137.636 157.135 139.329 161.795C139.983 163.622 140.854 164.745 141.659 164.829C142.027 164.879 142.329 164.661 142.48 164.443C142.648 163.337 140.234 157.504 137.267 153.063C137.016 152.694 137.116 152.191 137.485 151.94C137.854 151.688 138.357 151.789 138.608 152.157C140.955 155.677 144.944 163.471 143.888 165.214C143.519 165.818 142.765 166.454 141.726 166.454Z" fill="#172960"/>
<path d="M143.185 165.631C142.782 165.631 142.43 165.33 142.38 164.927C142.33 164.492 142.631 164.089 143.084 164.022C144.391 163.855 145.28 163.62 145.598 162.95C146.352 161.424 144.877 157.519 141.224 151.351C140.989 150.966 141.123 150.48 141.508 150.245C141.894 150.01 142.38 150.144 142.615 150.53C146.788 157.569 148.112 161.492 147.056 163.654C146.336 165.129 144.727 165.447 143.285 165.615C143.252 165.631 143.218 165.631 143.185 165.631Z" fill="#172960"/>
<path d="M146.335 164.577C145.933 164.577 145.581 164.275 145.53 163.873C145.48 163.437 145.782 163.035 146.234 162.968C147.542 162.8 148.43 162.565 148.748 161.895C149.503 160.37 148.028 156.465 144.374 150.297C144.139 149.911 144.273 149.425 144.659 149.19C145.044 148.956 145.53 149.09 145.765 149.475C149.938 156.515 151.263 160.437 150.207 162.599C149.486 164.074 147.877 164.392 146.435 164.56C146.402 164.577 146.368 164.577 146.335 164.577Z" fill="#172960"/>
<path d="M35.4294 166.339C35.0104 166.339 34.6584 166.02 34.6249 165.601C34.6081 165.333 32.2951 137.979 33.217 120.414C34.2059 101.642 44.6646 97.6191 75.6051 95.0882C76.0577 95.0547 76.4432 95.3899 76.4767 95.8257C76.5102 96.2615 76.175 96.6638 75.7392 96.6973C43.726 99.312 35.6976 103.988 34.826 120.498C33.9042 137.946 36.2004 165.182 36.2339 165.45C36.2674 165.886 35.949 166.288 35.4964 166.322C35.4797 166.339 35.4462 166.339 35.4294 166.339Z" fill="#172960"/>
<path d="M126.357 144.33C125.955 144.33 125.603 144.028 125.552 143.626C125.552 143.559 124.698 136.436 121.865 117.898C119.083 99.629 113.937 96.0422 91.2262 96.5785C90.7904 96.5785 90.4049 96.2433 90.4049 95.7907C90.3881 95.355 90.7401 94.9862 91.1926 94.9695C114.54 94.4331 120.574 98.6568 123.457 117.647C126.29 136.218 127.145 143.358 127.145 143.425C127.195 143.861 126.876 144.263 126.441 144.313C126.424 144.33 126.39 144.33 126.357 144.33Z" fill="#172960"/>
<path d="M54.9396 156.617C54.5038 156.617 54.1518 156.282 54.1351 155.846L52.7271 121.235C52.7104 120.799 53.0624 120.413 53.4981 120.397C53.9339 120.363 54.3194 120.732 54.3362 121.168L55.7441 155.779C55.7609 156.215 55.4089 156.6 54.9731 156.617C54.9563 156.617 54.9396 156.617 54.9396 156.617Z" fill="#172960"/>
<path d="M113.217 149.174C112.814 149.174 112.462 148.872 112.412 148.453L108.658 115.183C108.607 114.747 108.926 114.345 109.362 114.294C109.797 114.244 110.2 114.562 110.25 114.998L114.004 148.269C114.055 148.704 113.736 149.107 113.3 149.157C113.267 149.157 113.25 149.174 113.217 149.174Z" fill="#172960"/>
<path d="M53.531 127.031C53.4304 127.031 53.3131 127.014 53.2125 126.964L34.3063 118.919C33.904 118.751 33.7029 118.265 33.8873 117.863C34.0549 117.461 34.5242 117.26 34.9432 117.444L53.8494 125.489C54.2517 125.657 54.4528 126.143 54.2684 126.545C54.1344 126.847 53.8327 127.031 53.531 127.031Z" fill="#172960"/>
<path d="M121.798 111.697C121.547 111.328 121.044 111.244 120.675 111.496L110.149 118.753C110.216 119.373 110.267 119.977 110.3 120.597L121.58 112.82C121.949 112.552 122.05 112.049 121.798 111.697Z" fill="#172960"/>
<path d="M165.795 62.248H123.407C122.955 62.248 122.603 61.896 122.603 61.4435V41.5819C122.603 41.1293 122.955 40.7773 123.407 40.7773H165.795C166.248 40.7773 166.6 41.1293 166.6 41.5819V61.4267C166.6 61.8792 166.248 62.248 165.795 62.248ZM124.212 60.6389H164.991V42.3864H124.212V60.6389Z" fill="#172960"/>
<path d="M156.141 52.5934H132.793C132.34 52.5934 131.988 52.2414 131.988 51.7889C131.988 51.3364 132.34 50.9844 132.793 50.9844H156.124C156.576 50.9844 156.928 51.3364 156.928 51.7889C156.928 52.2414 156.576 52.5934 156.141 52.5934Z" fill="#172960"/>
<path d="M219.983 45.0699C219.782 45.0699 219.564 44.9861 219.414 44.8353L206.24 31.6612H158.823C158.371 31.6612 158.019 31.3093 158.019 30.8567V0.804519C158.019 0.351976 158.371 0 158.823 0H219.983C220.436 0 220.788 0.351976 220.788 0.804519V44.2654C220.788 44.5838 220.587 44.8855 220.285 45.0029C220.201 45.0532 220.084 45.0699 219.983 45.0699ZM159.628 30.0522H206.575C206.793 30.0522 206.994 30.136 207.145 30.2868L219.179 42.3211V1.60904H159.628V30.0522Z" fill="#172960"/>
<path d="M193.166 12.3512H168.209C167.756 12.3512 167.404 11.9993 167.404 11.5467C167.404 11.0942 167.756 10.7422 168.209 10.7422H193.166C193.618 10.7422 193.97 11.0942 193.97 11.5467C193.97 11.9993 193.602 12.3512 193.166 12.3512Z" fill="#172960"/>
<path d="M200.809 20.8004H168.209C167.756 20.8004 167.404 20.4485 167.404 19.9959C167.404 19.5434 167.756 19.1914 168.209 19.1914H200.809C201.261 19.1914 201.613 19.5434 201.613 19.9959C201.613 20.4485 201.244 20.8004 200.809 20.8004Z" fill="#172960"/>
<path d="M209.257 12.3512H199.2C198.747 12.3512 198.396 11.9993 198.396 11.5467C198.396 11.0942 198.747 10.7422 199.2 10.7422H209.257C209.709 10.7422 210.061 11.0942 210.061 11.5467C210.061 11.9993 209.692 12.3512 209.257 12.3512Z" fill="#172960"/>
<path d="M38.7989 34.743C38.0782 33.6703 37.3742 32.5976 36.6535 31.5249C36.0836 30.6701 34.6925 31.4746 35.2623 32.3294C35.9831 33.4021 36.687 34.4748 37.4077 35.5475C37.9776 36.4191 39.3688 35.6146 38.7989 34.743Z" fill="#172960"/>
<path d="M233.911 59.2656C232.839 60.5227 231.766 61.763 230.693 63.0201C230.023 63.8078 231.163 64.9476 231.833 64.1598C232.906 62.9028 233.978 61.6624 235.051 60.4054C235.705 59.6176 234.582 58.4779 233.911 59.2656Z" fill="#172960"/>
<path d="M51.5196 92.8204C48.1171 92.8204 45.3516 90.0548 45.3516 86.6524C45.3516 83.2499 48.1171 80.4844 51.5196 80.4844C54.922 80.4844 57.6875 83.2499 57.6875 86.6524C57.6875 90.0548 54.922 92.8204 51.5196 92.8204ZM51.5196 82.0934C49.0054 82.0934 46.9606 84.1382 46.9606 86.6524C46.9606 89.1665 49.0054 91.2113 51.5196 91.2113C54.0337 91.2113 56.0785 89.1665 56.0785 86.6524C56.0785 84.1382 54.0337 82.0934 51.5196 82.0934Z" fill="#172960"/>
<path d="M153.51 28.8945C148.532 19.9274 143.554 10.9771 138.576 2.01007C138.073 1.10498 136.682 1.9095 137.185 2.81459C142.163 11.7816 147.141 20.7319 152.119 29.699C152.638 30.6208 154.03 29.7995 153.51 28.8945Z" fill="#172960"/>
</svg>
