<svg width="41" height="41" viewBox="0 0 41 41" fill="none" xmlns="http://www.w3.org/2000/svg">
<path d="M3.41669 17.0837H15.375" stroke="#262556" stroke-width="2" stroke-linecap="round" stroke-linejoin="round"/>
<path d="M11.9583 13.667L15.375 17.0837L11.9583 20.5003" stroke="#262556" stroke-width="2" stroke-linecap="round" stroke-linejoin="round"/>
<path d="M37.5833 23.0622H25.625" stroke="#262556" stroke-width="2" stroke-linecap="round" stroke-linejoin="round"/>
<path d="M29.0417 26.4788L25.625 23.0622L29.0417 19.6455" stroke="#262556" stroke-width="2" stroke-linecap="round" stroke-linejoin="round"/>
<path d="M20.5 10.25H34.1667C36.0544 10.25 37.5834 11.779 37.5834 13.6667V32.4583C37.5834 34.346 36.0544 35.875 34.1667 35.875H23.9167C22.029 35.875 20.5 34.346 20.5 32.4583V8.54167C20.5 6.65396 18.9711 5.125 17.0834 5.125H6.83335C4.94565 5.125 3.41669 6.65396 3.41669 8.54167V25.625C3.41669 27.5127 4.94565 29.0417 6.83335 29.0417H20.5" stroke="#262556" stroke-width="2" stroke-linecap="round" stroke-linejoin="round"/>
</svg>
