<svg width="19" height="21" viewBox="0 0 19 21" fill="none" xmlns="http://www.w3.org/2000/svg">
<path d="M8.86668 9.87765L0.711914 18.533C0.71222 18.5348 0.712833 18.5363 0.71314 18.5381C0.963225 19.4779 1.82163 20.1699 2.84043 20.1699C3.24769 20.1699 3.63006 20.0598 3.95796 19.8665L3.98401 19.8513L13.1632 14.5545L8.86668 9.87765Z" fill="#EA4335"/>
<path d="M17.1166 8.40489L17.1088 8.39953L13.1458 6.10219L8.68115 10.0751L13.1614 14.5547L17.1034 12.2802C17.7945 11.9071 18.2637 11.1785 18.2637 10.3383C18.2637 9.50419 17.8008 8.77922 17.1166 8.40489Z" fill="#FBBC04"/>
<path d="M0.711507 2.10578C0.662486 2.28654 0.636719 2.47589 0.636719 2.67251V17.9668C0.636719 18.1631 0.662179 18.3531 0.711813 18.5332L9.14723 10.0993L0.711507 2.10578Z" fill="#4285F4"/>
<path d="M8.92663 10.3203L13.1475 6.10065L3.97869 0.784756C3.64542 0.585147 3.25647 0.469948 2.84025 0.469948C1.82145 0.469948 0.961894 1.16322 0.711732 2.10419C0.711426 2.10511 0.711426 2.10573 0.711426 2.10657L8.92663 10.3203Z" fill="#34A853"/>
</svg>
