<svg width="24" height="26" viewBox="0 0 24 26" fill="none" xmlns="http://www.w3.org/2000/svg">
<path d="M16.8743 18.7861L5.34012 25.4443L5.30594 25.4639C4.87784 25.7162 4.37865 25.8603 3.84695 25.8604C2.72571 25.8604 1.7416 25.1795 1.26883 24.2295L1.35379 24.1455L11.7932 13.707L16.8743 18.7861ZM11.0862 13L0.972931 23.1104C0.970984 23.0683 0.970001 23.0257 0.970001 22.9834V3.0166C0.970001 2.97392 0.970954 2.93101 0.972931 2.88867L11.0862 13ZM22.4759 10.4922L22.4856 10.499C23.3789 10.9877 23.9837 11.9344 23.9837 13.0234C23.9836 14.1202 23.3703 15.0715 22.468 15.5586L17.7708 18.2686L12.5003 13L17.7493 7.75098L22.4759 10.4922ZM3.84695 0.139648C4.39035 0.139651 4.89819 0.290183 5.33328 0.550781L16.8548 7.23242L11.7932 12.293L1.35379 1.85547L1.26883 1.77051C1.74151 0.820484 2.72544 0.139648 3.84695 0.139648Z" fill="white"/>
</svg>
