<svg width="34" height="42" viewBox="0 0 34 42" fill="none" xmlns="http://www.w3.org/2000/svg">
<path d="M18.0114 1.01592C17.4201 0.542872 16.5799 0.542871 15.9886 1.01592L0.607637 13.3207C0.223574 13.6279 0 14.0931 0 14.5849V19.8625C0 20.3096 0.362436 20.6721 0.809524 20.6721C1.25661 20.6721 1.61905 20.3096 1.61905 19.8625V14.5849L17 2.28018L32.381 14.5849V19.8625C32.381 20.3096 32.7434 20.6721 33.1905 20.6721C33.6376 20.6721 34 20.3096 34 19.8625V14.5849C34 14.0931 33.7764 13.6279 33.3924 13.3207L18.0114 1.01592Z" fill="#262556"/>
<path fill-rule="evenodd" clip-rule="evenodd" d="M8.09524 16.6244C8.09524 15.2832 9.18255 14.1959 10.5238 14.1959H10.957C10.6815 13.7196 10.5238 13.1666 10.5238 12.5768C10.5238 10.7885 11.9736 9.33871 13.7619 9.33871C15.5503 9.33871 17 10.7885 17 12.5768C17 14.3652 15.5503 15.8149 13.7619 15.8149H10.5238C10.0767 15.8149 9.71429 16.1773 9.71429 16.6244V23.9101C9.71429 24.3572 10.0767 24.7197 10.5238 24.7197V21.0768C10.5238 20.6297 10.8862 20.2673 11.3333 20.2673C11.7804 20.2673 12.1429 20.6297 12.1429 21.0768V32.0054C12.1429 32.4525 12.5053 32.8149 12.9524 32.8149H14.7096C14.6201 32.5617 14.5714 32.2892 14.5714 32.0054V29.5768C14.5714 29.3963 14.4824 29.1698 14.2266 28.8182C14.1236 28.6767 14.0125 28.5392 13.8875 28.3844L13.8048 28.2819C13.6537 28.0941 13.484 27.8791 13.3377 27.6517C13.0938 27.2727 12.9524 26.821 12.9524 26.3387V23.1006C12.9524 21.9807 13.7105 21.0378 14.7415 20.7571C14.6318 20.4803 14.5714 20.1784 14.5714 19.8625C14.5714 18.5213 15.6587 17.434 17 17.434C18.3413 17.434 19.4286 18.5213 19.4286 19.8625C19.4286 20.1784 19.3682 20.4803 19.2585 20.7571C20.2895 21.0378 21.0476 21.9807 21.0476 23.1006V26.3387C21.0476 26.821 20.9062 27.2727 20.6623 27.6517C20.516 27.8791 20.3463 28.0941 20.1952 28.2819L20.1125 28.3844C19.9875 28.5391 19.8764 28.6767 19.7734 28.8182C19.5176 29.1698 19.4286 29.3963 19.4286 29.5768V32.0054C19.4286 32.2892 19.3799 32.5617 19.2904 32.8149H21.0476C21.4947 32.8149 21.8571 32.4525 21.8571 32.0054V29.5768C21.4101 29.5768 21.0476 29.2144 21.0476 28.7673C21.0476 28.3202 21.4101 27.9578 21.8571 27.9578H23.9298C24.4407 27.9578 24.8238 27.4904 24.7236 26.9895L22.9427 18.0847C22.867 17.7063 22.5348 17.434 22.1489 17.434H21.0476C19.2593 17.434 17.8095 15.9842 17.8095 14.1959C17.8095 12.4075 19.2593 10.9578 21.0476 10.9578C22.836 10.9578 24.2857 12.4075 24.2857 14.1959C24.2857 14.9787 24.0079 15.6967 23.5455 16.2566C24.0414 16.6054 24.4043 17.1373 24.5303 17.7672L26.3113 26.672C26.6118 28.1747 25.4624 29.5768 23.9298 29.5768H23.4762V32.0054C23.4762 33.3466 22.3889 34.434 21.0476 34.434H12.9524C11.6111 34.434 10.5238 33.3466 10.5238 32.0054V26.3387C9.18255 26.3387 8.09524 25.2514 8.09524 23.9101V16.6244ZM17.8095 32.0054C17.8095 32.4525 17.4471 32.8149 17 32.8149C16.5529 32.8149 16.1905 32.4525 16.1905 32.0054V29.5768C16.1905 28.8631 15.8401 28.284 15.5357 27.8656C15.4064 27.6878 15.2644 27.5122 15.1388 27.3569L15.0662 27.2669C14.9164 27.0808 14.7948 26.9242 14.6992 26.7756C14.6184 26.65 14.5714 26.5011 14.5714 26.3387V23.1006C14.5714 22.6535 14.9339 22.2911 15.381 22.2911H18.619C19.0661 22.2911 19.4286 22.6535 19.4286 23.1006V26.3387C19.4286 26.5011 19.3816 26.65 19.3008 26.7756C19.2052 26.9242 19.0836 27.0808 18.9338 27.2669L18.8613 27.3567C18.7358 27.512 18.5936 27.6879 18.4643 27.8656C18.1599 28.284 17.8095 28.8631 17.8095 29.5768V32.0054ZM17.8095 19.8625C17.8095 20.3096 17.4471 20.672 17 20.672C16.5529 20.672 16.1905 20.3096 16.1905 19.8625C16.1905 19.4154 16.5529 19.053 17 19.053C17.4471 19.053 17.8095 19.4154 17.8095 19.8625ZM15.381 12.5768C15.381 13.471 14.6561 14.1959 13.7619 14.1959C12.8677 14.1959 12.1429 13.471 12.1429 12.5768C12.1429 11.6826 12.8677 10.9578 13.7619 10.9578C14.6561 10.9578 15.381 11.6826 15.381 12.5768ZM19.4286 14.1959C19.4286 13.3017 20.1534 12.5768 21.0476 12.5768C21.9418 12.5768 22.6667 13.3017 22.6667 14.1959C22.6667 15.09 21.9418 15.8149 21.0476 15.8149C20.1534 15.8149 19.4286 15.09 19.4286 14.1959Z" fill="#262556"/>
<path d="M5.66667 19.053C5.66667 18.6059 5.30423 18.2435 4.85714 18.2435C4.41006 18.2435 4.04762 18.6059 4.04762 19.053V32.0054C4.04762 34.0597 4.34258 35.7859 5.56528 36.9442C6.76982 38.0854 8.67426 38.4816 11.3333 38.4816C12.7553 38.4816 13.6978 38.665 14.4127 39.0645C15.113 39.4559 15.6958 40.1119 16.2759 41.2722C16.4131 41.5464 16.6934 41.7197 17 41.7197C17.3066 41.7197 17.5869 41.5464 17.7241 41.2722C18.3042 40.1119 18.887 39.4559 19.5873 39.0645C20.3022 38.665 21.2447 38.4816 22.6667 38.4816C25.3257 38.4816 27.2302 38.0854 28.4347 36.9442C29.6574 35.7859 29.9524 34.0597 29.9524 32.0054V19.053C29.9524 18.6059 29.5899 18.2435 29.1429 18.2435C28.6958 18.2435 28.3333 18.6059 28.3333 19.053V32.0054C28.3333 33.9987 28.0211 35.1058 27.3212 35.7689C26.6032 36.4492 25.2695 36.8625 22.6667 36.8625C21.1351 36.8625 19.8665 37.0538 18.7975 37.6512C18.0826 38.0507 17.5026 38.6057 17 39.3186C16.4974 38.6057 15.9174 38.0507 15.2025 37.6512C14.1335 37.0538 12.8649 36.8625 11.3333 36.8625C8.7305 36.8625 7.39685 36.4492 6.67877 35.7689C5.97885 35.1058 5.66667 33.9987 5.66667 32.0054V19.053Z" fill="#262556"/>
</svg>
