<svg width="50" height="50" viewBox="0 0 50 50" fill="none" xmlns="http://www.w3.org/2000/svg">
<path fill-rule="evenodd" clip-rule="evenodd" d="M42.8983 27.45C42.9983 26.65 43.0733 25.85 43.0733 25C43.0733 24.15 42.9983 23.35 42.8983 22.55L48.1733 18.425C48.6483 18.05 48.7733 17.375 48.4733 16.825L43.4733 8.175C43.2483 7.775 42.8233 7.55 42.3733 7.55C42.2233 7.55 42.0733 7.575 41.9483 7.625L35.7233 10.125C34.4233 9.125 33.0233 8.3 31.4983 7.675L30.5483 1.05C30.4733 0.45 29.9483 0 29.3233 0H19.3233C18.6983 0 18.1733 0.45 18.0983 1.05L17.1483 7.675C15.6233 8.3 14.2233 9.15 12.9233 10.125L6.69833 7.625C6.54833 7.575 6.39833 7.55 6.24833 7.55C5.82333 7.55 5.39833 7.775 5.17333 8.175L0.173329 16.825C-0.151671 17.375 -0.00167098 18.05 0.473329 18.425L5.74833 22.55C5.64833 23.35 5.57333 24.175 5.57333 25C5.57333 25.825 5.64833 26.65 5.74833 27.45L0.473329 31.575C-0.00167098 31.95 -0.126671 32.625 0.173329 33.175L5.17333 41.825C5.39833 42.225 5.82333 42.45 6.27333 42.45C6.42333 42.45 6.57333 42.425 6.69833 42.375L12.9233 39.875C14.2233 40.875 15.6233 41.7 17.1483 42.325L18.0983 48.95C18.1733 49.55 18.6983 50 19.3233 50H29.3233C29.9483 50 30.4733 49.55 30.5483 48.95L31.4983 42.325C33.0233 41.7 34.4233 40.85 35.7233 39.875L41.9483 42.375C42.0983 42.425 42.2483 42.45 42.3983 42.45C42.8233 42.45 43.2483 42.225 43.4733 41.825L48.4733 33.175C48.7733 32.625 48.6483 31.95 48.1733 31.575L42.8983 27.45ZM37.9483 23.175C38.0483 23.95 38.0733 24.475 38.0733 25C38.0733 25.525 38.0233 26.075 37.9483 26.825L37.5983 29.65L39.8233 31.4L42.5233 33.5L40.7733 36.525L37.5983 35.25L34.9983 34.2L32.7483 35.9C31.6733 36.7 30.6483 37.3 29.6233 37.725L26.9733 38.8L26.5733 41.625L26.0733 45H22.5733L22.0983 41.625L21.6983 38.8L19.0483 37.725C17.9733 37.275 16.9733 36.7 15.9733 35.95L13.6983 34.2L11.0483 35.275L7.87333 36.55L6.12333 33.525L8.82333 31.425L11.0483 29.675L10.6983 26.85C10.6233 26.075 10.5733 25.5 10.5733 25C10.5733 24.5 10.6233 23.925 10.6983 23.175L11.0483 20.35L8.82333 18.6L6.12333 16.5L7.87333 13.475L11.0483 14.75L13.6483 15.8L15.8983 14.1C16.9733 13.3 17.9983 12.7 19.0233 12.275L21.6733 11.2L22.0733 8.375L22.5733 5H26.0483L26.5233 8.375L26.9233 11.2L29.5733 12.275C30.6483 12.725 31.6483 13.3 32.6483 14.05L34.9233 15.8L37.5733 14.725L40.7483 13.45L42.4983 16.475L39.8233 18.6L37.5983 20.35L37.9483 23.175ZM24.3233 15C18.7983 15 14.3233 19.475 14.3233 25C14.3233 30.525 18.7983 35 24.3233 35C29.8483 35 34.3233 30.525 34.3233 25C34.3233 19.475 29.8483 15 24.3233 15ZM24.3233 30C21.5733 30 19.3233 27.75 19.3233 25C19.3233 22.25 21.5733 20 24.3233 20C27.0733 20 29.3233 22.25 29.3233 25C29.3233 27.75 27.0733 30 24.3233 30Z" fill="white"/>
</svg>
