<svg width="50" height="50" viewBox="0 0 50 50" fill="none" xmlns="http://www.w3.org/2000/svg">
<path fill-rule="evenodd" clip-rule="evenodd" d="M45 2.5H5C3.625 2.5 2.5 3.625 2.5 5V20C2.5 21.375 3.625 22.5 5 22.5H45C46.375 22.5 47.5 21.375 47.5 20V5C47.5 3.625 46.375 2.5 45 2.5ZM42.5 17.5H7.5V7.5H42.5V17.5ZM45 27.5H5C3.625 27.5 2.5 28.625 2.5 30V45C2.5 46.375 3.625 47.5 5 47.5H45C46.375 47.5 47.5 46.375 47.5 45V30C47.5 28.625 46.375 27.5 45 27.5ZM42.5 42.5H7.5V32.5H42.5V42.5Z" fill="white"/>
</svg>
