<svg width="1440" height="483" viewBox="0 0 1440 483" fill="none" xmlns="http://www.w3.org/2000/svg">
<path d="M64.9302 598.097C57.9288 613.448 50.5 628.619 42.7482 643.601C40.1263 648.664 36.2694 653.195 32.4885 657.546C24.2332 667.036 14.4865 669.354 2.40283 665.117C0.227386 664.357 -1.87206 663.37 -4 662.458V669.886C-2.98353 670.599 -1.42557 671.093 0.835371 671.596C3.89429 672.271 6.98171 672.907 9.93613 673.914C17.3269 676.413 21.6588 683.005 21.3263 690.9H29.2871C32.0135 682.664 37.2669 675.966 43.2707 670.076C52.1245 661.394 61.3962 653.129 70.8105 645.044C78.5623 638.395 86.2571 631.45 94.8923 626.13C107.879 618.132 121.777 617.723 134.829 626.444C144.709 633.056 149.611 643.382 153.031 654.383C153.99 657.451 154.332 660.738 154.674 663.958C155.244 669.269 153.059 673.515 149.345 677.211C145.592 680.944 142.011 684.848 138.401 688.724C137.841 689.323 137.556 690.168 137.138 690.9H141.479C148.091 680.441 156.289 677.04 166.273 680.593C171.432 682.435 173.531 685.494 173.332 690.9H181.293C187.201 683.927 194.355 680.479 203.617 682.977C209.877 684.668 216.147 686.34 221.106 690.9H238.481C241.844 677.581 248.845 666.609 259.656 658.107C266.011 653.11 273.127 651.675 281.106 652.901C293.523 654.801 305.16 659.047 316.512 664.13C325.442 668.129 330.135 674.978 329.194 685.114C329.014 687.033 329.033 688.971 328.966 690.9H357.921C362.728 685.399 368.257 680.859 375.192 678.313C379.229 676.831 383.096 677.743 385.746 680.916C388.235 683.889 389.916 687.546 391.949 690.9H406.427C402.827 683.689 399.046 676.565 395.664 669.259C391.294 659.826 393.127 651.286 399.777 643.439C407.795 633.968 415.68 624.402 423.46 614.731C427.231 610.047 430.575 605.013 434.176 600.196C435.249 598.752 436.456 597.384 437.767 596.149C441.662 592.492 444.91 592.083 449.537 594.857C451.798 596.216 454.087 597.707 455.902 599.579C465.43 609.449 474.863 619.424 484.23 629.455C488.571 634.101 490.775 639.782 491.554 646.042C492.875 656.615 492.314 667.131 488.163 676.935C486.016 681.999 481.997 686.264 478.825 690.89H499.097C498.537 685.874 497.796 680.878 497.463 675.843C496.988 668.68 499.79 662.543 504.588 657.47C512.853 648.721 521.355 640.19 529.81 631.612C535.576 625.76 542.359 623.708 549.826 627.764C559.268 632.894 569.709 634.101 579.892 636.476C585.136 637.701 590.39 639.326 595.244 641.625C603.214 645.396 605.542 652.34 601.058 659.874C595.301 669.525 592.204 679.852 591.036 690.89H604.069C606.444 682.711 608.05 674.199 611.393 666.438C615.573 656.739 623.677 650.82 634.126 648.54C643.636 646.469 653.192 645.652 662.806 647.904C673.009 650.288 678.414 656.53 678.737 667.017C678.984 674.959 678.68 682.93 678.633 690.881H688.769C689.025 685.95 688.949 680.982 689.605 676.109C690.754 667.606 696.483 663.873 704.919 665.925C707.797 666.628 710.637 667.492 713.478 668.366C713.677 668.29 713.877 668.205 714.076 668.138C718.37 666.751 724.013 667.701 727.841 669.943C729.456 670.893 731.09 672.299 732.496 673.933C739.821 676.47 744.095 683.024 743.772 690.871H751.733C754.46 682.635 759.713 675.938 765.726 670.048C774.58 661.365 783.852 653.1 793.266 645.016C801.018 638.366 808.713 631.422 817.348 626.102C830.334 618.103 844.232 617.695 857.275 626.416C867.155 633.027 872.057 643.354 875.477 654.354C876.436 657.423 876.778 660.71 877.12 663.93C877.681 669.24 875.505 673.487 871.791 677.182C868.039 680.916 864.457 684.82 860.847 688.696C860.287 689.294 860.002 690.14 859.584 690.871H863.925C870.537 680.412 878.735 677.011 888.72 680.564C893.878 682.407 895.977 685.466 895.778 690.871H903.739C909.647 683.898 916.801 680.45 926.063 682.948C932.323 684.639 938.593 686.311 943.552 690.871H960.927C964.29 677.553 971.291 666.58 982.102 658.078C988.457 653.081 995.573 651.647 1003.55 652.872C1015.97 654.772 1027.61 659.019 1038.96 664.101C1047.89 668.1 1052.58 674.95 1051.64 685.086C1051.46 687.005 1051.48 688.943 1051.41 690.871H1080.37C1085.17 685.371 1090.7 680.83 1097.64 678.284C1101.68 676.802 1105.54 677.714 1108.19 680.887C1110.68 683.86 1112.36 687.518 1114.4 690.871H1128.87C1125.27 683.661 1121.49 676.536 1118.11 669.231C1113.74 659.798 1115.57 651.257 1122.22 643.411C1130.24 633.939 1138.13 624.373 1145.91 614.702C1149.68 610.019 1153.02 604.984 1156.62 600.168C1157.7 598.724 1158.9 597.356 1160.21 596.121C1164.11 592.463 1167.36 592.055 1171.98 594.829C1174.24 596.187 1176.53 597.679 1178.35 599.55C1187.88 609.42 1197.31 619.395 1206.68 629.427C1211.02 634.072 1213.22 639.753 1214 646.013C1215.32 656.587 1214.76 667.103 1210.61 676.907C1208.46 681.97 1204.44 686.235 1201.27 690.862H1221.54C1220.98 685.846 1220.24 680.849 1219.91 675.814C1219.43 668.651 1222.24 662.515 1227.03 657.442C1235.3 648.692 1243.8 640.162 1252.26 631.583C1258.02 625.732 1264.8 623.68 1272.27 627.736C1281.71 632.866 1292.15 634.072 1302.34 636.447C1307.58 637.673 1312.84 639.297 1317.69 641.596C1325.66 645.367 1327.99 652.312 1323.5 659.845C1317.75 669.497 1314.65 679.823 1313.48 690.862H1326.52C1328.89 682.682 1330.5 674.171 1333.84 666.409C1338.02 656.71 1346.12 650.792 1356.57 648.512C1366.08 646.441 1375.64 645.624 1385.25 647.875C1395.46 650.26 1400.86 656.501 1401.18 666.989C1401.43 674.931 1401.13 682.901 1401.08 690.852H1411.22C1411.47 685.922 1411.4 680.953 1412.05 676.08C1413.2 667.578 1418.93 663.844 1427.36 665.896C1431.92 667.008 1436.39 668.528 1440.89 669.858V660.444C1434 656.834 1431.53 650.497 1431.48 643.382C1431.42 637.036 1432.72 630.681 1433.03 624.316C1433.64 611.092 1433.93 597.85 1434.51 584.626C1434.69 580.437 1434.85 576.124 1435.98 572.143C1436.74 569.474 1439.2 567.299 1440.89 564.895V551.861C1439.47 552.08 1438.04 552.365 1436.61 552.498C1430.8 553.039 1425.89 551.339 1422.33 546.542C1421.18 545.003 1419.92 543.454 1419.19 541.706C1415.79 533.46 1409.59 527.381 1403.68 521.044C1401.79 519.021 1399.91 516.969 1398.3 514.737C1391.3 505.028 1393.67 491.614 1403.51 484.784C1407.66 481.905 1412 479.283 1416.02 476.234C1423.36 470.677 1428.55 463.39 1432.78 455.259C1435.09 450.822 1438.17 446.785 1440.9 442.567V381.759C1433.98 385.625 1426.68 384.875 1419.48 383.051C1415.91 382.149 1412.33 380.714 1409.17 378.824C1401.73 374.349 1396.78 368.174 1400.41 357.24C1404.28 345.584 1408.02 333.89 1411.95 322.253C1415.29 312.297 1422.22 306.056 1432.45 303.88C1435.12 303.31 1438.08 304.118 1440.91 304.289V262.3C1437.22 262.072 1433.3 262.566 1429.87 261.492C1418.59 257.958 1408.77 251.565 1401.74 242.141C1393.37 230.903 1395.51 218.743 1401.32 206.964C1402.37 204.826 1403.86 202.86 1405.41 201.036C1414.61 190.225 1428.54 186.34 1440.91 198.604V181.951C1435.59 182.644 1431.26 180.193 1427.2 177.325C1419.07 171.568 1413.66 163.36 1407.93 155.447C1404.19 150.269 1400.42 145.101 1396.5 140.066C1388.74 130.12 1389.9 117.79 1399.56 109.392C1408.63 101.507 1419.42 97.7356 1431.17 96.4152C1434.4 96.0542 1437.66 95.9972 1440.91 95.8072V88.5684C1433.82 86.5449 1429.92 81.1111 1431.59 73.7868C1433.11 67.137 1435.81 60.7436 1438.18 54.3028C1438.58 53.2293 1439.97 52.5264 1440.91 51.6524V20.5217C1425.3 19.6097 1412.92 10.5565 1410.24 -2.91417C1409.11 -8.58552 1409.64 -14.6274 1409.81 -20.4887C1409.93 -24.6876 1410.73 -28.858 1411.23 -33.0474H1401.1C1401.39 -26.312 1401.75 -19.5672 1401.97 -12.8319C1402.14 -7.43605 1400.33 -2.87617 1395.77 0.315742C1380.87 10.718 1364.34 15.3823 1346.25 13.6534C1336.72 12.7509 1330.78 6.88957 1327.77 -1.9737C1324.3 -12.1859 1324.7 -22.5976 1326.54 -33.0474H1313.51C1313.88 -26.825 1314.24 -20.5932 1314.64 -14.3709C1314.76 -12.4519 1315.1 -10.5425 1315.14 -8.62352C1315.51 5.96809 1311.83 12.5419 1298.27 17.9283C1286.32 22.6781 1274.08 26.896 1261.64 30.1259C1249.07 33.3939 1242.78 29.746 1237.27 18.0328C1235.54 14.3374 1234.12 10.4615 1232.96 6.54758C1229.07 -6.61907 1225.35 -19.8427 1221.57 -33.0379H1200.58C1197.56 -30.7389 1194.79 -27.9555 1191.47 -26.2455C1179.19 -19.9282 1166.46 -15.1783 1152.27 -15.3588C1145.31 -15.4443 1139.89 -18.1043 1135.66 -23.2911C1133.17 -26.3405 1131.14 -29.7795 1128.9 -33.0379H1115.15C1122.45 -18.6362 1123.56 -3.38915 1122.01 12.4184C1121.31 19.5717 1122.14 26.8675 1121.7 34.0588C1121.49 37.5642 1120.45 41.2122 1118.95 44.4041C1116.87 48.8025 1112.58 50.5979 1108.02 48.9354C1104.24 47.558 1100.7 45.3635 1097.3 43.1406C1088.02 37.0988 1078.82 30.9429 1069.72 24.6446C1066.28 22.2602 1062.9 19.6477 1060.03 16.6268C1055.06 11.3924 1053.9 5.05612 1056.12 -1.8502C1058.8 -10.191 1063.79 -17.0973 1069.66 -23.4241C1072.69 -26.692 1075.86 -29.8269 1078.96 -33.0284H1050.73C1050.48 -31.3754 1050.41 -29.675 1049.95 -28.079C1046.79 -17.0878 1041.7 -7.06556 1034.71 2.0257C1030.98 6.88957 1026.28 9.3975 1020.12 9.14101C1008.23 8.64702 996.295 8.59952 984.448 7.59255C968.232 6.21508 959.464 -3.60765 959.426 -19.8617C959.417 -24.2506 960.424 -28.6395 960.975 -33.0284H944.322C950.439 -28.649 951.551 -22.0467 951.503 -15.3398C951.446 -7.04656 950.848 1.26572 950.097 9.5305C949.157 19.8282 948.083 30.1355 946.526 40.3572C945.804 45.0596 944.208 49.7524 942.308 54.1413C935.183 70.6044 921.988 70.2909 911.918 59.0337C905.154 51.4719 899.644 42.6751 894.258 34.0018C888.15 24.1506 887.181 13.1404 889.271 1.8642C891.617 -10.7895 894.742 -23.1486 903.786 -33.0284H895.825C892.396 -21.8757 888.995 -10.723 885.528 0.41074C883.39 7.26955 882.174 14.1569 883.466 21.3862C884.093 24.8916 882.412 27.8175 879.638 29.8505C873.662 34.2393 866.975 35.5598 859.802 33.5744C855.252 32.3109 852.507 29.1095 852.383 24.4071C851.851 4.39114 852.649 -15.3968 863.973 -33.0379H858.909C857.066 -28.4685 854.948 -23.9941 853.456 -19.3107C850.683 -10.6185 850.094 -1.6032 850.208 7.48805C850.274 12.5324 850.141 17.6243 849.59 22.6306C848.764 30.069 845.125 33.7263 837.763 34.4673C823.608 35.8923 809.919 33.0234 796.468 29.0715C784.327 25.5091 773.165 20.0087 763.532 11.5539C750.66 0.258747 745.539 -18.7312 751.79 -33.0379H744.551C744.608 -28.212 744.323 -23.3481 744.817 -18.5698C745.264 -14.1904 746.423 -9.86798 747.525 -5.5836C748.304 -2.56268 749.738 0.296745 750.47 3.32716C752.227 10.5755 749.377 16.4368 742.148 18.1943C735.08 19.9137 727.68 20.2367 720.422 21.1392C719.833 21.2152 719.225 21.1867 718.494 21.1677C702.886 20.2557 690.498 10.566 687.819 -2.90467C686.688 -8.57602 687.22 -14.6179 687.391 -20.4792C687.515 -24.6781 688.313 -28.8485 688.816 -33.0379H678.68C678.975 -26.3025 679.336 -19.5577 679.554 -12.8224C679.725 -7.42655 677.911 -2.86667 673.351 0.325245C658.455 10.7275 641.926 15.3918 623.829 13.6629C614.3 12.7604 608.363 6.89907 605.352 -1.9642C601.884 -12.1764 602.283 -22.5881 604.126 -33.0379H591.093C591.463 -26.8155 591.824 -20.5837 592.223 -14.3614C592.346 -12.4424 592.679 -10.533 592.727 -8.61402C593.097 5.97759 589.411 12.5514 575.855 17.9378C563.904 22.6876 551.659 26.9055 539.224 30.1354C526.656 33.4034 520.357 29.7555 514.857 18.0423C513.119 14.3469 511.703 10.471 510.544 6.55708C506.649 -6.60957 502.935 -19.8332 499.154 -33.0284H478.16C475.139 -30.7294 472.374 -27.946 469.049 -26.236C456.776 -19.9187 444.046 -15.1688 429.853 -15.3493C422.89 -15.4348 417.475 -18.0948 413.238 -23.2816C410.749 -26.331 408.726 -29.77 406.484 -33.0284H392.728C400.034 -18.6267 401.145 -3.37966 399.597 12.4279C398.894 19.5812 399.72 26.877 399.283 34.0683C399.074 37.5738 398.029 41.2216 396.528 44.4136C394.457 48.812 390.163 50.6074 385.604 48.9449C381.823 47.5675 378.279 45.373 374.878 43.1501C365.607 37.1083 356.401 30.9524 347.301 24.6541C343.862 22.2697 340.48 19.6572 337.611 16.6363C332.642 11.4019 331.483 5.06562 333.706 -1.8407C336.385 -10.1815 341.373 -17.0878 347.244 -23.4146C350.274 -26.6825 353.437 -29.8174 356.544 -33.0189H328.311C328.064 -31.3659 327.988 -29.6655 327.532 -28.0695C324.368 -17.0783 319.286 -7.05606 312.294 2.0352C308.561 6.89907 303.858 9.407 297.702 9.15051C285.809 8.65652 273.877 8.60902 262.031 7.60205C245.815 6.22459 237.047 -3.59815 237.009 -19.8522C236.999 -24.2411 238.006 -28.63 238.557 -33.0189H221.904C228.022 -28.6395 229.133 -22.0372 229.086 -15.3303C229.029 -7.03706 228.43 1.27522 227.68 9.54C226.739 19.8377 225.666 30.145 224.108 40.3667C223.386 45.0691 221.79 49.7619 219.89 54.1508C212.765 70.6139 199.57 70.3004 189.5 59.0432C182.736 51.4814 177.227 42.6846 171.84 34.0113C165.732 24.1601 164.763 13.1499 166.853 1.8737C169.152 -10.761 172.277 -23.1201 181.321 -32.9999H173.36C169.931 -21.8472 166.53 -10.6945 163.063 0.43924C160.925 7.29806 159.709 14.1854 161.001 21.4147C161.628 24.9201 159.947 27.846 157.173 29.879C151.197 34.2678 144.51 35.5883 137.337 33.6029C132.787 32.3394 130.041 29.138 129.918 24.4356C129.386 4.41963 130.184 -15.3683 141.508 -33.0094H136.444C134.601 -28.44 132.483 -23.9656 130.991 -19.2822C128.217 -10.59 127.628 -1.5747 127.742 7.51655C127.809 12.5609 127.676 17.6528 127.125 22.6591C126.299 30.0974 122.66 33.7549 115.298 34.4958C101.143 35.9208 87.454 33.0519 74.0024 29.1C61.8617 25.5376 50.6995 20.0372 41.0668 11.5824C28.1756 0.306244 23.0553 -18.6837 29.2966 -32.9999H22.0578C22.1148 -28.174 21.8298 -23.3101 22.3238 -18.5318C22.7703 -14.1524 23.9293 -9.82998 25.0312 -5.5456C25.8102 -2.52468 27.2447 0.334743 27.9761 3.36516C29.7336 10.6135 26.8837 16.4748 19.6544 18.2323C12.5866 19.9517 5.18625 20.2747 -2.07155 21.1772C-2.66054 21.2532 -3.26852 21.2247 -4 21.2057V50.0184C0.702374 48.3465 4.64477 50.6169 8.76766 52.2319C12.4441 53.6663 16.206 55.0153 20.0439 55.9178C24.3282 56.9152 26.8362 59.1477 27.5107 63.5746C28.7171 71.5923 27.1497 79.1921 24.0717 86.5164C22.8463 89.4234 20.2624 90.9813 17.1179 90.8863C10.5251 90.6963 3.94179 90.2688 -2.64154 89.9364C-3.09752 89.9174 -3.55351 89.8509 -3.9905 89.8034V95.7502C-3.27802 96.1207 -2.29005 96.3962 -0.950582 96.6242C8.51116 98.2771 17.2794 101.555 22.0863 110.494C29.8666 124.943 30.9591 154.487 18.3624 169.829C12.862 176.527 6.15523 181.086 -2.57504 182.16C-3.15452 182.236 -3.62001 182.359 -3.981 182.549V199.991C-3.73401 200.428 -3.46801 200.846 -3.20202 201.226C6.32622 214.906 10.6961 229.763 6.99121 246.369C5.58524 252.676 2.38383 257.949 -3.30652 261.53C-3.54401 261.682 -3.77201 261.891 -3.9715 262.148V304.735C-3.9715 304.735 -3.9525 304.754 -3.943 304.764C1.21536 308.506 2.99181 313.874 3.5903 319.811C4.80626 331.914 6.10773 344.007 7.0197 356.138C7.77018 366.208 5.11026 375.024 -3.70551 381.142C-3.79101 381.199 -3.8765 381.275 -3.962 381.351V440.562C-3.73401 440.467 -3.54401 440.363 -3.38252 440.23C2.99181 434.701 10.4111 433.371 18.3244 435.395C31.643 438.805 44.9522 442.32 57.0739 449.141C58.0238 449.673 58.9548 450.233 59.8573 450.832C70.4875 457.871 73.4324 464.796 69.1955 476.756C63.2392 493.562 56.5989 510.129 50.0156 526.706C44.6862 540.129 34.208 546.39 20.1389 547.786C12.7196 548.518 5.39525 550.123 -1.98605 551.225C-2.82203 551.349 -3.46801 551.577 -3.962 551.909V562.976C-2.09055 561.998 -0.466095 561.124 1.19636 560.354C10.5631 556.032 20.6328 554.797 30.7501 554.037C39.6418 553.362 48.5906 552.906 57.3304 555.395C60.2183 556.212 63.1157 557.181 65.7851 558.53C73.0049 562.188 75.4369 567.166 73.1569 574.936C70.858 582.793 68.3691 590.677 64.9777 598.106L64.9302 598.097ZM150.361 579.031C146.181 573.017 144.063 566.339 144.149 558.321C143.683 551.301 147.027 544.936 151.311 538.97C154.19 534.961 157.268 531.086 160.403 527.267C166.406 519.942 169.066 511.269 171.004 502.225C171.755 498.71 172.79 495.186 174.187 491.88C177.854 483.235 184.769 478.637 193.87 477.364C201.061 476.357 206.647 479.074 209.421 485.838C212.243 492.716 213.934 500.04 216.185 507.156C220.46 520.712 224.782 534.249 229.076 547.796C229.694 549.743 230.368 551.69 230.872 553.666C234.206 566.843 226.483 577.739 212.86 577.995C199.228 578.252 185.995 579.971 173.208 584.864C170.662 585.842 167.822 586.232 165.076 586.469C158.712 587.011 153.895 584.132 150.352 579.021L150.361 579.031ZM581.536 290.21C582.59 291.825 583.531 293.506 584.528 295.159C586.305 298.114 586.238 301.087 583.749 303.434C578.581 308.288 573.471 313.275 567.828 317.541C558.033 324.951 547.935 331.99 537.789 338.906C534.759 340.967 531.225 342.487 527.71 343.618C522.59 345.261 518.021 343.285 515.484 338.535C513.964 335.685 512.71 332.626 511.855 329.51C507.827 314.757 503.562 300.052 500.199 285.147C497.397 272.749 500.512 264.523 511.342 259.241C525.658 252.259 538.103 242.607 551.412 234.19C554.319 232.347 557.634 230.922 560.959 230.029C568.046 228.129 572.815 230.989 574.516 238.113C575.513 242.293 575.817 246.644 576.13 248.82C575.75 256.4 575.399 261.806 575.228 267.221C574.971 275.514 577.004 283.209 581.545 290.2L581.536 290.21ZM738.985 357.706C738.538 346.03 737.911 334.346 737.93 322.661C737.94 314.425 741.958 310.378 750.156 309.19C753.956 308.639 757.832 308.554 759.941 308.392C776.043 308.507 789.951 311.47 803.668 315.261C807.516 316.325 811.24 318.472 814.517 320.828C822.231 326.357 823.266 334.308 822.012 343.124C819.086 363.776 817.101 384.495 816.939 405.404C816.816 420.565 806.585 431.101 791.186 431.614C780.023 431.994 768.766 431.357 757.623 430.407C740.438 428.944 732.24 413.574 730.843 401.518C730.53 398.859 731.318 395.458 732.857 393.292C740.628 382.31 739.45 369.998 738.975 357.706H738.985ZM1303.98 290.21C1305.04 291.825 1305.98 293.506 1306.97 295.159C1308.75 298.114 1308.68 301.087 1306.2 303.434C1301.03 308.288 1295.92 313.275 1290.27 317.541C1280.48 324.951 1270.38 331.99 1260.24 338.906C1257.21 340.967 1253.67 342.487 1250.16 343.618C1245.04 345.261 1240.47 343.285 1237.93 338.535C1236.41 335.685 1235.16 332.626 1234.3 329.51C1230.27 314.757 1226.01 300.052 1222.65 285.147C1219.84 272.749 1222.96 264.523 1233.79 259.241C1248.1 252.259 1260.55 242.607 1273.86 234.19C1276.77 232.347 1280.08 230.922 1283.41 230.029C1290.49 228.129 1295.26 230.989 1296.96 238.113C1297.96 242.293 1298.26 246.644 1298.58 248.82C1298.2 256.4 1297.85 261.806 1297.67 267.221C1297.42 275.514 1299.45 283.209 1303.99 290.2L1303.98 290.21ZM1302.1 399.125C1295.41 392.066 1288.13 385.578 1281.27 378.672C1276.44 373.817 1271.36 369.086 1267.36 363.586C1261.92 356.11 1263.4 349.811 1270.77 344.226C1272.21 343.133 1273.64 341.936 1275.26 341.205C1285.88 336.464 1294.5 328.969 1303.22 321.512C1309.95 315.755 1317.23 310.777 1329.07 310.539C1331.46 311.328 1336.34 312.192 1340.45 314.444C1351.55 320.543 1363.01 324.96 1375.68 326.737C1386.26 328.228 1392.68 334.916 1392.85 344.245C1392.95 349.289 1391.88 354.694 1389.95 359.359C1383.03 376.097 1374.76 392.19 1363.43 406.458C1358.38 412.823 1352.31 418.048 1345.03 421.933C1338.19 425.581 1331.84 424.831 1325.52 421.002C1316.18 415.341 1309.49 406.886 1302.12 399.096L1302.1 399.125ZM1304.32 431.68C1302.56 433.295 1300.54 434.692 1298.5 435.955C1279.71 447.526 1260.89 459.049 1242.07 470.572C1240.94 471.266 1239.79 471.94 1238.62 472.558C1226.68 478.865 1218.1 477.393 1209.64 466.772C1203.87 459.543 1198.46 451.972 1193.61 444.096C1189.11 436.791 1187.97 428.821 1190.55 420.148C1197.16 397.985 1208.13 378.729 1226.04 363.757C1229.62 360.755 1233.47 358.399 1240.01 358.409C1246.19 358.589 1252.17 362.798 1257.27 367.965C1264.46 375.242 1270.97 383.194 1277.91 390.727C1285.1 398.526 1292.46 406.164 1299.72 413.906C1301.69 416.015 1303.71 418.115 1305.43 420.432C1308.47 424.546 1308.1 428.241 1304.33 431.671L1304.32 431.68ZM1345.96 291.226C1337.53 298.579 1327.94 298.209 1320.36 289.925C1313.12 282.012 1310.19 272.35 1309.64 261.853C1309.99 261.815 1310.34 261.777 1310.68 261.749C1310.13 253.389 1309.89 244.982 1308.88 236.669C1308.37 232.433 1306.58 228.338 1305.16 224.244C1303.46 219.313 1304.09 214.782 1306.93 210.469C1309.31 206.85 1311.43 203.031 1314.04 199.592C1319.18 192.819 1326.47 192.277 1332.86 197.91C1333.14 198.148 1333.42 198.376 1333.65 198.651C1340.89 207.448 1349.62 214.592 1358.48 221.669C1366.21 227.844 1369.06 236.099 1366.21 245.903C1363.39 255.602 1360.88 265.397 1357.66 274.953C1355.47 281.423 1351.14 286.714 1345.96 291.226ZM1267.51 223.959C1257.73 230.979 1247.55 237.448 1237.41 243.946C1235.13 245.409 1232.34 246.255 1229.68 246.92C1222.47 248.715 1217.7 245.723 1215.87 238.503C1215.52 237.106 1215.19 235.672 1215.08 234.237C1214.8 230.39 1214.65 226.533 1214.45 222.686C1214.55 222.686 1214.67 222.686 1214.77 222.695C1215.03 209.082 1215.25 195.469 1215.57 181.856C1215.69 176.584 1215.4 171.207 1216.33 166.058C1218.09 156.292 1224.82 152.35 1234.46 154.953C1242.07 157.014 1248.39 161.498 1254.34 166.476C1261.76 172.67 1268.81 179.234 1274.08 187.48C1283.22 201.805 1281.22 214.117 1267.5 223.949L1267.51 223.959ZM1223.04 331.458C1223.91 342.459 1219.23 351.844 1212.01 359.672C1200.34 372.345 1191.44 386.651 1184.61 402.364C1183.7 404.463 1182.61 406.487 1181.53 408.501C1177.23 416.452 1170.72 420.119 1161.57 418.979C1149.24 417.44 1137.52 413.982 1126.55 408.14C1117.2 403.162 1110.75 395.458 1107.04 385.682C1103.76 377.019 1100.92 368.165 1098.27 359.283C1095.22 349.042 1098.1 339.476 1102.59 330.308C1106.5 322.3 1110.44 314.282 1114.78 306.502C1117.42 301.79 1120.58 297.325 1123.95 293.107C1132.2 282.81 1143.73 280.017 1156.2 279.703C1159.34 279.627 1162.47 279.694 1165.61 279.694C1165.65 279.969 1165.68 280.254 1165.72 280.53C1174.17 279.399 1182.63 278.335 1191.06 277.119C1198.75 276.008 1205.16 278.155 1208.91 285.118C1216.69 299.586 1221.75 315.023 1223.03 331.458H1223.04ZM1136.97 444.03C1136.88 449.92 1134.15 454.404 1129.1 457.424C1127.66 458.289 1126.15 459.163 1124.54 459.6C1105 464.91 1085.52 470.515 1065.79 471.066C1045.17 470.81 1027.59 464.891 1013.57 450.214C1004.47 440.676 1003.16 429.372 1006.67 417.231C1008.41 411.218 1012.69 406.962 1018.76 405.898C1038.23 402.468 1051.91 390.765 1063.77 375.983C1066.2 372.943 1069.42 370.35 1072.73 368.25C1078.03 364.887 1082.42 366.151 1085.42 371.689C1086.95 374.52 1088.09 377.655 1088.88 380.781C1093.06 397.244 1103.96 408.434 1117.47 417.611C1120.67 419.777 1124.12 421.591 1127.11 424.004C1133.41 429.106 1137.1 435.718 1136.98 444.03H1136.97ZM1124.7 268.133C1117.84 285.916 1108.42 302.693 1093.28 315.128C1082.16 324.257 1071.33 323.431 1060.85 313.589C1050.99 304.327 1043.28 293.402 1036.95 281.565C1034.64 277.224 1033.82 272.084 1032.32 267.316C1033.05 259.554 1035.42 252.657 1039.44 246.587C1050.01 230.628 1060.81 214.82 1071.88 199.212C1074.47 195.574 1078.26 192.629 1081.93 189.95C1090.29 183.832 1098.4 184.497 1106.21 191.47C1112.71 197.283 1117.22 204.579 1120.88 212.341C1129.42 230.4 1131.92 249.418 1124.7 268.142V268.133ZM1082.06 169.582C1078.32 175.558 1073.55 180.915 1069.09 186.425C1060.25 197.388 1051.34 208.294 1042.4 219.18C1039.88 222.239 1037.49 225.517 1034.48 228.034C1028.02 233.449 1021.08 232.3 1016.1 225.46C1011.27 218.819 1009.35 211.087 1008.09 203.211C1007.12 197.16 1006.73 191.014 1006.08 184.915C1005.24 168.385 1012.86 156.549 1026.86 149.11C1039.5 142.403 1052.71 136.751 1065.82 131.004C1069.02 129.598 1072.83 129.18 1076.4 129.047C1084.05 128.743 1089.47 134.129 1090 141.881C1090.7 152.084 1087.3 161.232 1082.06 169.592V169.582ZM1013.64 257.16C1019.88 259.991 1023.62 265.435 1023.83 272.322C1024.58 295.615 1036.88 312.259 1054.01 326.347C1056.68 328.541 1058.99 331.239 1061.22 333.909C1064.49 337.842 1065.56 342.516 1063.15 347.085C1054.71 363.187 1043.39 376.658 1025.71 382.918C1011.75 387.858 999.981 382.291 989.521 373.228C980.411 365.324 974.151 355.397 969.61 344.302C962.799 327.677 960.101 310.264 959.645 292.879C959.911 284.083 960.766 275.856 964.319 268.114C970.085 255.564 981.779 248.611 995.326 250.9C1001.61 251.964 1007.78 254.5 1013.64 257.16ZM997.701 222.059C997.349 229.763 993.065 235.605 985.921 237.952C977.286 240.783 968.251 242.455 959.331 244.336C955.712 245.096 951.921 245.086 948.207 245.428C948.207 245.276 948.188 245.134 948.188 244.982C946.022 244.982 943.828 245.2 941.69 244.944C932.361 243.823 926.206 238.959 923.745 229.64C920.601 217.746 920.639 206.014 925.455 194.576C929.531 184.905 937.976 181.865 946.991 187.204C951.712 189.997 955.921 193.731 960.091 197.35C966.741 203.116 973.799 206.346 983.09 205.52C992.799 204.665 998.299 209.111 997.71 222.049L997.701 222.059ZM929.929 258.281C933.9 262.452 936.95 267.107 938.061 272.92C939.315 279.504 937.672 285.356 933.045 289.896C919.546 303.168 903.52 311.052 884.236 310.938C868.552 310.843 856.382 301.106 852.355 284.434C849.913 274.317 849.125 263.81 847.871 255.279C849.229 239.472 850.236 225.659 851.718 211.894C852.146 207.904 853.523 203.857 855.233 200.19C858.805 192.515 866.68 188.753 875.03 190.197C884.872 191.907 893.451 196.562 901.649 201.929C906.313 204.988 908.736 209.709 909.733 215.152C910.664 220.244 911.338 225.393 912.488 230.438C915.053 241.723 922.244 250.169 929.948 258.272L929.929 258.281ZM911.367 320.951C915.794 319.099 919.736 316.097 924.173 314.292C935.183 309.827 943.505 312.905 948.065 323.868C951.332 331.714 953.593 340.046 955.512 348.348C956.899 354.343 954.591 360.157 950.05 364.071C944.436 368.896 938.071 372.848 931.924 377.028C927.346 380.144 922.653 383.099 917.903 385.948C915.338 387.497 912.668 389.017 909.857 389.967C903.387 392.142 898.286 388.865 897.174 382.12C896.88 380.344 896.775 378.529 896.576 376.734C896.509 376.734 896.433 376.734 896.367 376.734C896.367 366.388 896.462 356.043 896.338 345.698C896.205 334.27 900.233 325.606 911.367 320.951ZM928.239 392.617C933.435 389.824 938.299 386.433 943.448 383.554C947.01 381.569 950.686 379.679 954.505 378.282C960.794 375.993 966.114 378.045 970.379 382.975C974.54 387.801 978.853 392.532 982.596 397.671C984.772 400.654 985.959 404.349 987.593 407.731C987.289 407.883 986.975 408.045 986.671 408.197C986.519 414.799 983.033 419.787 978.036 423.358C971.89 427.757 965.174 431.348 958.695 435.271C946.013 442.947 933.425 450.775 920.601 458.194C914.255 461.861 907.596 465.11 900.803 467.855C897.763 469.081 893.954 469.204 890.639 468.777C883.048 467.798 876.351 464.606 870.984 458.935C865.341 452.969 863.555 445.303 867.953 438.397C871.706 432.507 876.674 427.206 881.861 422.465C895.597 409.916 911.984 401.329 928.248 392.598L928.239 392.617ZM879.676 474.239C887.988 480.148 890.924 490.93 886.174 500.012C882.241 507.536 876.997 514.375 872.294 521.491C867.583 528.616 862.861 535.731 858.054 542.78C855.423 546.646 852.925 550.683 849.79 554.122C845.591 558.72 840.024 560.069 833.906 558.891C823.39 556.868 812.874 554.844 802.367 552.773C800.6 552.422 798.842 551.947 797.142 551.349C791.072 549.23 789.143 546.466 789.143 540.091C789.143 538.4 789.143 536.719 789.143 535.028C790.008 515.81 792.316 496.791 799.118 478.694C805.948 460.521 819.818 452.798 838.903 456.446C853.751 459.286 867.364 465.48 879.666 474.23L879.676 474.239ZM740.733 435.385C754.051 438.796 767.36 442.31 779.482 449.131C780.432 449.663 781.363 450.224 782.265 450.822C792.896 457.861 795.841 464.787 791.604 476.747C785.647 493.552 779.007 510.12 772.424 526.697C767.094 540.12 756.616 546.38 742.547 547.777C735.137 548.508 727.803 550.114 720.422 551.215C719.586 551.339 718.94 551.567 718.446 551.899V547.596V551.909C717.021 552.128 715.596 552.412 714.162 552.545C708.357 553.087 703.446 551.386 699.884 546.589C698.734 545.05 697.471 543.502 696.749 541.754C693.348 533.508 687.144 527.428 681.236 521.092C679.345 519.068 677.464 517.016 675.849 514.784C668.857 505.075 671.223 491.662 681.065 484.831C685.216 481.953 689.557 479.331 693.576 476.281C700.91 470.724 706.106 463.438 710.333 455.306C712.642 450.87 715.72 444.78 718.456 440.562C718.674 440.467 718.874 440.363 719.035 440.23C725.409 434.701 732.829 433.371 740.742 435.395L740.733 435.385ZM579.664 399.125C572.977 392.066 565.69 385.578 558.831 378.672C554.005 373.817 548.923 369.086 544.924 363.586C539.48 356.11 540.962 349.811 548.334 344.226C549.769 343.133 551.203 341.936 552.828 341.205C563.448 336.464 572.065 328.969 580.785 321.512C587.511 315.755 594.797 310.777 606.634 310.539C609.028 311.328 613.901 312.192 618.015 314.444C629.111 320.543 640.577 324.96 653.24 326.737C663.823 328.228 670.244 334.916 670.415 344.245C670.51 349.289 669.446 354.694 667.518 359.359C660.593 376.097 652.328 392.19 640.995 406.458C635.941 412.823 629.871 418.048 622.594 421.933C615.754 425.581 609.399 424.831 603.081 421.002C593.743 415.341 587.055 406.886 579.683 399.096L579.664 399.125ZM581.878 431.68C580.111 433.295 578.097 434.692 576.054 435.955C557.264 447.526 538.445 459.049 519.626 470.572C518.495 471.266 517.346 471.94 516.178 472.558C504.236 478.865 495.658 477.393 487.194 466.772C481.427 459.543 476.013 451.972 471.168 444.096C466.665 436.791 465.525 428.821 468.109 420.148C474.711 397.985 485.683 378.729 503.59 363.757C507.172 360.755 511.038 358.399 517.565 358.409C523.739 358.589 529.724 362.798 534.826 367.965C542.017 375.242 548.524 383.194 555.459 390.727C562.641 398.526 570.013 406.164 577.261 413.906C579.237 416.015 581.251 418.115 582.97 420.432C586.01 424.546 585.64 428.241 581.878 431.671V431.68ZM636.463 295.463C637.233 280.682 641.85 267.439 652.1 256.448C656.793 251.423 662.607 250.15 668.971 251.841C681.53 255.165 691.552 262.547 699.608 272.512C704.482 278.544 704.12 285.175 700.207 291.73C696.122 298.57 690.051 303.301 683.364 307.243C674.681 312.354 665.561 316.515 655.263 316.828C643.949 317.17 636.9 310.387 636.463 299.083C636.416 297.876 636.463 296.67 636.463 295.463ZM634.098 435.718C637.717 423.102 644.329 412.348 654.19 403.703C659.928 398.678 666.758 396.208 674.443 396.218C678.547 396.218 682.642 396.218 686.745 396.218V396.104C691.324 396.104 695.913 395.952 700.492 396.132C713.031 396.636 718.978 404.064 715.767 416.11C714.048 422.57 711.454 428.954 708.234 434.806C702.42 445.35 696.046 455.591 689.491 465.699C686.318 470.582 681.758 474.334 676.239 476.585C667.765 480.034 660.232 477.478 653.705 472.016C648.462 467.627 643.522 462.773 638.99 457.652C633.461 451.392 631.732 443.944 634.088 435.718H634.098ZM718.703 381.123C718.617 381.18 718.532 381.256 718.446 381.332C711.521 385.198 704.225 384.903 697.024 383.079C693.452 382.177 689.871 380.743 686.717 378.852C679.279 374.378 674.329 368.203 677.958 357.269C681.825 345.613 685.568 333.918 689.491 322.281C690.374 319.65 691.514 317.284 692.892 315.185C695.324 308.164 702.04 302.968 709.782 302.968C712.328 302.968 714.77 303.557 717.002 304.574C717.487 304.65 717.971 304.716 718.456 304.745V305.315V304.716C718.456 304.716 718.475 304.735 718.484 304.745C719.586 305.543 720.527 306.426 721.344 307.367C725.181 310.682 727.68 315.536 727.661 320.837C727.651 325.264 727.566 329.691 727.461 334.118C728.193 341.452 728.896 348.776 729.447 356.119C730.197 366.189 727.537 375.005 718.722 381.123H718.703ZM729.418 246.369C728.012 252.676 724.811 257.949 719.121 261.53C718.883 261.682 718.655 261.891 718.456 262.148C714.76 261.92 710.846 262.623 707.417 261.549C696.131 258.015 686.309 251.622 679.288 242.198C670.909 230.96 673.056 218.8 678.861 207.021C679.915 204.883 681.407 202.917 682.955 201.093C691.106 191.508 702.99 188.43 714.209 196.4C719.719 198.3 724.488 202.508 725.381 208.303C725.637 209.956 725.856 211.609 726.065 213.272C730.596 223.56 732.088 234.522 729.437 246.378L729.418 246.369ZM653.012 211.505C650.057 211.989 646.685 211.505 643.797 210.564C631.21 206.403 621.473 198.423 614.3 187.328C611.365 182.787 611.013 177.79 612.714 172.736C617.198 159.436 624.589 148.018 635.247 138.832C636.862 137.435 638.791 136.305 640.738 135.393C645.878 132.98 648.718 133.502 652.717 137.587C659.044 144.028 665.523 150.355 671.479 157.128C676.951 163.35 679.782 170.893 680.191 178.037C680.191 193.113 666.787 209.263 652.993 211.505H653.012ZM636.036 221.669C643.769 227.844 646.609 236.099 643.759 245.903C640.947 255.602 638.43 265.397 635.209 274.953C633.024 281.423 628.693 286.714 623.515 291.226C615.079 298.579 605.494 298.209 597.913 289.925C590.675 282.012 587.891 261.777 588.233 261.739C587.682 253.379 587.445 244.972 586.438 236.66C585.925 232.423 584.129 228.329 582.714 224.234C581.013 219.304 581.64 214.772 584.481 210.46C586.865 206.84 588.984 203.021 591.596 199.582C596.735 192.809 604.022 192.268 610.415 197.901C610.691 198.138 610.975 198.366 611.203 198.642C618.442 207.439 627.173 214.583 636.036 221.66V221.669ZM545.066 223.959C535.282 230.979 525.107 237.448 514.962 243.946C512.682 245.409 509.898 246.255 507.238 246.92C500.028 248.715 495.25 245.723 493.426 238.503C493.074 237.106 492.742 235.672 492.637 234.237C492.352 230.39 492.21 226.533 492.001 222.686C492.105 222.686 492.219 222.686 492.324 222.695C492.58 209.082 492.818 195.469 493.122 181.856C493.236 176.584 492.951 171.207 493.882 166.058C495.639 156.292 502.374 152.35 512.017 154.953C519.626 157.014 525.943 161.498 531.9 166.476C539.319 172.67 546.377 179.234 551.64 187.48C560.788 201.805 558.784 214.117 545.066 223.949V223.959ZM500.598 331.458C501.462 342.459 496.779 351.844 489.569 359.672C477.894 372.345 468.992 386.651 462.162 402.364C461.25 404.463 460.167 406.487 459.084 408.501C454.781 416.452 448.273 420.119 439.125 418.979C426.794 417.44 415.072 413.982 404.1 408.14C394.752 403.162 388.301 395.458 384.597 385.682C381.31 377.019 378.469 368.165 375.819 359.283C372.769 349.042 375.657 339.476 380.141 330.308C384.055 322.3 387.997 314.282 392.339 306.502C394.97 301.79 398.134 297.325 401.506 293.107C409.752 282.81 421.285 280.017 433.758 279.703C436.893 279.627 440.028 279.694 443.163 279.694C443.201 279.969 443.238 280.254 443.276 280.53C451.722 279.399 460.186 278.335 468.612 277.119C476.307 276.008 482.71 278.155 486.462 285.118C494.243 299.586 499.306 315.023 500.588 331.458H500.598ZM414.521 444.03C414.435 449.92 411.699 454.404 406.655 457.424C405.211 458.289 403.701 459.163 402.095 459.6C382.564 464.91 363.07 470.515 343.339 471.066C322.725 470.81 305.141 464.891 291.129 450.214C282.028 440.676 280.717 429.372 284.222 417.231C285.961 411.218 290.245 406.962 296.315 405.898C315.78 402.468 329.46 390.765 341.325 375.983C343.757 372.943 346.978 370.35 350.284 368.25C355.584 364.887 359.973 366.151 362.975 371.689C364.505 374.52 365.645 377.655 366.433 380.781C370.613 397.244 381.519 408.434 395.027 417.611C398.219 419.777 401.677 421.591 404.66 424.004C410.968 429.106 414.654 435.718 414.53 444.03H414.521ZM402.257 268.133C395.398 285.916 385.974 302.693 370.831 315.128C359.717 324.257 348.887 323.431 338.409 313.589C328.548 304.327 320.834 293.402 314.507 281.565C312.19 277.224 311.373 272.084 309.872 267.316C310.603 259.554 312.978 252.657 316.996 246.587C327.56 230.628 338.361 214.82 349.438 199.212C352.022 195.574 355.812 192.629 359.479 189.95C367.849 183.832 375.952 184.497 383.761 191.47C390.268 197.283 394.771 204.579 398.438 212.341C406.978 230.4 409.476 249.418 402.257 268.142V268.133ZM359.622 169.582C355.879 175.558 351.11 180.915 346.655 186.425C337.81 197.388 328.9 208.294 319.96 219.18C317.443 222.239 315.049 225.517 312.047 228.034C305.587 233.449 298.643 232.3 293.665 225.46C288.83 218.819 286.911 211.087 285.657 203.211C284.688 197.16 284.289 191.014 283.643 184.915C282.807 168.385 290.426 156.549 304.428 149.11C317.063 142.403 330.277 136.751 343.387 131.004C346.588 129.598 350.397 129.18 353.96 129.047C361.617 128.743 367.032 134.129 367.564 141.881C368.267 152.084 364.866 161.232 359.622 169.592V169.582ZM291.195 257.16C297.436 259.991 301.17 265.435 301.388 272.322C302.129 295.615 314.431 312.259 331.56 326.347C334.229 328.541 336.547 331.239 338.77 333.909C342.047 337.842 343.111 342.516 340.708 347.085C332.262 363.187 320.948 376.658 303.26 382.918C289.305 387.858 277.534 382.291 267.075 373.228C257.965 365.324 251.705 355.397 247.164 344.302C240.352 327.677 237.655 310.264 237.199 292.879C237.465 284.083 238.32 275.856 241.872 268.114C247.639 255.564 259.333 248.611 272.88 250.9C279.168 251.964 285.334 254.5 291.195 257.16ZM275.255 222.049C274.903 229.754 270.619 235.596 263.475 237.942C254.84 240.773 245.805 242.445 236.885 244.326C233.266 245.086 229.475 245.077 225.761 245.419C225.761 245.267 225.742 245.124 225.742 244.972C223.576 244.972 221.381 245.191 219.244 244.934C209.915 243.813 203.759 238.949 201.299 229.63C198.155 217.736 198.193 206.004 203.009 194.567C207.084 184.896 215.53 181.856 224.545 187.195C229.266 189.988 233.475 193.721 237.645 197.34C244.295 203.107 251.353 206.337 260.644 205.51C270.353 204.655 275.853 209.101 275.264 222.04L275.255 222.049ZM207.483 258.281C211.454 262.452 214.504 267.107 215.615 272.92C216.869 279.504 215.226 285.356 210.599 289.896C197.1 303.168 181.074 311.052 161.79 310.938C146.105 310.843 133.936 301.106 129.908 284.434C127.467 274.317 126.678 263.81 125.425 255.279C126.783 239.472 127.79 225.659 129.272 211.894C129.699 207.904 131.077 203.857 132.787 200.19C136.359 192.515 144.234 188.753 152.584 190.197C162.426 191.907 171.004 196.562 179.203 201.929C183.876 204.988 186.289 209.709 187.287 215.152C188.218 220.244 188.892 225.393 190.042 230.438C192.607 241.723 199.798 250.169 207.502 258.272L207.483 258.281ZM188.921 320.951C193.338 319.099 197.29 316.097 201.726 314.292C212.737 309.827 221.058 312.905 225.618 323.868C228.886 331.714 231.147 340.046 233.066 348.348C234.453 354.343 232.145 360.157 227.604 364.071C221.989 368.896 215.625 372.848 209.478 377.028C204.899 380.144 200.207 383.099 195.457 385.948C192.892 387.497 190.222 389.017 187.41 389.967C180.941 392.142 175.84 388.865 174.728 382.12C174.434 380.344 174.329 378.529 174.13 376.734C174.063 376.734 173.987 376.734 173.921 376.734C173.921 366.388 174.016 356.043 173.892 345.698C173.759 334.27 177.787 325.606 188.921 320.951ZM205.792 392.617C210.989 389.824 215.853 386.433 221.001 383.554C224.564 381.569 228.24 379.679 232.059 378.282C238.348 375.993 243.668 378.045 247.924 382.975C252.085 387.801 256.398 392.532 260.14 397.671C262.316 400.654 263.503 404.349 265.137 407.731L264.216 408.197C264.064 414.799 260.568 419.787 255.581 423.358C249.434 427.757 242.718 431.348 236.239 435.271C223.557 442.947 210.97 450.775 198.145 458.194C191.799 461.861 185.14 465.11 178.348 467.855C175.308 469.081 171.498 469.204 168.183 468.777C160.593 467.798 153.895 464.606 148.528 458.935C142.885 452.969 141.099 445.303 145.497 438.397C149.25 432.507 154.218 427.206 159.405 422.465C173.142 409.916 189.529 401.329 205.792 392.598V392.617ZM249.957 641.691C249.434 645.386 247.933 649.262 245.843 652.359C241.606 658.62 236.923 664.623 231.945 670.323C227.87 674.988 222.303 676.289 216.128 675.453C204.234 673.829 195.514 667.226 189.481 657.423C184.522 649.348 180.818 640.513 176.419 632.087C173.142 625.807 169.921 619.462 166.169 613.467C159.206 602.353 162.474 593.917 175.488 591.779C184.969 590.221 194.64 589.775 204.206 588.711C213.782 587.647 222.806 584.845 231.157 579.933C236.429 576.827 240.903 577.663 244.874 582.527C249.273 587.913 251.429 594.268 252.313 601.08C252.712 604.177 252.873 607.312 253.234 611.501C252.256 620.896 251.429 631.346 249.947 641.701L249.957 641.691ZM326.639 637.217C325.128 646.659 318.412 651.219 308.884 649.804C305.939 649.367 302.965 648.54 300.22 647.391C292.668 644.227 285.163 640.941 277.762 637.445C268.662 633.141 264.909 624.848 263.418 615.69C261.451 603.673 261.176 591.494 262.952 579.363C264.472 569.018 270.058 562.349 280.261 559.376C286.607 557.523 292.744 554.949 299.032 552.868C301.987 551.89 305.046 551.092 308.124 550.589C314.973 549.487 320.54 552.602 322.392 559.328C323.808 564.477 324.055 569.958 324.606 573.73C323.931 582.242 323.029 589.081 322.962 595.931C322.915 600.652 323.428 605.573 324.758 610.085C327.399 619.063 328.111 628.106 326.648 637.217H326.639ZM322.022 535.911C312.18 536.985 302.927 539.816 293.979 543.863C285.676 547.615 277.069 550.304 267.959 551.026C250.052 552.441 238.12 546.77 233.779 529.851C229.722 514.043 224.051 498.834 219.159 483.34C217.81 479.065 217.525 474.344 217.373 469.812C217.116 462.231 220.612 456.332 227.442 453.207C237.18 448.751 247.154 444.78 257.139 440.866C261.394 439.204 265.593 440.192 268.823 443.498C271.417 446.158 273.782 449.084 275.995 452.067C289.134 469.774 306.138 480.49 328.596 481.592C338.38 482.076 342.902 486.921 342.969 496.801C342.997 500.173 342.969 503.555 342.969 506.928H342.959C342.959 510.661 342.978 514.404 342.959 518.137C342.912 525.015 339.577 529.946 333.44 532.653C329.85 534.239 325.917 535.474 322.031 535.892L322.022 535.911ZM417.789 602.182C415.366 603.73 413.333 605.858 411.082 607.682C399.815 616.783 390.933 627.498 386.031 641.482C383.181 649.633 379.201 657.461 372.75 663.645C367.535 668.651 361.655 670.428 354.53 668.252C341.563 664.291 337.516 659.009 336.917 644.484C336.832 642.318 336.908 640.143 336.908 637.977C336.86 637.977 336.813 637.977 336.775 637.977C337.221 628.591 338.276 619.186 337.972 609.829C337.611 599.037 335.891 588.302 335.065 577.511C334.59 571.298 334.609 565.038 334.637 558.796C334.637 556.915 335.236 554.987 335.844 553.172C338.779 544.366 346.303 540.737 354.767 544.623C359.536 546.808 363.868 550.009 368.219 553.011C378.507 560.126 389.356 565.703 402.247 565.437C405.81 565.361 409.372 564.392 412.906 563.727C415.157 563.309 417.342 562.568 419.594 562.197C427.203 560.962 431.715 565.095 431.962 572.846C432.352 585.168 428.59 595.285 417.789 602.172V602.182ZM404.993 547.71C396.12 547.463 384.359 545.535 374.318 537.726C366.49 531.646 363.004 523.191 361.474 513.777C359.242 499.983 364.068 489.885 376.579 483.615C383.324 480.233 390.477 477.326 397.763 475.417C412.697 471.494 423.717 462.763 432.418 450.338C435.211 446.357 438.65 442.595 442.498 439.641C448.349 435.148 453.793 436.297 457.935 442.491C460.196 445.873 462.001 449.625 463.52 453.406C467.881 464.245 474.407 473.128 484.553 479.312C490.576 482.979 492.115 489.258 490.11 497.627C488.21 505.56 483.489 511.801 478.131 517.558C460.281 536.709 434.537 547.748 404.983 547.71H404.993ZM528.062 607.406C525.459 612.774 521.915 617.742 518.353 622.578C516.786 624.715 514.335 626.434 511.941 627.688C504.968 631.346 498.584 630.101 493.445 624.117C489.445 619.452 485.712 614.569 481.959 609.705C475.31 601.08 467.871 593.261 459.236 586.574C452.615 581.444 449.1 574.765 449.689 566.501C449.423 555.756 452.928 547.634 462.798 542.476C468.508 539.493 473.296 534.8 478.863 531.475C481.969 529.623 485.74 528.635 489.341 527.941C495.069 526.83 499.116 529.727 501.728 534.638C504.265 539.426 506.431 544.414 509.043 549.164C514.439 558.958 519.284 569.161 525.715 578.242C532.584 587.942 532.907 597.432 528.062 607.435V607.406ZM537.476 573.369C530.475 568.268 525.734 561.266 521.621 553.875C515.874 543.559 510.107 533.185 508.739 521.13C508.521 519.22 508.407 517.292 508.245 515.373C508.331 505.997 511.285 498.273 519.578 492.887C535.852 482.314 551.992 471.541 568.056 460.654C574.639 456.199 580.719 451.003 587.359 446.652C590.466 444.619 594.265 443.346 597.932 442.519C601.343 441.759 604.012 443.811 604.269 447.345C604.573 451.506 604.335 455.743 603.974 459.904C602.179 480.651 599.851 501.37 598.512 522.146C597.334 540.433 588.442 553.913 574.591 564.848C568.303 569.807 561.624 574.015 553.854 576.352C547.821 578.166 542.444 576.988 537.457 573.359L537.476 573.369ZM613.436 617.068C612.296 625.39 607.356 629.541 598.882 629.503C595.899 629.484 592.841 629.227 589.934 628.562C579.959 626.283 570.022 623.803 560.095 621.333C555.183 620.117 550.937 617.676 547.574 613.847C543.024 608.67 543.043 602.619 548.23 598.182C560.655 587.552 573.281 577.15 585.887 566.738C587.635 565.294 589.668 564.145 591.701 563.109C599.31 559.233 604.554 560.867 608.449 568.42C613.056 577.34 615.716 586.764 615.488 596.957C614.823 603.654 614.367 610.389 613.455 617.058L613.436 617.068ZM622.271 578.698C614.471 568.002 608.344 556.421 607.47 542.77C607.356 540.965 607.138 539.17 606.967 537.374L606.454 537.289C608.069 526.459 609.807 515.648 611.26 504.8C612.153 498.121 612.704 491.396 613.246 484.679C613.844 477.364 614.272 470.031 614.737 462.697C615.079 457.339 616.78 454.366 620.39 453.634C624.76 452.741 626.622 456.142 628.493 459.02C636.777 471.731 644.766 484.651 653.23 497.238C657.933 504.22 663.386 510.699 668.468 517.425C679.545 532.102 679.678 540.585 667.603 554.445C660.108 563.052 651.511 570.699 643.36 578.727C642.344 579.734 641.061 580.484 639.845 581.263C633.262 585.529 626.85 585.016 622.252 578.698H622.271ZM702.743 616.792C699.466 632.182 686.983 640.513 671.574 637.54C662.312 635.754 653.116 634.766 643.636 635.136C630.716 635.64 626.28 629.674 628.968 616.916C630.659 608.869 634.411 601.963 640.33 596.349C649.155 587.979 658.018 579.639 667.195 571.668C671.061 568.315 675.517 565.408 680.143 563.214C689.225 558.891 695.305 561.532 699.266 570.737C703.209 579.905 704.852 587.856 705.289 597.84C704.472 604.158 704.064 610.56 702.743 616.773V616.792ZM765.194 643.591C762.572 648.654 758.716 653.186 754.935 657.537C746.679 667.027 736.933 669.345 724.849 665.108C722.674 664.348 720.574 663.36 718.446 662.448C711.549 658.838 709.089 650.535 709.032 643.42C708.975 637.074 710.276 630.719 710.58 624.354C711.198 611.13 711.483 597.888 712.062 584.664C712.243 580.475 712.404 576.162 713.535 572.181C714.295 569.512 716.755 565.361 718.446 562.957C720.318 561.979 721.942 561.105 723.604 560.335C732.971 556.013 743.041 554.778 753.158 554.018C762.05 553.343 770.999 552.887 779.739 555.376C782.626 556.193 785.524 557.162 788.193 558.511C795.404 562.169 797.845 567.147 795.565 574.917C793.266 582.774 790.777 590.658 787.386 598.087C780.384 613.439 772.956 628.61 765.204 643.591H765.194ZM857.114 614.123C849.97 614.74 842.712 613.876 835.511 614.028C831.132 614.123 826.781 614.968 822.402 615.358C815.609 615.966 808.77 617.22 802.034 616.802C794.815 616.355 790.948 610.275 792.364 603.046C793.029 599.664 794.492 596.425 795.755 593.176C796.8 590.487 798.434 587.98 799.184 585.225C802.357 573.559 810.917 569.047 821.917 567.802C826.335 567.299 830.809 567.261 837.307 566.89C839.967 567.299 844.631 567.812 849.201 568.79C854.388 569.911 858.016 573.207 859.888 578.166C862.434 584.93 864.999 591.694 867.136 598.591C869.91 607.549 866.405 613.306 857.123 614.104L857.114 614.123ZM872.807 579.031C868.628 573.017 866.509 566.339 866.595 558.321C866.129 551.301 869.473 544.936 873.757 538.97C876.636 534.961 879.714 531.086 882.849 527.267C888.853 519.942 891.513 511.269 893.45 502.225C894.201 498.71 895.236 495.186 896.633 491.88C900.3 483.235 907.216 478.637 916.316 477.364C923.508 476.357 929.094 479.074 931.867 485.838C934.679 492.716 936.38 500.04 938.631 507.156C942.906 520.712 947.229 534.249 951.522 547.796C952.14 549.743 952.814 551.69 953.318 553.666C956.652 566.843 948.929 577.739 935.316 577.995C921.684 578.252 908.451 579.971 895.664 584.864C893.118 585.842 890.278 586.232 887.532 586.469C881.167 587.011 876.351 584.132 872.807 579.021V579.031ZM972.403 641.691C971.88 645.386 970.379 649.262 968.289 652.359C964.053 658.62 959.369 664.623 954.391 670.323C950.316 674.988 944.749 676.289 938.574 675.453C926.681 673.829 917.96 667.226 911.927 657.423C906.969 649.348 903.264 640.513 898.865 632.087C895.588 625.807 892.367 619.462 888.615 613.467C881.652 602.353 884.92 593.917 897.934 591.779C907.415 590.221 917.086 589.775 926.652 588.711C936.228 587.647 945.253 584.845 953.603 579.933C958.875 576.827 963.35 577.663 967.32 582.527C971.719 587.913 973.875 594.268 974.759 601.08C975.158 604.177 975.319 607.312 975.68 611.501C974.702 620.896 973.875 631.346 972.393 641.701L972.403 641.691ZM1049.08 637.217C1047.56 646.659 1040.85 651.219 1031.32 649.804C1028.38 649.367 1025.4 648.54 1022.65 647.391C1015.09 644.227 1007.59 640.941 1000.19 637.445C991.089 633.141 987.336 624.848 985.845 615.69C983.878 603.673 983.603 591.494 985.379 579.363C986.899 569.018 992.485 562.349 1002.69 559.376C1009.03 557.523 1015.17 554.949 1021.46 552.868C1024.41 551.89 1027.47 551.092 1030.55 550.589C1037.4 549.487 1042.97 552.602 1044.82 559.328C1046.23 564.477 1046.49 569.958 1047.03 573.73C1046.36 582.242 1045.46 589.081 1045.39 595.931C1045.34 600.652 1045.85 605.573 1047.18 610.085C1049.83 619.063 1050.54 628.106 1049.08 637.217ZM1044.47 535.911C1034.63 536.985 1025.37 539.816 1016.42 543.863C1008.12 547.615 999.515 550.304 990.405 551.026C972.498 552.441 960.566 546.77 956.225 529.851C952.168 514.043 946.497 498.834 941.605 483.34C940.256 479.065 939.971 474.344 939.819 469.812C939.553 462.231 943.058 456.332 949.888 453.207C959.626 448.751 969.6 444.78 979.585 440.866C983.841 439.204 988.039 440.192 991.269 443.498C993.863 446.158 996.228 449.084 998.451 452.067C1011.59 469.774 1028.59 480.49 1051.05 481.592C1060.84 482.076 1065.36 486.921 1065.42 496.801C1065.45 500.173 1065.42 503.555 1065.42 506.928H1065.41C1065.41 510.661 1065.43 514.404 1065.41 518.137C1065.37 525.015 1062.03 529.946 1055.9 532.653C1052.31 534.239 1048.37 535.474 1044.49 535.892L1044.47 535.911ZM1140.23 602.182C1137.81 603.73 1135.78 605.858 1133.53 607.682C1122.26 616.783 1113.38 627.498 1108.48 641.482C1105.63 649.633 1101.65 657.461 1095.2 663.645C1089.98 668.651 1084.1 670.428 1076.98 668.252C1064.01 664.291 1059.96 659.009 1059.36 644.484C1059.28 642.318 1059.35 640.143 1059.35 637.977C1059.31 637.977 1059.26 637.977 1059.22 637.977C1059.67 628.591 1060.72 619.186 1060.42 609.829C1060.06 599.037 1058.34 588.302 1057.51 577.511C1057.04 571.298 1057.06 565.038 1057.07 558.796C1057.07 556.915 1057.67 554.987 1058.28 553.172C1061.22 544.366 1068.74 540.737 1077.2 544.623C1081.97 546.808 1086.3 550.009 1090.66 553.011C1100.94 560.126 1111.79 565.703 1124.68 565.437C1128.25 565.361 1131.81 564.392 1135.35 563.727C1137.6 563.309 1139.79 562.568 1142.04 562.197C1149.65 560.962 1154.16 565.095 1154.41 572.846C1154.8 585.168 1151.04 595.285 1140.23 602.172V602.182ZM1127.44 547.71C1118.57 547.463 1106.81 545.535 1096.76 537.726C1088.94 531.646 1085.45 523.191 1083.92 513.777C1081.69 499.983 1086.51 489.885 1099.02 483.615C1105.77 480.233 1112.92 477.326 1120.21 475.417C1135.14 471.494 1146.16 462.763 1154.86 450.338C1157.66 446.357 1161.1 442.595 1164.94 439.641C1170.8 435.148 1176.24 436.297 1180.38 442.491C1182.64 445.873 1184.45 449.625 1185.97 453.406C1190.33 464.245 1196.85 473.128 1207 479.312C1213.02 482.979 1214.56 489.258 1212.56 497.627C1210.66 505.56 1205.94 511.801 1200.58 517.558C1182.73 536.709 1156.98 547.748 1127.43 547.71H1127.44ZM1250.51 607.406C1247.9 612.774 1244.36 617.742 1240.8 622.578C1239.23 624.715 1236.78 626.434 1234.39 627.688C1227.41 631.346 1221.03 630.101 1215.89 624.117C1211.89 619.452 1208.16 614.569 1204.41 609.705C1197.76 601.08 1190.32 593.261 1181.68 586.574C1175.06 581.444 1171.55 574.765 1172.13 566.501C1171.87 555.756 1175.37 547.634 1185.24 542.476C1190.95 539.493 1195.74 534.8 1201.31 531.475C1204.42 529.623 1208.19 528.635 1211.79 527.941C1217.52 526.83 1221.56 529.727 1224.17 534.638C1226.71 539.426 1228.88 544.414 1231.49 549.164C1236.89 558.958 1241.73 569.161 1248.16 578.242C1255.03 587.942 1255.35 597.432 1250.51 607.435V607.406ZM1259.92 573.369C1252.92 568.268 1248.18 561.266 1244.07 553.875C1238.32 543.559 1232.55 533.185 1231.19 521.13C1230.97 519.22 1230.85 517.292 1230.7 515.373C1230.79 505.997 1233.74 498.273 1242.03 492.887C1258.31 482.314 1274.45 471.541 1290.51 460.654C1297.09 456.199 1303.17 451.003 1309.81 446.652C1312.92 444.619 1316.72 443.346 1320.39 442.519C1323.8 441.759 1326.47 443.811 1326.72 447.345C1327.03 451.506 1326.79 455.743 1326.43 459.904C1324.63 480.651 1322.31 501.37 1320.97 522.146C1319.79 540.433 1310.9 553.913 1297.05 564.848C1290.76 569.807 1284.08 574.015 1276.31 576.352C1270.28 578.166 1264.9 576.988 1259.91 573.359L1259.92 573.369ZM1335.88 617.068C1334.74 625.39 1329.8 629.541 1321.33 629.503C1318.34 629.484 1315.29 629.227 1312.38 628.562C1302.4 626.283 1292.47 623.803 1282.54 621.333C1277.63 620.117 1273.38 617.676 1270.02 613.847C1265.47 608.67 1265.49 602.619 1270.68 598.182C1283.1 587.552 1295.73 577.15 1308.33 566.738C1310.08 565.294 1312.11 564.145 1314.15 563.109C1321.76 559.233 1327 560.867 1330.89 568.42C1335.5 577.34 1338.16 586.764 1337.93 596.957C1337.27 603.654 1336.81 610.389 1335.9 617.058L1335.88 617.068ZM1421.71 570.747C1425.65 579.914 1427.3 587.866 1427.74 597.85C1426.91 604.167 1426.51 610.57 1425.19 616.783C1421.91 632.172 1409.43 640.504 1394.02 637.53C1384.76 635.744 1375.56 634.756 1366.08 635.127C1353.16 635.63 1348.73 629.664 1351.41 616.906C1353.11 608.86 1356.86 601.954 1362.78 596.339C1371.6 587.97 1380.46 579.629 1389.64 571.659C1393.51 568.306 1397.97 565.399 1402.59 563.204C1411.67 558.882 1417.75 561.523 1421.71 570.728V570.747ZM1390.06 554.445C1382.56 563.052 1373.97 570.699 1365.82 578.727C1364.8 579.734 1363.52 580.484 1362.3 581.263C1355.72 585.529 1349.31 585.016 1344.71 578.698C1336.91 568.002 1330.78 556.421 1329.91 542.77C1329.79 540.965 1329.57 539.17 1329.4 537.374L1328.89 537.289C1330.51 526.459 1332.24 515.648 1333.7 504.8C1334.59 498.121 1335.14 491.396 1335.68 484.679C1336.27 477.364 1336.71 470.031 1337.17 462.697C1337.52 457.339 1339.22 454.366 1342.83 453.634C1347.2 452.741 1349.06 456.142 1350.93 459.02C1359.21 471.731 1367.2 484.651 1375.67 497.238C1380.37 504.22 1385.82 510.699 1390.9 517.425C1401.98 532.102 1402.11 540.585 1390.04 554.445H1390.06ZM1409.19 396.227V396.113C1413.77 396.113 1418.37 395.961 1422.94 396.142C1435.48 396.645 1441.42 404.074 1438.21 416.12C1436.49 422.579 1433.9 428.963 1430.68 434.815C1424.87 445.36 1418.49 455.601 1411.94 465.708C1408.76 470.591 1404.2 474.344 1398.68 476.595C1390.21 480.043 1382.68 477.488 1376.15 472.026C1370.91 467.637 1365.97 462.782 1361.45 457.662C1355.92 451.402 1354.19 443.954 1356.54 435.727C1360.16 423.111 1366.78 412.358 1376.64 403.713C1382.37 398.688 1389.2 396.218 1396.89 396.227C1400.99 396.227 1405.09 396.227 1409.19 396.227ZM1422.05 272.502C1426.93 278.535 1426.57 285.166 1422.65 291.72C1418.57 298.56 1412.5 303.291 1405.81 307.234C1397.13 312.344 1388.01 316.505 1377.71 316.819C1366.4 317.161 1359.35 310.378 1358.91 299.073C1358.86 297.867 1358.91 296.66 1358.91 295.454C1359.68 280.672 1364.3 267.43 1374.55 256.438C1379.24 251.413 1385.05 250.14 1391.42 251.831C1403.98 255.156 1414 262.537 1422.05 272.502ZM1393.94 157.128C1399.41 163.35 1402.24 170.893 1402.65 178.037C1402.65 193.113 1389.24 209.263 1375.45 211.505C1372.49 211.989 1369.12 211.505 1366.23 210.564C1353.65 206.403 1343.91 198.423 1336.74 187.328C1333.8 182.787 1333.45 177.79 1335.15 172.736C1339.63 159.436 1347.03 148.018 1357.68 138.832C1359.31 137.435 1361.23 136.305 1363.17 135.393C1368.31 132.98 1371.15 133.502 1375.15 137.587C1381.48 144.028 1387.96 150.355 1393.92 157.128H1393.94ZM1352.83 40.6897C1352.64 39.8727 1352.53 39.0272 1352.46 38.1912C1351.72 29.043 1354.5 25.4046 1363.59 23.7136C1365.13 23.4286 1366.69 23.1816 1368.25 23.1246C1376.04 22.8396 1383.11 20.4267 1389.61 16.1518C1390.41 15.6293 1391.32 15.2588 1392.2 14.8504C1402.29 10.186 1409.85 12.2664 1414.96 22.1557C1421.9 35.5883 1425.35 49.9804 1422.78 65.1325C1420.31 79.6386 1411.09 89.3664 1398.68 96.3772C1390.38 101.07 1381.39 103.635 1371.91 104.49C1360.04 105.554 1351.31 97.7736 1350.96 85.823C1350.92 84.6165 1350.96 83.41 1350.96 82.2036C1350.83 82.1846 1350.7 82.1656 1350.57 82.1561C1351.23 77.2732 1351.6 72.3238 1352.63 67.5169C1354.55 58.5492 1354.96 49.6479 1352.85 40.6802L1352.83 40.6897ZM1239.02 61.4941C1241.45 51.5574 1247.11 45.3255 1256.85 42.6276C1258.25 42.2381 1259.63 41.7441 1261.05 41.5256C1277.7 38.9702 1292.59 32.0829 1306.78 23.3241C1311.57 20.3697 1316.48 17.4723 1322.5 17.4153C1327.82 17.3678 1332.4 19.2297 1334.62 23.8466C1337.35 29.518 1339.29 35.6548 1340.87 41.7631C1341.9 45.791 1341.68 50.1324 1342.1 55.3098C1341.53 60.1261 1341.24 65.9495 1340.09 71.5923C1337.93 82.1656 1338.54 92.5298 1343.69 101.887C1352 117.011 1349.49 130.415 1338.82 142.935C1330.1 153.176 1323.04 164.519 1315.91 175.862C1312.81 180.82 1309 185.475 1304.85 189.608C1298.01 196.419 1291.66 195.773 1286.05 187.993C1282.38 182.92 1279.67 177.106 1275.7 172.318C1265.43 159.959 1253.01 150.108 1238.98 142.213C1234.38 139.63 1230.16 136.362 1225.87 133.255C1223.44 131.507 1222.27 128.952 1222.84 125.959C1224.05 119.699 1225.16 113.41 1226.77 107.245C1230.75 91.9693 1235.28 76.8267 1239.02 61.5036V61.4941ZM1119.39 85.576C1120.46 80.1611 1122.4 74.9173 1123.98 69.6069C1129.2 52.0609 1132.3 34.2013 1132.51 15.8478C1132.56 12.1619 1133.32 8.41903 1134.18 4.80912C1135.35 -0.0357475 1138.75 -2.79067 1143.65 -3.40816C1147.23 -3.85464 1150.87 -4.30113 1154.46 -4.11114C1164.16 -3.59815 1173.35 -5.3271 1182.41 -8.74701C1187.57 -10.6945 1192.99 -12.1859 1198.41 -13.1739C1209.5 -15.1783 1216.22 -10.9985 1219.89 -0.358738C1223.85 11.155 1227.68 22.7161 1231.7 34.2108C1233.29 38.7707 1232.8 42.8271 1231.24 47.463C1227.82 57.6087 1225.25 68.0489 1222.58 78.4227C1220.66 85.8895 1219.45 93.5557 1217.32 100.956C1215.93 105.753 1213.84 110.465 1211.32 114.778C1208.64 119.367 1203.86 121.02 1198.89 121.286C1190.16 120.782 1183 116.688 1175.84 112.698C1169.63 109.24 1163.5 105.611 1157.3 102.144C1153 99.7496 1148.4 98.7236 1143.41 98.7996C1138.36 98.8756 1133.25 98.8281 1128.27 98.1061C1121 97.0517 1117.98 92.8148 1119.4 85.5665L1119.39 85.576ZM1132.44 109.439C1145.06 108.375 1158.23 114.36 1171.28 121.286C1179.01 125.389 1187.28 128.477 1195.32 131.992C1196.86 132.666 1198.53 133.046 1200.06 133.749C1206.35 136.628 1208.55 140.503 1207.42 147.362C1206.34 153.898 1204.3 160.329 1203.81 166.884C1203.08 176.584 1202.98 186.378 1203.27 196.115C1203.77 213.139 1203.89 230.096 1200.45 246.882C1200.14 248.411 1199.7 249.922 1199.29 251.432C1196.63 261.179 1190.36 266.66 1180.21 267.316C1172.88 267.791 1165.52 268.266 1158.19 268.218C1144.69 268.142 1137.46 260.723 1137.42 247.214C1137.4 240.602 1138.34 233.914 1137.7 227.379C1136.18 211.885 1128.52 199.145 1118.25 187.831C1114.21 183.366 1109.89 179.148 1105.88 174.646C1099.89 167.91 1097.42 160.035 1099.63 151.172C1101.85 142.299 1103.98 133.36 1107.07 124.772C1111.74 111.757 1116.03 109.23 1132.44 109.42V109.439ZM1055.57 31.1044C1061.51 32.7859 1067.32 35.5123 1072.61 38.7422C1082.29 44.6701 1091.08 51.8709 1098.47 60.5821C1103.82 66.8805 1107.49 73.9578 1107.49 82.517C1107.48 94.2207 1101.02 102.457 1092.03 108.423C1085.71 112.631 1078.45 115.766 1071.2 118.179C1058.49 122.406 1045.81 126.539 1033.9 132.828C1027.7 136.105 1021.09 138.385 1013.84 138.11C1006.97 137.853 1002.93 134.243 1002.86 127.375C1002.82 123.318 1002.95 119.063 1004.08 115.215C1009.6 96.4912 1015.2 77.7862 1021.4 59.2807C1023.6 52.7353 1027.14 46.513 1030.86 40.6517C1036.59 31.6554 1045.33 28.188 1055.57 31.0949V31.1044ZM945.158 74.4423C945.785 73.0078 946.411 71.5543 947.2 70.2054C952.909 60.4301 955.797 49.8664 956.5 38.6092C956.662 35.9968 957.336 33.3559 958.163 30.8574C960.129 24.8916 963.901 20.4552 970.208 18.9827C975.224 17.8143 980.364 17.1778 986.757 16.0853C993.834 17.5958 1001.96 19.1917 1009.98 21.1297C1012.25 21.6807 1014.41 23.0581 1016.38 24.4071C1020.75 27.3995 1023.2 31.5414 1021.19 36.8328C1018.77 43.2261 1016.26 49.6574 1012.94 55.6138C1003.88 71.8488 994.1 87.6279 980.174 100.339C973.989 105.981 967.149 110.209 958.714 111.52C948.387 113.125 940.883 106.979 940.512 96.5482C940.246 88.8059 942.051 81.4911 945.148 74.4518L945.158 74.4423ZM951.076 120.478C957.621 119.557 964.233 119.158 970.047 118.588C974.341 118.939 977.827 119.101 981.285 119.547C987.469 120.345 991.146 124.021 991.431 130.282C991.668 135.554 991.336 140.864 991.07 146.146C990.737 152.891 990.357 159.598 992.457 166.191C994.442 172.451 993.882 178.597 990.785 184.392C987.498 190.548 982.653 192.857 975.804 191.764C961.431 189.484 951.807 180.64 944.645 168.737C939.515 160.206 936.114 150.991 935.221 140.921C934.195 129.408 939.6 122.074 951.085 120.459L951.076 120.478ZM846.902 90.1453C848.384 80.3416 850.93 70.7184 855.898 62.0451C858.263 57.9222 861.256 54.0083 864.6 50.6169C870.68 44.4516 878.545 43.1311 886.715 44.6891C888.967 45.1165 891.228 47.311 892.738 49.2774C894.695 51.8234 895.996 54.9013 897.421 57.8177C902 67.175 908.498 74.6418 917.779 79.6576C927.232 84.7685 932.105 92.6533 931.991 103.711C931.041 108.66 930.366 113.686 929.093 118.55C926.12 129.892 926.092 141.168 929.065 152.483C929.464 154.003 929.834 155.523 930.195 157.043C932.618 167.207 931.212 170.58 923.014 176.897C921.009 178.445 919.575 181.153 918.682 183.613C916.791 188.857 915.395 190.377 909.799 190.13C894.429 189.456 880.825 183.87 869.293 173.876C853.457 160.158 843.938 142.707 843.311 121.656C842.997 111.187 845.325 100.595 846.902 90.1263V90.1453ZM872.057 326.907C876.997 328.779 880.521 332.341 882.003 337.234C883.523 342.259 884.587 347.531 884.977 352.756C885.955 365.714 886.44 378.71 887.124 391.686C887.399 396.864 885.129 401.129 881.813 404.739C873.273 414.058 864.79 423.463 855.736 432.279C852.63 435.3 848.127 437.475 843.881 438.615C836.138 440.695 829.394 435.936 827.712 428.099C827.209 425.752 827.066 423.339 826.753 420.955C827.598 398.412 827.912 375.86 834.077 353.934C836.005 347.066 838.228 340.359 842.931 334.726C850.056 326.195 861.702 322.994 872.047 326.907H872.057ZM839.425 294.57C836.566 303.576 830.391 309.561 820.758 311.166C815.591 312.021 810.86 310.074 806.813 307.196C790.739 295.777 772.804 292.832 753.557 294C747.848 294.352 741.815 293.05 736.258 291.416C731.318 289.963 729.608 285.869 730.577 280.72C731.062 278.145 731.717 275.447 732.99 273.186C741.597 257.882 741.359 241.837 737.332 225.441C735.783 219.133 733.475 212.949 732.534 206.565C731.451 199.259 733.275 192.182 739.08 187.157C741.721 184.867 745.482 183.879 748.513 182.407C752.778 183.87 756.341 184.677 759.523 186.264C767.816 190.387 776.528 191.935 785.723 192.192C796.173 192.486 806.661 192.828 816.607 197.027C830.296 202.812 837.611 212.692 837.174 227.502C836.765 241.381 839.197 254.842 841.173 268.427C842.446 277.195 842.114 286.106 839.425 294.57ZM783.291 40.7277C788.298 40.8132 793.418 41.4592 798.234 42.7701C806.832 45.107 815.249 48.109 823.722 50.9019C825.888 51.6144 828.016 52.5169 830.068 53.5238C838.152 57.4852 840.119 61.4466 838.048 70.1294C837.183 73.7488 836.148 77.3967 834.628 80.7786C829.375 92.4253 829.565 104.347 831.93 116.564C834.058 127.546 837.031 138.385 836.737 149.756C836.338 165.108 829.033 173.829 813.957 176.185C802.015 178.046 790.35 176.593 779.073 172.556C764.558 167.359 757.158 156.739 756.711 141.235C756.626 138.347 756.702 135.45 756.702 132.552C756.939 132.552 757.186 132.552 757.424 132.552C757.424 125.323 757.243 118.094 757.471 110.864C757.756 101.678 760.549 93.1188 764.444 84.854C768.367 76.5417 770.41 67.8209 769.669 58.5492C769.555 57.1147 769.631 55.6518 769.669 54.2078C769.859 45.7055 774.732 40.5852 783.301 40.7277H783.291ZM742.158 24.1601C747.99 23.5046 753.785 22.1652 759.628 21.9467C768.367 21.6237 771.198 25.1766 769.944 33.7169C768.424 44.0716 757.851 53.1818 747.392 53.1533C737.398 53.1248 732.154 47.0545 732.097 35.4173C732.059 26.9815 733.826 25.0911 742.158 24.1601ZM709.127 73.8248C709.155 73.7108 709.184 73.6063 709.212 73.4923C709.212 73.3783 709.193 73.2548 709.193 73.1408C709.193 69.3409 709.497 65.4365 710.656 61.8076C711.787 58.2547 713.696 55.3573 716.356 53.0298C716.964 51.9184 717.81 50.6169 718.456 50.0089C719.9 49.4959 721.277 49.3534 722.607 49.4579C725.846 48.508 729.38 48.584 732.639 49.3249C736.23 50.1419 739.792 52.7828 742.129 55.8133C742.253 55.8418 742.366 55.8798 742.49 55.9083C746.774 56.9057 749.282 59.1382 749.957 63.5651C751.163 71.5828 749.596 79.1826 746.518 86.5069C745.292 89.4139 742.708 90.9718 739.564 90.8768C736.667 90.7913 733.769 90.6583 730.881 90.5158C729.618 90.7818 728.335 90.9528 727.072 91.0098C725.172 91.0953 723.168 90.6963 721.249 90.0028C720.774 89.9743 720.289 89.9458 719.814 89.9268C719.349 89.9078 718.902 89.8413 718.465 89.7938C711.378 87.7704 707.474 81.1491 709.146 73.8248H709.127ZM713.896 95.5982C714.836 95.5982 715.758 95.6932 716.66 95.8452C717.259 95.8072 717.848 95.7787 718.446 95.7407C719.159 96.1112 720.147 96.3867 721.486 96.6147C730.948 98.2676 739.716 101.545 744.523 110.484C752.303 124.933 753.396 154.478 740.799 169.82C735.299 176.517 728.592 181.077 719.862 182.15C719.282 182.226 718.817 182.35 718.456 182.54C713.136 183.233 708.804 180.241 704.747 177.372C696.616 171.615 691.201 163.407 685.473 155.494C681.73 150.317 677.968 145.149 674.044 140.114C666.283 130.168 667.442 117.837 677.103 109.439C686.118 101.593 696.834 97.8306 708.509 96.4912C710.229 95.9212 712.043 95.6077 713.905 95.6077L713.896 95.5982ZM630.383 40.6897C630.193 39.8727 630.08 39.0272 630.013 38.1912C629.272 29.043 632.055 25.4046 641.147 23.7136C642.686 23.4286 644.244 23.1816 645.802 23.1246C653.591 22.8396 660.678 20.4267 667.167 16.1518C667.964 15.6293 668.876 15.2588 669.75 14.8504C679.849 10.186 687.401 12.2664 692.512 22.1557C699.456 35.5883 702.905 49.9804 700.33 65.1325C697.86 79.6386 688.645 89.3664 676.239 96.3772C667.936 101.07 658.94 103.635 649.459 104.49C637.594 105.554 628.864 97.7736 628.512 85.823C628.474 84.6165 628.512 83.41 628.512 82.2036C628.379 82.1846 629.158 72.3238 630.184 67.5169C632.103 58.5492 632.511 49.6479 630.402 40.6802L630.383 40.6897ZM516.586 61.4941C519.018 51.5574 524.67 45.3255 534.417 42.6276C535.814 42.2381 537.191 41.7441 538.616 41.5256C555.26 38.9702 570.155 32.0829 584.348 23.3241C589.136 20.3697 594.047 17.4723 600.06 17.4153C605.38 17.3678 609.959 19.2297 612.182 23.8466C614.908 29.518 616.856 35.6548 618.433 41.7631C619.468 45.791 619.25 50.1324 619.668 55.3098C619.098 60.1261 618.803 65.9495 617.654 71.5923C615.497 82.1656 616.105 92.5298 621.254 101.887C629.567 117.011 627.049 130.415 616.381 142.935C607.66 153.176 600.602 164.519 593.477 175.862C590.371 180.82 586.561 185.475 582.41 189.608C575.57 196.419 569.224 195.773 563.61 187.993C559.943 182.92 557.235 177.106 553.265 172.318C542.995 159.959 530.57 150.108 516.539 142.213C511.941 139.63 507.723 136.362 503.429 133.255C501.007 131.507 499.838 128.952 500.408 125.959C501.614 119.699 502.726 113.41 504.331 107.245C508.312 91.9693 512.843 76.8267 516.586 61.5036V61.4941ZM396.946 85.576C398.01 80.1611 399.958 74.9173 401.535 69.6069C406.75 52.0609 409.856 34.2013 410.065 15.8478C410.103 12.1619 410.873 8.41903 411.737 4.80912C412.906 -0.0357475 416.307 -2.79067 421.209 -3.40816C424.781 -3.85464 428.428 -4.30113 432.01 -4.11114C441.709 -3.59815 450.905 -5.3271 459.968 -8.74701C465.126 -10.6945 470.541 -12.1859 475.965 -13.1739C487.051 -15.1783 493.777 -10.9985 497.444 -0.358738C501.405 11.155 505.234 22.7161 509.252 34.2108C510.848 38.7707 510.354 42.8271 508.787 47.463C505.367 57.6087 502.792 68.0489 500.123 78.4227C498.204 85.8895 496.998 93.5557 494.86 100.956C493.473 105.753 491.383 110.465 488.866 114.778C486.187 119.367 481.409 121.02 476.431 121.286C467.7 120.782 460.547 116.688 453.375 112.698C447.162 109.24 441.035 105.611 434.831 102.144C430.537 99.7496 425.93 98.7236 420.943 98.7996C415.898 98.8756 410.787 98.8281 405.81 98.1061C398.533 97.0517 395.512 92.8148 396.937 85.5665L396.946 85.576ZM409.999 109.439C422.624 108.375 435.791 114.36 448.843 121.286C456.576 125.389 464.841 128.477 472.887 131.992C474.426 132.666 476.108 133.046 477.628 133.749C483.916 136.628 486.111 140.503 484.98 147.362C483.907 153.898 481.864 160.329 481.37 166.884C480.639 176.584 480.544 186.378 480.829 196.115C481.332 213.139 481.456 230.096 478.017 246.882C477.704 248.411 477.267 249.922 476.849 251.432C474.198 261.179 467.919 266.66 457.773 267.316C450.439 267.791 443.087 268.266 435.753 268.218C422.254 268.142 415.024 260.723 414.986 247.214C414.967 240.602 415.908 233.914 415.262 227.379C413.742 211.885 406.085 199.145 395.816 187.831C391.769 183.366 387.456 179.148 383.447 174.646C377.453 167.91 374.983 160.035 377.196 151.172C379.41 142.299 381.547 133.36 384.635 124.772C389.308 111.757 393.583 109.23 409.999 109.42V109.439ZM333.127 31.1044C339.064 32.7859 344.878 35.5123 350.16 38.7422C359.85 44.6701 368.637 51.8709 376.028 60.5821C381.376 66.8805 385.043 73.9578 385.043 82.517C385.034 94.2207 378.574 102.457 369.587 108.423C363.26 112.631 356.002 115.766 348.754 118.179C336.043 122.406 323.361 126.539 311.458 132.828C305.255 136.105 298.652 138.385 291.395 138.11C284.517 137.853 280.479 134.243 280.413 127.375C280.375 123.318 280.508 119.063 281.638 115.215C287.158 96.4912 292.753 77.7862 298.956 59.2807C301.151 52.7353 304.694 46.513 308.418 40.6517C314.146 31.6554 322.886 28.188 333.127 31.0949V31.1044ZM222.711 74.4423C223.338 73.0078 223.965 71.5543 224.754 70.2054C230.463 60.4301 233.351 49.8664 234.054 38.6092C234.216 35.9968 234.89 33.3559 235.717 30.8574C237.683 24.8916 241.454 20.4552 247.772 18.9827C252.788 17.8143 257.927 17.1778 264.32 16.0853C271.398 17.5958 279.52 19.1917 287.547 21.1297C289.818 21.6807 291.974 23.0581 293.941 24.4071C298.31 27.3995 300.761 31.5414 298.757 36.8328C296.334 43.2261 293.827 49.6574 290.502 55.6138C281.448 71.8488 271.664 87.6279 257.737 100.339C251.553 105.981 244.713 110.209 236.277 111.52C225.951 113.125 218.446 106.979 218.076 96.5482C217.81 88.8059 219.615 81.4911 222.711 74.4518V74.4423ZM228.63 120.478C235.175 119.557 241.787 119.158 247.601 118.588C251.895 118.939 255.381 119.101 258.839 119.547C265.023 120.345 268.7 124.021 268.985 130.282C269.222 135.554 268.89 140.864 268.624 146.146C268.291 152.891 267.911 159.598 270.011 166.191C271.996 172.451 271.436 178.597 268.339 184.392C265.052 190.548 260.207 192.857 253.358 191.764C238.984 189.484 229.361 180.64 222.198 168.737C217.069 160.206 213.668 150.991 212.775 140.921C211.749 129.408 217.154 122.074 228.639 120.459L228.63 120.478ZM124.456 90.1453C125.938 80.3416 128.483 70.7184 133.452 62.0451C135.817 57.9222 138.81 54.0083 142.154 50.6169C148.233 44.4516 156.099 43.1311 164.269 44.6891C166.52 45.1165 168.781 47.311 170.292 49.2774C172.249 51.8234 173.55 54.9013 174.975 57.8177C179.554 67.175 186.052 74.6418 195.333 79.6576C204.785 84.7685 209.659 92.6533 209.545 103.711C208.595 108.66 207.92 113.686 206.647 118.55C203.674 129.892 203.645 141.168 206.619 152.483C207.018 154.003 207.388 155.523 207.749 157.043C210.172 167.207 208.766 170.58 200.568 176.897C198.563 178.445 197.129 181.153 196.236 183.613C194.345 188.857 192.949 190.377 187.353 190.13C171.983 189.456 158.379 183.87 146.846 173.876C131.01 160.158 121.492 142.707 120.865 121.656C120.551 111.187 122.879 100.595 124.456 90.1263V90.1453ZM149.611 326.907C154.551 328.779 158.075 332.341 159.557 337.234C161.077 342.259 162.141 347.531 162.531 352.756C163.509 365.714 163.993 378.71 164.677 391.686C164.953 396.864 162.683 401.129 159.367 404.739C150.827 414.058 142.344 423.463 133.29 432.279C130.184 435.3 125.681 437.475 121.435 438.615C113.692 440.695 106.938 435.936 105.266 428.099C104.763 425.752 104.62 423.339 104.307 420.955C105.152 398.412 105.466 375.86 111.631 353.934C113.559 347.066 115.782 340.359 120.485 334.726C127.609 326.195 139.256 322.994 149.601 326.907H149.611ZM60.8453 40.7277C65.8516 40.8132 70.972 41.4592 75.7884 42.7701C84.3856 45.107 92.8024 48.109 101.276 50.9019C103.442 51.6144 105.57 52.5169 107.622 53.5238C115.706 57.4852 117.673 61.4466 115.602 70.1294C114.737 73.7488 113.702 77.3967 112.182 80.7786C106.929 92.4253 107.119 104.347 109.484 116.564C111.612 127.546 114.585 138.385 114.291 149.756C113.892 165.108 106.587 173.829 91.5104 176.185C79.5693 178.046 67.9036 176.593 56.6274 172.556C42.1118 167.359 34.7115 156.739 34.265 141.235C34.1795 138.347 34.2555 135.45 34.2555 132.552C34.493 132.552 34.74 132.552 34.9775 132.552C34.9775 125.323 34.797 118.094 35.025 110.864C35.3099 101.678 38.1029 93.1188 41.9978 84.854C45.9212 76.5417 47.9636 67.8209 47.2226 58.5492C47.1086 57.1147 47.1846 55.6518 47.2226 54.2078C47.4126 45.7055 52.286 40.5852 60.8548 40.7277H60.8453ZM24.9457 53.1533C14.952 53.1248 9.70813 47.0545 9.65113 35.4173C9.61314 26.9815 11.3801 25.0911 19.7114 24.1601C25.5442 23.5046 31.3391 22.1652 37.1814 21.9467C45.9212 21.6237 48.7521 25.1766 47.4981 33.7169C45.9782 44.0716 35.4049 53.1818 24.9457 53.1533ZM8.13118 280.72C8.61566 278.145 9.27114 275.447 10.5441 273.186C19.1509 257.882 18.9134 241.837 14.8855 225.441C13.337 219.133 11.0286 212.949 10.0881 206.565C9.00515 199.259 10.8291 192.182 16.6334 187.157C19.2744 184.867 23.0363 183.879 26.0667 182.407C30.3321 183.87 33.8945 184.677 37.0769 186.264C45.3702 190.387 54.0814 191.935 63.2772 192.192C73.7269 192.486 84.2241 192.828 94.1609 197.027C107.85 202.812 115.165 212.692 114.728 227.502C114.319 241.381 116.751 254.842 118.727 268.427C120 277.195 119.668 286.106 116.979 294.57C114.12 303.576 107.945 309.561 98.3123 311.166C93.1444 312.021 88.4135 310.074 84.3571 307.196C68.2836 295.777 50.348 292.832 31.1016 294C25.3922 294.352 19.3694 293.05 13.8025 291.416C8.86266 289.963 7.1527 285.869 8.12168 280.72H8.13118ZM68.7491 431.614C57.5868 431.994 46.3297 431.357 35.1865 430.407C18.0014 428.944 9.80313 413.574 8.40667 401.518C8.10268 398.859 8.88165 395.458 10.4206 393.292C18.1914 382.31 17.0134 369.998 16.5385 357.706C16.092 346.03 15.465 334.346 15.484 322.661C15.4935 314.425 19.5119 310.378 27.7102 309.19C31.51 308.639 35.3859 308.554 37.4949 308.392C53.597 308.507 67.5046 311.47 81.2317 315.261C85.0791 316.325 88.803 318.472 92.0804 320.828C99.7942 326.357 100.83 334.308 99.5757 343.124C96.6498 363.776 94.6644 384.495 94.5029 405.404C94.3794 420.565 84.1481 431.101 68.7491 431.614ZM66.6971 540.091C66.6971 538.4 66.6971 536.719 66.6971 535.028C67.5616 515.81 69.87 496.791 76.6718 478.694C83.5022 460.521 97.3718 452.798 116.457 456.446C131.305 459.286 144.918 465.48 157.22 474.23C165.532 480.138 168.468 490.921 163.718 500.002C159.785 507.526 154.541 514.366 149.839 521.481C145.127 528.606 140.406 535.721 135.599 542.77C132.967 546.637 130.469 550.674 127.334 554.113C123.135 558.711 117.568 560.06 111.45 558.882C100.934 556.858 90.418 554.835 79.9113 552.764C78.1443 552.412 76.3868 551.937 74.6864 551.339C68.6161 549.221 66.6876 546.456 66.6876 540.082L66.6971 540.091ZM76.7478 585.244C79.9208 573.578 88.48 569.066 99.4807 567.821C103.898 567.318 108.372 567.28 114.87 566.909C117.53 567.318 122.195 567.831 126.764 568.809C131.951 569.93 135.58 573.226 137.451 578.185C139.997 584.949 142.562 591.713 144.7 598.61C147.473 607.568 143.968 613.325 134.677 614.123C127.533 614.74 120.276 613.876 113.084 614.028C108.705 614.123 104.354 614.968 99.9747 615.358C93.1824 615.966 86.3426 617.22 79.6073 616.802C72.3875 616.355 68.5211 610.275 69.9365 603.046C70.6015 599.664 72.0645 596.425 73.3279 593.176C74.3729 590.487 76.0069 587.98 76.7573 585.225L76.7478 585.244Z" fill="#1A2E6E" fill-opacity="0.6"/>
</svg>
