<svg width="44" height="40" viewBox="0 0 44 40" fill="none" xmlns="http://www.w3.org/2000/svg">
<path fill-rule="evenodd" clip-rule="evenodd" d="M20.5001 5.5C20.5001 2.46243 22.9625 0 26.0001 0C29.0376 0 31.5001 2.46243 31.5001 5.5C31.5001 8.53757 29.0376 11 26.0001 11C22.9625 11 20.5001 8.53757 20.5001 5.5ZM26.0001 2C24.0671 2 22.5001 3.567 22.5001 5.5C22.5001 7.433 24.0671 9 26.0001 9C27.9331 9 29.5001 7.433 29.5001 5.5C29.5001 3.567 27.9331 2 26.0001 2Z" fill="#262556"/>
<path d="M17.9292 9.24006C18.428 9.00308 18.6403 8.40656 18.4033 7.9077C18.1663 7.40885 17.5698 7.19656 17.071 7.43354C15.553 8.15466 14.5001 9.70337 14.5001 11.5C14.5001 13.9853 16.5148 16 19.0001 16C20.7967 16 22.3454 14.9471 23.0665 13.4291C23.3035 12.9302 23.0912 12.3337 22.5923 12.0967C22.0935 11.8597 21.497 12.072 21.26 12.5709C20.8577 13.4178 19.9958 14 19.0001 14C17.6194 14 16.5001 12.8807 16.5001 11.5C16.5001 10.5042 17.0822 9.6424 17.9292 9.24006Z" fill="#262556"/>
<path fill-rule="evenodd" clip-rule="evenodd" d="M7.56407 18.4423C5.69332 17.7009 4.16271 17.8469 3.0082 18.5439C1.84253 19.2477 1.24281 20.4059 1.02993 21.2575C0.925532 21.6751 1.10006 22.1126 1.46319 22.3437L3.14454 23.4136C2.98922 23.4599 2.83801 23.5128 2.69118 23.5715C1.33049 24.1158 0.293939 25.2014 0.0299279 26.2574C-0.0751928 26.6779 0.102528 27.1183 0.470071 27.348L12.3524 34.7744C13.8808 36.431 17.9301 39.5 23.0001 39.5C29.431 39.5 33.4023 37.5896 35.5533 35.5656C35.8178 36.9521 37.0366 38 38.5001 38H40.5001C42.1569 38 43.5001 36.6569 43.5001 35V22C43.5001 20.3431 42.1569 19 40.5001 19H38.5001C37.3194 19 36.2981 19.682 35.8085 20.6735C35.4726 20.3592 35.0903 20.051 34.6579 19.7788C33.3145 18.9329 31.5359 18.4602 29.2575 19.0299C28.7217 19.1638 28.396 19.7068 28.5299 20.2426C28.6639 20.7783 29.2068 21.1041 29.7426 20.9701C31.4642 20.5397 32.6856 20.9004 33.5922 21.4712C34.4218 21.9935 35.0244 22.7131 35.5001 23.3353V32.3221C34.8726 33.8661 31.6675 37.5 23.0001 37.5C19.0816 37.5 15.7927 35.3022 14.2486 33.8474C14.5827 33.4016 15.1084 32.9209 15.8429 32.6071C16.8732 32.167 18.4232 32.0096 20.6154 32.9231C20.7373 32.9738 20.868 33 21.0001 33H23.0001C23.5202 33 23.9534 32.6013 23.9966 32.083C24.0609 31.3113 24.4867 30.0433 25.6045 28.9719C26.6989 27.923 28.5232 26.9999 31.5001 26.9999C32.0523 26.9999 32.5001 26.5522 32.5001 25.9999C32.5001 25.4477 32.0523 24.9999 31.5001 24.9999C28.0769 24.9999 25.7346 26.0769 24.2206 27.528C23.0726 28.6283 22.4386 29.9085 22.161 31H21.196C18.6747 29.9952 16.6214 30.0996 15.0572 30.7679C13.9941 31.2221 13.2041 31.9171 12.6725 32.616L2.34227 26.1596C2.58394 25.901 2.94427 25.6243 3.43396 25.4285C4.283 25.0889 5.49872 25.0149 6.98422 25.857L12.4632 29.3437C12.9291 29.6402 13.5472 29.5028 13.8437 29.0369C14.1402 28.5709 14.0029 27.9528 13.5369 27.6563L3.23506 21.1006C3.41941 20.7821 3.68694 20.4704 4.04194 20.2561C4.57989 19.9313 5.50505 19.7183 7.0542 20.3963C7.06431 20.4024 7.07968 20.4118 7.10132 20.4252C7.16226 20.4632 7.24852 20.5183 7.35885 20.5898C7.57861 20.7321 7.88015 20.9305 8.2374 21.1672C8.95117 21.6402 9.87803 22.26 10.7977 22.877C11.717 23.4937 12.6277 24.1067 13.3087 24.5655C13.6492 24.7949 13.9321 24.9858 14.13 25.1192L14.4401 25.3285C14.8978 25.6376 15.5197 25.5173 15.8288 25.0596C16.1379 24.6019 16.0173 23.9803 15.5596 23.6712L15.2485 23.4612C15.0504 23.3276 14.7671 23.1365 14.4262 22.9069C13.7446 22.4476 12.8327 21.8339 11.9119 21.2161C10.9914 20.5986 10.0608 19.9762 9.3421 19.5L9.29902 19.4715C9.31502 19.4517 9.33132 19.4318 9.34795 19.4118C9.58119 19.1305 9.84945 18.857 10.1658 18.6537C10.4725 18.4565 10.8233 18.3254 11.2466 18.3202C11.6643 18.3151 12.2236 18.4319 12.9517 18.8387L14.9001 20.3C15.3419 20.6314 15.9687 20.5418 16.3001 20.1C16.6314 19.6582 16.5419 19.0314 16.1001 18.7L14.1001 17.2C14.0669 17.1751 14.0322 17.1523 13.9962 17.1317C12.9999 16.5624 12.0759 16.31 11.2222 16.3204C10.3643 16.3308 9.65259 16.606 9.08431 16.9713C8.52568 17.3304 8.10645 17.7757 7.80843 18.1351C7.71785 18.2443 7.63551 18.3494 7.56407 18.4423ZM15.0001 24.5C15.5597 23.6712 15.5596 23.6712 15.5596 23.6712L15.0001 24.5ZM37.5001 23.01V32.4767L37.5003 32.4932C37.5004 32.5031 37.5003 32.5131 37.5001 32.5231V35C37.5001 35.5523 37.9478 36 38.5001 36H40.5001C41.0523 36 41.5001 35.5523 41.5001 35V22C41.5001 21.4477 41.0523 21 40.5001 21H38.5001C37.9478 21 37.5001 21.4477 37.5001 22V22.9886C37.5001 22.9957 37.5001 23.0029 37.5001 23.01Z" fill="#262556"/>
<path fill-rule="evenodd" clip-rule="evenodd" d="M17.5001 21.5C17.5001 19.0147 19.5148 17 22.0001 17C24.4853 17 26.5001 19.0147 26.5001 21.5C26.5001 23.9853 24.4853 26 22.0001 26C19.5148 26 17.5001 23.9853 17.5001 21.5ZM22.0001 19C20.6194 19 19.5001 20.1193 19.5001 21.5C19.5001 22.8807 20.6194 24 22.0001 24C23.3808 24 24.5001 22.8807 24.5001 21.5C24.5001 20.1193 23.3808 19 22.0001 19Z" fill="#262556"/>
</svg>
