<svg width="29" height="33" viewBox="0 0 29 33" fill="none" xmlns="http://www.w3.org/2000/svg">
<path d="M14.6187 10.6871C16.7794 10.6958 18.5248 12.4528 18.5191 14.6135C18.5133 16.7742 16.7586 18.522 14.5979 18.5191C12.4371 18.5162 10.6871 16.7638 10.687 14.6031C10.6815 13.5601 11.0944 12.5584 11.8334 11.8224C12.5724 11.0863 13.5757 10.6774 14.6187 10.6871" stroke="#262556" stroke-width="2" stroke-linecap="round" stroke-linejoin="round"/>
<path d="M1 14.4999V14.4999C1 7.04411 7.04411 1 14.4999 1V1C21.9557 1 27.9998 7.04411 27.9998 14.4999V14.4999" stroke="#262556" stroke-width="2" stroke-linecap="round" stroke-linejoin="round"/>
<path d="M1 14.5C1 20.9074 8.15904 27.7601 12.0494 31.013C13.4872 32.138 15.5066 32.1385 16.945 31.0143C20.8392 27.7618 28 20.9082 28 14.5" stroke="#262556" stroke-width="2" stroke-linecap="round" stroke-linejoin="round"/>
</svg>
