<?xml version="1.0" encoding="utf-8"?>
<!-- Generator: Adobe Illustrator 21.0.2, SVG Export Plug-In . SVG Version: 6.00 Build 0)  -->
<svg version="1.1" id="Layer_1" xmlns="http://www.w3.org/2000/svg" xmlns:xlink="http://www.w3.org/1999/xlink" x="0px" y="0px"
	 viewBox="0 0 50.1 44" style="enable-background:new 0 0 50.1 44;" xml:space="preserve">
<style type="text/css">
	.st0{fill:none;}
	.st1{fill:#E11E1E;}
	.st2{fill:#2D3A89;}
</style>
<rect x="-72.5" class="st0" width="195" height="44"/>
<g>
	<polygon class="st1" points="0,33.9 0,30.8 0.4,30.8 2.1,33.3 2.1,30.8 2.5,30.8 2.5,33.9 2,33.9 0.4,31.5 0.4,33.9 	"/>
	<path class="st1" d="M4.4,33.6c-0.1,0.1-0.3,0.2-0.4,0.3c-0.1,0.1-0.3,0.1-0.4,0.1c-0.2,0-0.4-0.1-0.6-0.2
		c-0.1-0.1-0.2-0.3-0.2-0.5c0-0.1,0-0.2,0.1-0.3c0.1-0.1,0.1-0.2,0.2-0.2c0.1-0.1,0.2-0.1,0.3-0.1c0.1,0,0.2,0,0.3-0.1
		c0.3,0,0.5-0.1,0.7-0.1c0-0.1,0-0.1,0-0.1c0-0.2,0-0.3-0.1-0.3c-0.1-0.1-0.2-0.1-0.4-0.1c-0.2,0-0.3,0-0.4,0.1
		c-0.1,0.1-0.1,0.2-0.2,0.3l-0.4-0.1C2.9,32.1,3,32,3,31.9c0.1-0.1,0.2-0.2,0.3-0.2c0.1-0.1,0.3-0.1,0.5-0.1c0.2,0,0.3,0,0.5,0.1
		c0.1,0,0.2,0.1,0.3,0.2c0.1,0.1,0.1,0.2,0.1,0.3c0,0.1,0,0.2,0,0.4v0.5c0,0.4,0,0.6,0,0.7c0,0.1,0,0.2,0.1,0.3H4.5
		C4.5,33.8,4.4,33.7,4.4,33.6 M4.4,32.7c-0.1,0.1-0.3,0.1-0.6,0.1c-0.2,0-0.3,0-0.3,0.1c-0.1,0-0.1,0.1-0.2,0.1
		c0,0.1-0.1,0.1-0.1,0.2c0,0.1,0,0.2,0.1,0.3c0.1,0.1,0.2,0.1,0.3,0.1c0.1,0,0.3,0,0.4-0.1c0.1-0.1,0.2-0.2,0.3-0.3
		c0-0.1,0.1-0.2,0.1-0.4V32.7z"/>
	<path class="st1" d="M6,33.5l0.1,0.3c-0.1,0-0.2,0-0.3,0c-0.1,0-0.2,0-0.3-0.1c-0.1,0-0.1-0.1-0.2-0.2c0-0.1,0-0.2,0-0.5v-1.3H5
		v-0.3h0.3V31l0.4-0.2v0.8H6v0.3H5.7v1.3c0,0.1,0,0.2,0,0.2l0.1,0.1c0,0,0.1,0,0.1,0C5.9,33.5,6,33.5,6,33.5"/>
	<path class="st1" d="M6.2,33.9h0.4v-2.3H6.2V33.9z M6.2,31.2h0.4v-0.4H6.2V31.2z"/>
	<path class="st1" d="M6.9,32.7c0-0.4,0.1-0.7,0.3-0.9c0.2-0.2,0.4-0.3,0.7-0.3c0.3,0,0.6,0.1,0.8,0.3C8.9,32.1,9,32.3,9,32.7
		c0,0.3,0,0.5-0.1,0.7c-0.1,0.2-0.2,0.3-0.4,0.4c-0.2,0.1-0.3,0.1-0.5,0.1c-0.3,0-0.6-0.1-0.8-0.3C7,33.4,6.9,33.1,6.9,32.7
		 M7.3,32.7c0,0.3,0.1,0.5,0.2,0.7c0.1,0.1,0.3,0.2,0.5,0.2c0.2,0,0.4-0.1,0.5-0.2c0.1-0.1,0.2-0.4,0.2-0.7c0-0.3-0.1-0.5-0.2-0.6
		c-0.1-0.1-0.3-0.2-0.5-0.2c-0.2,0-0.4,0.1-0.5,0.2C7.4,32.2,7.3,32.4,7.3,32.7"/>
	<path class="st1" d="M9.3,33.9v-2.3h0.3v0.3c0.2-0.3,0.4-0.4,0.7-0.4c0.1,0,0.3,0,0.4,0.1c0.1,0,0.2,0.1,0.3,0.2
		c0.1,0.1,0.1,0.2,0.1,0.3c0,0.1,0,0.2,0,0.4v1.4h-0.4v-1.4c0-0.2,0-0.3,0-0.4c0-0.1-0.1-0.1-0.2-0.2c-0.1,0-0.2-0.1-0.3-0.1
		c-0.2,0-0.3,0.1-0.4,0.2c-0.1,0.1-0.2,0.3-0.2,0.6v1.2H9.3z"/>
	<path class="st1" d="M13,33.6c-0.1,0.1-0.3,0.2-0.4,0.3c-0.1,0.1-0.3,0.1-0.4,0.1c-0.2,0-0.4-0.1-0.6-0.2c-0.1-0.1-0.2-0.3-0.2-0.5
		c0-0.1,0-0.2,0.1-0.3c0.1-0.1,0.1-0.2,0.2-0.2c0.1-0.1,0.2-0.1,0.3-0.1c0.1,0,0.2,0,0.3-0.1c0.3,0,0.5-0.1,0.7-0.1
		c0-0.1,0-0.1,0-0.1c0-0.2,0-0.3-0.1-0.3c-0.1-0.1-0.2-0.1-0.4-0.1c-0.2,0-0.3,0-0.4,0.1c-0.1,0.1-0.2,0.2-0.2,0.3l-0.4-0.1
		c0-0.2,0.1-0.3,0.2-0.4c0.1-0.1,0.2-0.2,0.3-0.2c0.1-0.1,0.3-0.1,0.5-0.1c0.2,0,0.4,0,0.5,0.1c0.1,0,0.2,0.1,0.3,0.2
		c0.1,0.1,0.1,0.2,0.1,0.3c0,0.1,0,0.2,0,0.4v0.5c0,0.4,0,0.6,0,0.7c0,0.1,0.1,0.2,0.1,0.3h-0.4C13.1,33.8,13.1,33.7,13,33.6
		 M13,32.7c-0.1,0.1-0.3,0.1-0.6,0.1c-0.2,0-0.3,0-0.3,0.1c-0.1,0-0.1,0.1-0.2,0.1c0,0.1-0.1,0.1-0.1,0.2c0,0.1,0,0.2,0.1,0.3
		c0.1,0.1,0.2,0.1,0.3,0.1c0.1,0,0.3,0,0.4-0.1c0.1-0.1,0.2-0.2,0.3-0.3c0-0.1,0.1-0.2,0.1-0.4V32.7z"/>
	<rect x="13.8" y="30.7" class="st1" width="0.4" height="3.1"/>
	<path class="st1" d="M15.7,33.9v-3.1h1.2c0.2,0,0.4,0,0.6,0.1c0.1,0.1,0.3,0.2,0.3,0.3c0.1,0.1,0.1,0.3,0.1,0.4
		c0,0.1,0,0.3-0.1,0.4c-0.1,0.1-0.2,0.2-0.3,0.3c0.2,0.1,0.3,0.2,0.4,0.3c0.1,0.1,0.2,0.3,0.2,0.5c0,0.1,0,0.3-0.1,0.4
		c-0.1,0.1-0.1,0.2-0.2,0.3c-0.1,0.1-0.2,0.1-0.3,0.2c-0.1,0-0.3,0.1-0.5,0.1H15.7z M16.1,32.1h0.7c0.2,0,0.3,0,0.4,0
		c0.1,0,0.2-0.1,0.2-0.2c0.1-0.1,0.1-0.2,0.1-0.3c0-0.1,0-0.2-0.1-0.3c-0.1-0.1-0.1-0.1-0.2-0.2c-0.1,0-0.3,0-0.5,0h-0.6V32.1z
		 M16.1,33.5h0.8c0.1,0,0.2,0,0.3,0c0.1,0,0.2,0,0.2-0.1c0.1,0,0.1-0.1,0.2-0.2c0-0.1,0.1-0.2,0.1-0.3c0-0.1,0-0.2-0.1-0.3
		c-0.1-0.1-0.1-0.1-0.2-0.2c-0.1,0-0.3,0-0.5,0h-0.7V33.5z"/>
	<path class="st1" d="M19.9,33.6c-0.1,0.1-0.3,0.2-0.4,0.3c-0.1,0.1-0.3,0.1-0.4,0.1c-0.2,0-0.4-0.1-0.6-0.2
		c-0.1-0.1-0.2-0.3-0.2-0.5c0-0.1,0-0.2,0.1-0.3c0-0.1,0.1-0.2,0.2-0.2c0.1-0.1,0.2-0.1,0.3-0.1c0.1,0,0.2,0,0.3-0.1
		c0.3,0,0.5-0.1,0.7-0.1c0-0.1,0-0.1,0-0.1c0-0.2,0-0.3-0.1-0.3c-0.1-0.1-0.2-0.1-0.4-0.1c-0.2,0-0.3,0-0.4,0.1
		c-0.1,0.1-0.2,0.2-0.2,0.3l-0.4-0.1c0-0.2,0.1-0.3,0.2-0.4c0.1-0.1,0.2-0.2,0.3-0.2c0.1-0.1,0.3-0.1,0.5-0.1c0.2,0,0.4,0,0.5,0.1
		c0.1,0,0.2,0.1,0.3,0.2c0.1,0.1,0.1,0.2,0.1,0.3c0,0.1,0,0.2,0,0.4v0.5c0,0.4,0,0.6,0,0.7c0,0.1,0,0.2,0.1,0.3H20
		C19.9,33.8,19.9,33.7,19.9,33.6 M19.9,32.7c-0.1,0.1-0.3,0.1-0.6,0.1c-0.2,0-0.3,0-0.3,0.1c-0.1,0-0.1,0.1-0.2,0.1
		c0,0.1-0.1,0.1-0.1,0.2c0,0.1,0,0.2,0.1,0.3c0.1,0.1,0.2,0.1,0.3,0.1c0.1,0,0.3,0,0.4-0.1c0.1-0.1,0.2-0.2,0.3-0.3
		c0-0.1,0.1-0.2,0.1-0.4V32.7z"/>
	<path class="st1" d="M20.7,33.9v-2.3H21v0.3c0.2-0.3,0.4-0.4,0.7-0.4c0.1,0,0.3,0,0.4,0.1c0.1,0,0.2,0.1,0.3,0.2
		c0.1,0.1,0.1,0.2,0.1,0.3c0,0.1,0,0.2,0,0.4v1.4h-0.4v-1.4c0-0.2,0-0.3,0-0.4c0-0.1-0.1-0.1-0.2-0.2c-0.1,0-0.2-0.1-0.3-0.1
		c-0.2,0-0.3,0.1-0.4,0.2c-0.1,0.1-0.2,0.3-0.2,0.6v1.2H20.7z"/>
	<polygon class="st1" points="22.9,33.9 22.9,30.7 23.3,30.7 23.3,32.5 24.2,31.6 24.7,31.6 23.9,32.4 24.8,33.9 24.3,33.9 
		23.6,32.7 23.3,33 23.3,33.9 	"/>
	<path class="st1" d="M25.8,32.7c0-0.4,0.1-0.7,0.4-0.9c0.2-0.2,0.4-0.3,0.7-0.3c0.3,0,0.6,0.1,0.8,0.3c0.2,0.2,0.3,0.5,0.3,0.8
		c0,0.3,0,0.5-0.1,0.7c-0.1,0.2-0.2,0.3-0.4,0.4c-0.2,0.1-0.4,0.1-0.5,0.1c-0.3,0-0.6-0.1-0.8-0.3C25.9,33.4,25.8,33.1,25.8,32.7
		 M26.2,32.7c0,0.3,0.1,0.5,0.2,0.7c0.1,0.1,0.3,0.2,0.5,0.2c0.2,0,0.3-0.1,0.5-0.2c0.1-0.1,0.2-0.4,0.2-0.7c0-0.3-0.1-0.5-0.2-0.6
		c-0.1-0.1-0.3-0.2-0.5-0.2c-0.2,0-0.4,0.1-0.5,0.2C26.3,32.2,26.2,32.4,26.2,32.7"/>
	<path class="st1" d="M28.3,33.9v-2H28v-0.3h0.3v-0.2c0-0.2,0-0.3,0-0.3c0-0.1,0.1-0.2,0.2-0.2c0.1-0.1,0.2-0.1,0.4-0.1
		c0.1,0,0.2,0,0.4,0l-0.1,0.3c-0.1,0-0.2,0-0.2,0c-0.1,0-0.2,0-0.2,0.1c0,0-0.1,0.1-0.1,0.3v0.2h0.4v0.3h-0.4v2H28.3z"/>
	<path class="st1" d="M32.6,32.8l0.4,0.1c-0.1,0.3-0.2,0.6-0.5,0.8c-0.2,0.2-0.5,0.3-0.8,0.3c-0.3,0-0.6-0.1-0.8-0.2
		c-0.2-0.1-0.4-0.3-0.5-0.6c-0.1-0.3-0.2-0.5-0.2-0.8c0-0.3,0.1-0.6,0.2-0.9c0.1-0.2,0.3-0.4,0.5-0.6c0.2-0.1,0.5-0.2,0.8-0.2
		c0.3,0,0.6,0.1,0.8,0.2c0.2,0.2,0.4,0.4,0.4,0.7l-0.4,0.1c-0.1-0.2-0.2-0.4-0.3-0.5c-0.1-0.1-0.3-0.2-0.5-0.2
		c-0.2,0-0.4,0.1-0.6,0.2c-0.2,0.1-0.3,0.3-0.3,0.5c-0.1,0.2-0.1,0.4-0.1,0.6c0,0.3,0,0.5,0.1,0.7c0.1,0.2,0.2,0.3,0.4,0.4
		c0.2,0.1,0.3,0.1,0.5,0.1c0.2,0,0.4-0.1,0.6-0.2C32.5,33.2,32.6,33,32.6,32.8"/>
	<path class="st1" d="M33.2,32.7c0-0.4,0.1-0.7,0.3-0.9c0.2-0.2,0.4-0.3,0.7-0.3c0.3,0,0.6,0.1,0.8,0.3c0.2,0.2,0.3,0.5,0.3,0.8
		c0,0.3,0,0.5-0.1,0.7c-0.1,0.2-0.2,0.3-0.4,0.4c-0.2,0.1-0.4,0.1-0.5,0.1c-0.3,0-0.6-0.1-0.8-0.3C33.3,33.4,33.2,33.1,33.2,32.7
		 M33.6,32.7c0,0.3,0.1,0.5,0.2,0.7c0.1,0.1,0.3,0.2,0.5,0.2c0.2,0,0.4-0.1,0.5-0.2c0.1-0.1,0.2-0.4,0.2-0.7c0-0.3-0.1-0.5-0.2-0.6
		c-0.1-0.1-0.3-0.2-0.5-0.2c-0.2,0-0.4,0.1-0.5,0.2C33.6,32.2,33.6,32.4,33.6,32.7"/>
	<path class="st1" d="M35.6,33.9v-2.3h0.3v0.3c0.1-0.1,0.2-0.2,0.3-0.3c0.1-0.1,0.3-0.1,0.4-0.1c0.2,0,0.3,0,0.4,0.1
		c0.1,0.1,0.2,0.2,0.2,0.3c0.2-0.3,0.4-0.4,0.7-0.4c0.2,0,0.4,0.1,0.5,0.2c0.1,0.1,0.2,0.3,0.2,0.6v1.6h-0.4v-1.4c0-0.2,0-0.3,0-0.3
		c0-0.1-0.1-0.1-0.1-0.2c-0.1,0-0.1-0.1-0.2-0.1c-0.2,0-0.3,0.1-0.4,0.2c-0.1,0.1-0.2,0.3-0.2,0.5v1.3h-0.4v-1.5
		c0-0.2,0-0.3-0.1-0.4c-0.1-0.1-0.2-0.1-0.3-0.1c-0.1,0-0.2,0-0.3,0.1c-0.1,0.1-0.2,0.1-0.2,0.2c0,0.1-0.1,0.3-0.1,0.5v1.2H35.6z"/>
	<path class="st1" d="M39.1,33.9v-2.3h0.3v0.3c0.1-0.1,0.2-0.2,0.3-0.3c0.1-0.1,0.3-0.1,0.4-0.1c0.2,0,0.3,0,0.4,0.1
		c0.1,0.1,0.2,0.2,0.2,0.3c0.2-0.3,0.4-0.4,0.7-0.4c0.2,0,0.4,0.1,0.5,0.2c0.1,0.1,0.2,0.3,0.2,0.6v1.6h-0.4v-1.4c0-0.2,0-0.3,0-0.3
		c0-0.1-0.1-0.1-0.1-0.2c-0.1,0-0.1-0.1-0.2-0.1c-0.2,0-0.3,0.1-0.4,0.2c-0.1,0.1-0.2,0.3-0.2,0.5v1.3h-0.4v-1.5
		c0-0.2,0-0.3-0.1-0.4c-0.1-0.1-0.2-0.1-0.3-0.1c-0.1,0-0.2,0-0.3,0.1c-0.1,0.1-0.2,0.1-0.2,0.2c0,0.1-0.1,0.3-0.1,0.5v1.2H39.1z"/>
	<path class="st1" d="M44.1,33.1l0.4,0c-0.1,0.2-0.2,0.4-0.3,0.5c-0.2,0.1-0.4,0.2-0.7,0.2c-0.3,0-0.6-0.1-0.8-0.3
		c-0.2-0.2-0.3-0.5-0.3-0.9c0-0.4,0.1-0.7,0.3-0.9c0.2-0.2,0.5-0.3,0.8-0.3c0.3,0,0.6,0.1,0.7,0.3c0.2,0.2,0.3,0.5,0.3,0.9l0,0.1
		h-1.7c0,0.3,0.1,0.4,0.2,0.6c0.1,0.1,0.3,0.2,0.5,0.2c0.1,0,0.3,0,0.4-0.1C43.9,33.4,44,33.3,44.1,33.1 M42.8,32.5h1.3
		c0-0.2-0.1-0.3-0.1-0.4c-0.1-0.1-0.3-0.2-0.5-0.2c-0.2,0-0.3,0.1-0.4,0.2C42.9,32.2,42.8,32.3,42.8,32.5"/>
	<path class="st1" d="M44.8,33.9v-2.3h0.3v0.3c0.1-0.2,0.2-0.3,0.2-0.3c0.1-0.1,0.2-0.1,0.2-0.1c0.1,0,0.3,0,0.4,0.1L45.9,32
		c-0.1-0.1-0.2-0.1-0.3-0.1c-0.1,0-0.2,0-0.2,0.1c-0.1,0.1-0.1,0.1-0.1,0.2c0,0.1-0.1,0.3-0.1,0.4v1.2H44.8z"/>
	<path class="st1" d="M47.6,33l0.4,0.1c0,0.3-0.1,0.5-0.3,0.6c-0.2,0.1-0.4,0.2-0.6,0.2c-0.3,0-0.6-0.1-0.7-0.3
		c-0.2-0.2-0.3-0.5-0.3-0.9c0-0.2,0-0.5,0.1-0.6c0.1-0.2,0.2-0.3,0.4-0.4c0.2-0.1,0.3-0.1,0.5-0.1c0.2,0,0.4,0.1,0.6,0.2
		c0.2,0.1,0.3,0.3,0.3,0.5l-0.4,0.1c0-0.2-0.1-0.3-0.2-0.3c-0.1-0.1-0.2-0.1-0.3-0.1c-0.2,0-0.4,0.1-0.5,0.2
		c-0.1,0.1-0.2,0.4-0.2,0.7c0,0.3,0.1,0.5,0.2,0.7c0.1,0.1,0.3,0.2,0.5,0.2c0.2,0,0.3,0,0.4-0.1C47.5,33.4,47.5,33.2,47.6,33"/>
	<path class="st1" d="M49.6,33.1l0.4,0c-0.1,0.2-0.2,0.4-0.3,0.5c-0.2,0.1-0.4,0.2-0.7,0.2c-0.3,0-0.6-0.1-0.8-0.3
		c-0.2-0.2-0.3-0.5-0.3-0.9c0-0.4,0.1-0.7,0.3-0.9c0.2-0.2,0.5-0.3,0.8-0.3c0.3,0,0.6,0.1,0.7,0.3c0.2,0.2,0.3,0.5,0.3,0.9l0,0.1
		h-1.7c0,0.3,0.1,0.4,0.2,0.6c0.1,0.1,0.3,0.2,0.5,0.2c0.1,0,0.3,0,0.4-0.1C49.5,33.4,49.6,33.3,49.6,33.1 M48.4,32.5h1.3
		c0-0.2-0.1-0.3-0.1-0.4c-0.1-0.1-0.3-0.2-0.5-0.2c-0.2,0-0.3,0.1-0.4,0.2C48.5,32.2,48.4,32.3,48.4,32.5"/>
	<path class="st1" d="M11,7.5c0.2,0.3,0.7,0.2,0.5-0.3c0.1-0.3,0.4-0.3,0.6-0.4c0.1,0,0.2-0.1,0.3-0.1c0.2,0,0.4,0.3,0.6,0.2
		c-0.1-0.3-0.3-0.7-0.6-0.9c-0.2-0.2-0.4-0.4-0.6-0.5c-0.2-0.1-0.5-0.3-0.7-0.3c-0.2,0.3-0.5,0.7-0.5,1.4C10.7,6.9,10.9,7.3,11,7.5
		 M8.2,7.9C8.3,8,8.3,8.1,8.5,8.1C8.6,8,8.5,7.8,8.6,7.7C8.8,7.1,9.4,7.1,9.9,7C9.7,6.4,9.2,6.1,8.7,5.8C8.5,5.7,8.2,5.4,7.9,5.5
		C7.6,5.6,7.6,6.7,7.7,7.1C7.8,7.4,8.1,7.6,8.2,7.9 M12.1,10.4c0.3,0,0.4-0.8,0.4-1.1c0-0.5-0.5-1.2-1-1.2c0,0.4,0.2,0.4,0.3,0.6
		c0.2,0.2,0.3,0.8,0.3,1.3C12.1,10.1,11.9,10.3,12.1,10.4 M9.2,8.5L9.2,8.5c-0.1,0-0.1,0-0.1,0c0.1,0.2,0.3,0.5,0.5,0.9
		c0.2,0.3,0.3,0.7,0.3,1.1c0,0.3-0.1,0.6-0.4,0.7c-0.4,0-0.5-0.3-0.9-0.4c-0.5,0.4,0.2,0.9,0.6,1c0.8,0.2,1.3-0.7,1.2-1.4
		C10.2,9.6,9.7,8.9,9.2,8.5 M6.1,12.7c0.2,0,0.4,0.1,0.5,0.1c0.5,0,1-0.3,1.4-0.4c0.2,0,0.3,0,0.4-0.1C8.5,12,8.2,11.6,8,11.5
		c-0.2-0.2-0.3-0.3-0.4-0.5c-0.1-0.2-0.6-1-0.9-1c-0.2,0-0.3,0.3-0.5,0.3c-0.1,0-0.4-0.2-0.6-0.3C5.2,9.8,4.9,9.7,4.5,9.5
		C4.3,9.4,4.2,9.2,4,9.1C3.6,9,2.7,8.8,2.2,8.9L2.1,9c0.1,0.2,0.2,0.3,0.4,0.5c0.3,0.3,0.5,0.6,0.8,1c0.2,0.3,0.5,0.5,0.5,0.9
		c0.3,0.1,0.6,0.2,1,0.3C5,11.7,5.4,11.8,5.6,12C5.8,12.2,5.8,12.5,6.1,12.7 M16.1,12.6c0.1,0.2,0.3,0.6,0.5,0.6
		c0.4,0,0.5-0.9,0.6-1.3c0.1-0.3,0.2-0.6,0.2-0.9c0-0.3,0-0.7,0-0.9c0.1-0.3,0.4-0.7,0.3-1c-0.1,0-0.2,0-0.3,0
		c-0.5,0.1-1.3,0.8-1.4,1c-0.1,0.2-0.2,0.7-0.3,1.1c-0.1,0.2-0.2,0.5-0.1,0.8C15.6,12.3,15.9,12.4,16.1,12.6 M12.1,11.1
		c-0.2,0.1-0.9,0.4-0.9,0.6c0,0.3,0.4,0.3,0.6,0.4c0.7,0.3,1.5,0.9,2,1.4c0.2,0.2,0.4,0.5,0.6,0.7c1,1.3,1.7,2.7,2.7,4.1
		c0.6,0.8,0.9,1.8,1.7,2.3c0.1,0.1,0.3,0.1,0.5,0.2c0.2,0.1,0.4,0.3,0.6,0.2c0.1-0.3-0.1-0.5-0.3-0.7c-0.8-1.1-1.5-2.2-2.1-3.4
		c-0.3-0.5-0.7-0.9-0.8-1.4c-0.1-0.3-0.1-0.7-0.1-1c0-0.2-0.2-0.4-0.3-0.6c-0.2-0.3-0.4-0.6-0.6-0.9c-0.2-0.3-0.6-0.5-0.8-0.8
		c-0.3-0.3-0.6-0.6-0.8-0.8C13.5,11,12.6,10.9,12.1,11.1 M8.2,15.2c0.1-0.3,0.1-0.7,0.1-0.9c-0.1-0.4-1.1-0.5-1.4-0.5
		c-0.2,0.2,0.1,0.4,0.1,0.6c0,0.2-0.3,0.4-0.4,0.5c-0.1,0.1-0.1,0.3-0.1,0.5c-0.1,0.2-0.2,0.3-0.2,0.4c0,0.1,0,0.2,0,0.4
		C6.1,16.6,6,17,5.9,17.4c-0.1,0.4-0.2,0.8-0.3,1.2c-0.1,0.6-0.2,1.3-0.2,2c-0.1,0.7-0.2,1.3-0.2,2c0,0.7,0,1.4-0.1,2.2
		C5,26.1,5,27.4,5.3,28.4c0.1,0,0.3,0,0.4,0c0.3-1.7,0.2-3.5,0.5-5.1c0.1-0.6,0.2-1.1,0.3-1.6c0.6-1,0.7-2.3,1.1-3.9
		C7.8,16.9,8,16.1,8.2,15.2 M13.1,15.3c-0.3-0.2-0.7-0.5-1-0.6c-0.1-0.1-0.4-0.1-0.5-0.1c-0.3,0-0.4,0.4-0.7,0.4
		c-0.2,0-0.3-0.1-0.4,0.1c0.2,0.4,0.6,0.4,0.8,0.8c0.2,0.3,0.4,0.9,0.5,1.2c0.1,0.3,0,0.6,0.1,0.9c0.1,0.3,0.4,0.4,0.4,0.8
		c0.2,0.2,0.5,0.4,0.6,0.7c0.1,0.2,0.2,0.5,0.5,0.5c0.4-0.3,0.3-0.9,0-1.2c-0.1-0.1-0.3-0.1-0.4-0.2c-0.2-0.1-0.4-0.6-0.6-0.9
		C12.1,17.6,12,17.3,12,17c0.4-0.4,1.1-0.6,1.5-1c0.1,0,0.3,0.1,0.4,0C13.9,15.7,13.4,15.5,13.1,15.3 M10.3,18.9
		c0.3,0.2,0.4,0.9,0.9,0.8c0.2,0,0.4-0.4,0.4-0.6c0-0.3-0.4-1-0.8-0.9c-0.2,0-0.4,0.3-0.6,0.3c-0.3,0-0.3-0.9-0.7-0.9
		c-0.2,0-0.3,0.4-0.3,0.6c0,0.3,0.2,0.6,0.2,1c0.2,0.1,0.2,0.4,0.4,0.5C10.3,19.9,9.9,19.1,10.3,18.9 M9.8,22.3
		c0-0.1-0.1-0.3-0.2-0.5c-0.1-0.2-0.1-0.4-0.2-0.6C9.4,21,9.2,20.8,9,20.6c-0.2-0.3-0.2-0.5-0.5-0.5c-0.5,0-0.3,0.4-0.3,0.9
		C8.1,21.2,8,21.6,8,22c0.1,0.7,0.7,0.8,1,1.3c0.2,0.3,0.2,1.2,0.6,1.2c0.4,0,0.3-0.7,0.3-1.3C9.8,22.9,9.9,22.5,9.8,22.3
		 M12.7,21.8c0.1-0.2,0.2-0.5,0.1-0.8c-0.1-0.4-0.7-0.8-1.1-0.5c0,0.4,0.3,0.5,0.2,0.9C12.1,21.6,12.4,21.9,12.7,21.8 M15.5,20.9
		c-0.1,0-0.3,0.2-0.5,0.2c-0.3,0.1-0.8-0.1-0.8,0.2c0,0.1,0.3,0.4,0.5,0.5c0.2,0.1,0.4,0.3,0.6,0.4c0.7,0.3,0.9-0.1,0.8-1
		C15.9,21.1,15.8,20.9,15.5,20.9 M21,22.5c-0.1-0.2-0.3-0.4-0.5-0.4c-0.5,0.1-0.2,0.9-0.8,1c-0.4-0.2-0.6-0.6-1-0.7
		c-0.3-0.1-1.2-0.2-1.5-0.1c-0.3,0.1-0.5,0.7-0.4,1.2c0.1,0.4,0.4,0.5,0.6,0.8c0.2,0.3,0.4,0.6,0.5,0.9c0.1,0.2,0.1,0.5,0.2,0.7
		c0.1,0.1,0.4,0.2,0.5,0.3c0.3,0.1,0.9,0.1,1.2,0c0.4-0.2,0.6-0.6,1-0.9c0.1-0.1,0.3-0.2,0.4-0.3C21.5,24.3,21.2,22.8,21,22.5
		 M20.8,24.9c-0.1,0.7-1.2,1.3-2,0.8c-0.6-0.4-0.7-1.3-1.3-1.7c-0.2-0.2-0.4-0.2-0.4-0.4c0-0.1,0.1-0.1,0.2-0.2
		c0.5-0.1,0.9,0.4,1.1,0.7c0.1,0.2,0.1,0.5,0.2,0.7c0.1,0.2,0.4,0.6,0.6,0.7c0.4,0.2,1,0,1-0.5c0-0.3-0.5-1.5,0.1-1.5
		C20.7,23.5,20.9,24.4,20.8,24.9 M12.6,23.5c-0.3,0-0.7,0.2-1,0.4c-0.4,0.2-0.8,0.2-1,0.4c-0.4,0.4-0.1,0.8,0.1,1.1
		c0.2,0.3,0.3,0.7,0.9,0.6c0.5-0.3,0.5-1,0.9-1.5c0.1-0.1,0.2-0.1,0.2-0.2c0,0,0.1-0.1,0.2-0.2c0.2-0.2,0.4-0.2,0.4-0.4
		C13.1,23.7,12.8,23.5,12.6,23.5 M8,24.4c0-0.1-0.1-0.3-0.1-0.4c-0.4-0.4-0.9,0.2-0.9,0.6c0,0.3,0.1,0.7,0.1,1
		c-0.1,0.2-0.4,0.4-0.4,0.6c0,0.1,0.1,0.3,0.2,0.5c0.1,0.2,0.2,0.3,0.3,0.5c0.1,0.3,0,0.7,0.4,0.7c0.3-0.1,0.4-0.7,0.7-0.6
		c0.3,0.1,0.1,0.8,0.4,1c0.1,0,0.3,0,0.5,0c0.1-0.7,0.3-1.3,0.2-1.8C9.1,25.5,8.3,25.1,8,24.4 M12.1,27.6c-0.6,0-1.1,0-1.5-0.3
		c-0.2-0.1-0.2-0.4-0.4-0.5l-0.1,0c-0.2,0.2-0.1,0.6-0.1,1c0,0.3-0.2,0.4-0.1,0.6c0.7,0,1.7,0,2.4,0C12.5,28.1,12.3,27.7,12.1,27.6"
		/>
	<path class="st2" d="M49.9,24.1c0-0.4,0.1-1.1-0.1-1.4c-0.1-0.2-0.7-0.6-1.1-0.8c-1.2-0.8-2.2-1.6-3.3-2.4c-3-2.1-5.9-4.3-8.9-6.5
		c-0.7-0.5-1.5-1-2.2-1.6c-0.8-0.6-1.4-1.2-2.5-1.4c-0.9-0.1-1.7,0.1-2.4,0.3c-0.6,0.2-1.2,0.3-2.1,0.3c-0.7-0.1-1.3-0.4-1.8-0.6
		c-0.2-0.1-0.3-0.1-0.5-0.1c-0.8-0.2-1.8-0.2-2.8-0.2c-0.3,0-0.7,0.1-1,0.1c-0.3,0-0.6,0.1-0.9,0.2c1.2,0,2.2,0,3.2,0.1
		c1,0.2,1.8,0.6,2.8,0.7c0.6,0.1,1.1,0,1.7-0.1c0.7-0.2,1.3-0.5,2.1-0.6c1.5-0.2,2.1,0.6,2.8,1.1c0.2,0.1,0.4,0.2,0.4,0.4
		c0,0.1-0.2,0-0.2,0.1c0.7,0.7,1.4,1.5,2.1,2.2c0.2,0.2,0.5,0.5,0.6,0.8c-1-0.6-1.8-1.3-2.8-1.8c0,0.2,0.2,0.2,0.3,0.4
		c0.5,0.6,1,1.2,1.5,1.9c0.2,0.2,0.5,0.4,0.6,0.8c-0.2,0-0.4-0.2-0.6-0.3c-2.5-1.3-5-2.6-7.5-3.9c-0.4-0.2-0.8-0.5-1.2-0.6
		c-0.2,0-0.5,0-0.6,0.1c-0.2,0.3,0.3,0.8,0.5,1c0.3,0.3,0.5,0.6,0.7,0.9c0.6,0.7,1.2,1.5,1.6,2.3c0.1,0.2,0.2,0.4,0.2,0.6
		c-0.6-0.3-1-0.6-1.6-1c-0.5-0.3-1-0.7-1.5-1c-0.5-0.3-1.1-0.6-1.6-0.9c-0.8-0.5-1.6-1-2.8-0.9c-0.2,0.9,0.1,2.2-0.4,2.9
		c-0.4,0.5-1.2,0.7-1.9,0.5c-0.2-0.1-0.4-0.2-0.6-0.2c-0.2,0.6,0.2,0.9,0.4,1.2c0.1,0.2,0.2,0.4,0.3,0.6c0.5,0.7,0.9,1.4,1.3,2.1
		c0.2,0.4,0.5,0.8,0.7,1c0.3,0.3,0.6,0.4,0.7,0.8c0.1,0.3-0.1,0.6-0.1,0.9c0,0.4,0.2,0.7,0.3,1.1c0.1,0.6,0.3,1.3,0.2,2.1
		c-0.1,0.7-0.9,1.4-1.5,1.6c-0.2,0.1-0.5,0-0.7,0c-0.5,0-0.7,0.4-1.3,0.3c-0.3-0.1-0.5-0.3-0.7-0.6c-0.8-1.2-0.8-2.9-2.8-2.9
		c-0.8,0-1.5,0.4-1.7,1.1c-0.1,0.5-0.1,1.2-0.1,1.9c0,0.7,0,1.4,0,2c12.1,0,24.6,0,36.8,0C50,27,49.9,25.6,49.9,24.1 M31.1,27
		c-0.3,0.3-0.5,0.4-0.7,0.7c-0.1,0.1-0.2,0.4-0.4,0.4c-0.1,0-0.4-0.4-0.6-0.6c-0.9-1-1.7-2-2.6-3c-0.3-0.4-0.6-0.8-1-1.2
		c-0.1,1.3,0,2.8,0,4.2c-0.3,0.3-0.6,0.5-1.1,0.6c-0.1-0.9-0.1-1.9-0.1-2.8c0-1.2,0.2-2.7-0.2-3.4c-0.1-0.2-0.4-0.4-0.4-0.6
		c0-0.2,0.3-0.3,0.4-0.4c0.3-0.3,0.6-0.4,0.9-0.7c0.1-0.1,0.3-0.3,0.5-0.3c0.1,0,0.4,0.4,0.5,0.6c1.1,1.4,2.2,2.9,3.3,4.2
		c0.1-1.2,0-2.7,0-4c0.4-0.3,0.7-0.6,1.2-0.7c0.1,0.2,0.1,0.5,0.1,0.7v3.8c0,0.8-0.1,1.5,0.2,1.9c0.1,0.1,0.2,0.3,0.2,0.4
		C31.5,26.7,31.2,26.9,31.1,27 M39.2,26.9c-0.5,0.5-1.5,0.8-2.5,0.9c-0.6,0-1.3,0-1.9,0c-0.7,0-1.3,0.1-1.8-0.1
		c-0.1-1.6-0.1-3.5-0.1-5.3c0-0.6-0.1-1.3,0-1.8c0-0.1,0.4-0.7,0.6-0.8c0.2-0.1,0.6,0,1,0c1.7,0,3.3-0.1,4.2,0.7
		c0.4,0.3,0.6,1,0.5,1.6c-0.1,0.7-0.7,1.1-1.3,1.4c0.1,0.2,0.4,0.2,0.5,0.3c0.2,0.1,0.4,0.2,0.5,0.3c0.1,0.1,0.2,0.2,0.3,0.3
		C39.6,25.2,39.6,26.4,39.2,26.9 M45.2,27.2c-0.2,0.3-0.4,0.5-0.6,0.7c-1.8,0.1-3.1-0.5-3.9-1.5c-0.6-0.7-1-1.8-0.8-3.1
		c0.3-2.5,2.4-3.3,5-3.5c0.3,0.3,0.4,0.6,0.6,1c-0.3,0.1-0.8,0-1.2,0.1c-1.3,0.1-2.4,1.1-2.3,2.5c0.1,1.7,1.4,2.9,3.1,3
		c0.2,0,0.3-0.1,0.5,0C45.5,26.6,45.3,26.9,45.2,27.2 M5.3,16.7c-1.4,1.6-3,3.5-4.5,5.1c-0.2,0.2-0.6,0.6-0.6,0.8
		c-0.1,0.4,0,1.1,0,1.5c0,1.5,0,3,0,4.3c1.3,0,3,0,4.3,0c0.2-4.1,0.4-8.1,1-11.7L5.3,16.7L5.3,16.7z M36.9,21.8
		c-0.2-0.8-1-1-1.9-1.1l-0.1,0.1c0,0.9,0,1.9,0,2.8C36.1,23.5,37.1,23.2,36.9,21.8 M36.9,24.8c-0.5-0.4-1.2-0.6-2-0.4
		c0,0.8,0,2,0,2.8c1.1,0,2.6-0.4,2.6-1.5C37.5,25.3,37.1,25,36.9,24.8"/>
	<path class="st2" d="M23,36.2c-0.1,0-0.4,0.1-0.4-0.1h0c0-0.1,0.1-0.2,0-0.3c-0.1,0-0.3,0-0.5,0.1c-0.1,0.1,0,0.2-0.1,0.3H22
		c0,0.1-0.1,0.2,0,0.3c0.1,0,0.2,0,0.2,0c0,0.3-0.2,0.7-0.2,1c0,0.4,0.5,0.5,0.8,0.3c0-0.1,0-0.2,0-0.3c-0.1,0-0.2,0-0.3,0
		c-0.1-0.3,0.1-0.8,0.1-1.1H23C23,36.4,23.1,36.3,23,36.2L23,36.2z M17.4,35.9c0.2,0,0.4,0.1,0.5-0.1c0-0.1,0-0.2,0.1-0.3h-0.5
		C17.5,35.6,17.4,35.7,17.4,35.9 M24.9,37.2c-0.1-0.3-0.2-0.7-0.2-1c-0.1-0.1-0.4,0-0.5,0c0.1,0.6,0.2,1.1,0.3,1.7
		c-0.2,0.2-0.4,0.4-0.5,0.6h0.5c0.5-0.8,1-1.5,1.5-2.3h-0.4C25.4,36.5,25.2,36.9,24.9,37.2 M34.6,37.2c-0.1-0.3-0.2-0.7-0.2-1
		c-0.1-0.1-0.4,0-0.5,0c0.1,0.6,0.2,1.1,0.3,1.7c-0.2,0.2-0.3,0.4-0.5,0.6h0.5c0.5-0.8,1-1.5,1.5-2.3h-0.4
		C35,36.5,34.8,36.9,34.6,37.2 M37.9,36.2c-0.2,0.4-0.4,0.8-0.6,1.1c0-0.4-0.1-0.8-0.1-1.1h-0.4c-0.2,0.4-0.4,0.8-0.6,1.1
		c0-0.4-0.1-0.7-0.1-1c0-0.1-0.4-0.1-0.5,0c0,0.6,0.1,1.1,0.2,1.6h0.5c0.2-0.4,0.4-0.8,0.6-1.1c0,0.4,0.1,0.8,0.1,1.1h0.5
		c0.3-0.6,0.5-1.1,0.8-1.7C38.1,36.2,38,36.2,37.9,36.2 M45.3,37.4c0,0.1-0.1,0.3-0.1,0.4c0.1,0.1,0.4,0,0.5,0.1
		c0-0.1,0.1-0.3,0.1-0.4C45.7,37.3,45.4,37.4,45.3,37.4 M23.6,35.4c-0.2,0.8-0.3,1.6-0.5,2.4h0.5c0.2-0.8,0.3-1.6,0.4-2.4
		C24,35.4,23.7,35.5,23.6,35.4 M39.8,36.2h-0.3c-0.2,0-0.4,0.2-0.5,0.3c0.1-0.3,0.1-0.6,0.2-0.9c-0.1-0.1-0.3,0-0.5-0.1
		c-0.2,0.8-0.3,1.6-0.5,2.4h0.5c0.2-0.5,0-1.4,0.8-1.3c0.2,0.4-0.1,0.9-0.1,1.3h0.5C39.8,37.3,40.4,36.4,39.8,36.2 M5.8,37.2
		c-0.2-0.5,0.1-1.2,0.6-1.3c0.3-0.1,0.7,0,1,0.1c0-0.1,0.1-0.2,0.1-0.4c-0.2-0.1-0.3-0.1-0.5-0.1H6.5c-1.3-0.2-2,2.3-0.4,2.4h0.3
		c0.3,0,0.5-0.1,0.7-0.1c0-0.1,0.1-0.2,0-0.4C6.6,37.6,6,37.7,5.8,37.2 M26.8,37.9h1.6c0-0.1,0-0.2,0-0.3c-0.3-0.1-0.7,0-1-0.1
		c0-0.2,0.1-0.5,0.1-0.7h0.8c0-0.1,0-0.2,0.1-0.3c-0.3,0-0.6,0-0.8,0c0-0.2,0-0.4,0.1-0.6h1c0-0.1,0-0.2,0.1-0.3h-1.5
		C27.1,36.3,27,37.1,26.8,37.9 M8.6,36.2H8.3c-0.9-0.1-1.3,1.6-0.3,1.7h0.3C9.2,38,9.7,36.3,8.6,36.2 M7.9,37.3v-0.3
		c0.1-0.4,0.2-0.7,0.7-0.6C9.1,36.9,8.2,38.2,7.9,37.3 M10.9,36.2h-0.3c-0.2,0-0.4,0.2-0.5,0.3c0-0.1,0-0.2,0.1-0.3H9.7
		c-0.1,0.6-0.2,1.1-0.3,1.7h0.5c0.2-0.5,0-1.4,0.8-1.3c0.2,0.4-0.1,0.9-0.1,1.3h0.5C10.9,37.3,11.5,36.4,10.9,36.2 M14.4,36.2H14
		c-0.9,0-1.3,1.7-0.2,1.7h0.3c0.2,0,0.4,0,0.5-0.1c0-0.1,0.1-0.2,0.1-0.3c-0.4,0.1-1.1,0.2-1-0.4c0.3-0.1,0.7,0,1.1,0
		C14.9,36.7,14.8,36.2,14.4,36.2 M14.4,36.8c-0.1,0.1-0.5,0.1-0.6,0.1c0.1-0.2,0.2-0.5,0.5-0.4C14.3,36.5,14.4,36.6,14.4,36.8
		 M16.6,36.2h-0.3c-0.2,0-0.4,0.2-0.5,0.3c0-0.1,0-0.2,0.1-0.3h-0.5c-0.1,0.6-0.2,1.1-0.3,1.7h0.5c0.2-0.5,0-1.4,0.8-1.3
		c0.2,0.4-0.1,0.9-0.1,1.3h0.5C16.6,37.3,17.2,36.4,16.6,36.2 M19.2,36.2h-0.3c-0.9,0-1.3,1.7-0.2,1.7H19c0.2,0,0.4,0,0.5-0.1
		c0-0.1,0.1-0.2,0-0.3c-0.4,0.1-1.1,0.2-1-0.4c0.3-0.1,0.7,0,1.1,0C19.7,36.7,19.6,36.2,19.2,36.2 M19.2,36.8
		c-0.1,0.1-0.5,0.1-0.6,0.1c0.1-0.2,0.2-0.5,0.5-0.4C19.2,36.5,19.2,36.6,19.2,36.8 M21.4,36.2h-0.3c-0.2,0-0.4,0.2-0.5,0.3
		c0-0.1,0-0.2,0.1-0.3h-0.5c-0.1,0.6-0.2,1.1-0.3,1.7h0.5c0.2-0.5,0-1.4,0.8-1.3c0.2,0.4-0.1,0.9-0.1,1.3h0.5
		C21.4,37.3,22,36.4,21.4,36.2 M31.7,36.2h-0.3c-0.9,0-1.3,1.7-0.2,1.7h0.3c0.2,0,0.3,0,0.5-0.1c0-0.1,0.1-0.2,0.1-0.3
		c-0.4,0.1-1.1,0.2-1-0.4c0.3-0.1,0.7,0,1.1,0C32.2,36.7,32.2,36.2,31.7,36.2 M31.7,36.8c-0.1,0.1-0.5,0.1-0.6,0.1
		c0.1-0.2,0.2-0.5,0.5-0.4C31.7,36.5,31.7,36.6,31.7,36.8 M33.8,36.2c0-0.1-0.1,0-0.2-0.1c-0.2,0-0.4,0.2-0.5,0.3c0-0.1,0-0.1,0-0.2
		h-0.5c-0.1,0.6-0.2,1.1-0.3,1.7h0.5c0.1-0.6,0.1-1.5,0.9-1.3C33.7,36.4,33.8,36.3,33.8,36.2 M41.5,36.2h-0.3
		c-0.9,0-1.3,1.7-0.2,1.7h0.3c0.2,0,0.3,0,0.5-0.1c0-0.1,0.1-0.2,0.1-0.3c-0.4,0.1-1.1,0.2-1-0.4c0.3-0.1,0.7,0,1.1,0
		C41.9,36.7,41.9,36.2,41.5,36.2 M41.5,36.8c-0.1,0.1-0.5,0.1-0.6,0.1c0.1-0.2,0.2-0.5,0.5-0.4C41.4,36.5,41.5,36.6,41.5,36.8
		 M43.5,36.2c0-0.1-0.1,0-0.2-0.1c-0.2,0-0.4,0.2-0.5,0.3c0-0.1,0-0.1,0-0.2h-0.5c-0.1,0.6-0.2,1.1-0.3,1.7h0.5
		c0.1-0.6,0.1-1.5,0.9-1.3C43.5,36.4,43.5,36.3,43.5,36.2 M44.6,36.2h-0.3c-0.9,0-1.3,1.7-0.2,1.7h0.3c0.2,0,0.4,0,0.5-0.1
		c0-0.1,0.1-0.2,0.1-0.3c-0.4,0.1-1.1,0.2-1-0.4c0.3-0.1,0.7,0,1.1,0C45.1,36.7,45.1,36.2,44.6,36.2 M44.6,36.8
		c-0.1,0.1-0.5,0.1-0.6,0.1c0.1-0.2,0.2-0.5,0.5-0.4C44.6,36.5,44.7,36.6,44.6,36.8 M12.9,36.2c-0.2,0.4-0.4,0.8-0.7,1.1
		c-0.1-0.4-0.2-0.7-0.2-1.1c-0.1-0.1-0.3,0-0.5,0c0.1,0.5,0.2,1.1,0.3,1.7h0.5c0.3-0.6,0.6-1.1,0.9-1.6C13.2,36.2,13,36.2,12.9,36.2
		 M17.4,36.2c-0.1,0.6-0.2,1.2-0.3,1.7c0.2,0,0.4,0,0.5,0c0.1-0.6,0.2-1.1,0.3-1.6C17.7,36.1,17.5,36.2,17.4,36.2 M30.2,36.2
		c-0.2,0.4-0.4,0.8-0.7,1.1c-0.1-0.4-0.2-0.7-0.2-1.1c-0.1-0.1-0.3,0-0.5,0c0.1,0.5,0.2,1.1,0.3,1.7h0.5c0.3-0.6,0.6-1.1,0.9-1.6
		C30.5,36.2,30.3,36.2,30.2,36.2"/>
</g>
</svg>
