<svg width="27" height="33" viewBox="0 0 27 33" fill="none" xmlns="http://www.w3.org/2000/svg">
<path d="M0.412109 4.0346C0.412109 2.1127 1.97012 0.554688 3.89202 0.554688H18.5007C19.4155 0.554688 20.2935 0.91492 20.9447 1.55742L25.7392 6.28781C26.402 6.94172 26.7751 7.83394 26.7751 8.76499V29.5012C26.7751 31.4231 25.2171 32.9812 23.2952 32.9812H3.89202C1.97012 32.9812 0.412109 31.4231 0.412109 29.5012V4.0346Z" fill="white"/>
<path d="M11.9893 7.82623C12.059 6.563 13.615 6.40922 14.0214 7.82623C14.3466 8.95984 13.8237 10.7811 13.4908 12.0815C13.8237 12.8462 14.9111 14.2632 15.5592 14.8893C17.7232 14.5598 18.9425 14.5965 19.7444 14.9772C20.8318 15.4935 20.6012 16.7636 19.5466 16.8665C18.6459 16.9544 17.3167 16.8665 15.4274 15.2957C14.9368 15.3616 13.4744 15.645 11.7256 16.2514C11.0556 17.3279 10.1219 18.8002 9.33098 19.4369C8.0348 20.4804 7.05719 20.1399 6.78257 19.5687C6.4091 18.5581 7.92496 17.6134 10.6821 16.2514C11.1178 15.3872 12.1233 13.2262 12.6593 11.4951C12.425 10.9348 11.9014 9.41898 11.9893 7.82623ZM10.3086 16.8445C6.5519 18.4656 6.72767 19.5577 7.43068 19.6676C8.13369 19.7774 9.00147 18.8876 10.3086 16.8445ZM19.5027 15.8779C19.4588 14.8454 17.877 14.8453 15.8119 15.1968C18.2175 16.9104 19.5027 16.6029 19.5027 15.8779ZM13.3074 12.4946C12.7274 14.2082 12.165 15.4129 11.9563 15.801C13.5205 15.3177 14.761 15.0577 15.1858 14.9882C14.3158 14.0039 13.571 12.9157 13.3074 12.4946ZM12.857 10.9458C13.7687 8.03492 13.4612 7.11222 12.7692 7.21107C12.0442 7.3319 12.143 9.39699 12.857 10.9458Z" fill="#FF2116"/>
<path d="M0.412109 29.5012V4.0346C0.41211 2.1127 1.97012 0.554688 3.89202 0.554688H18.5007L18.5436 0.554945C19.4429 0.566014 20.3037 0.924948 20.9448 1.55741L25.7392 6.28781C26.402 6.94172 26.7751 7.83396 26.7751 8.76501V29.5012L26.7748 29.5462C26.7507 31.4474 25.2021 32.9812 23.2952 32.9812V32.0321C24.6929 32.0321 25.826 30.899 25.826 29.5012V8.76501C25.826 8.09846 25.5631 7.45925 25.0951 6.98581L25.0727 6.96342L20.2782 2.23301C19.8046 1.76574 19.166 1.50375 18.5007 1.50375H3.89202C2.49428 1.50375 1.36118 2.63685 1.36118 4.0346V29.5012C1.36118 30.899 2.49428 32.0321 3.89202 32.0321V32.9812L3.84702 32.9808C1.94586 32.9568 0.412109 31.4081 0.412109 29.5012ZM23.2952 32.0321V32.9812H3.89202V32.0321H23.2952Z" fill="#FF2116"/>
<path d="M17.5278 23.3633V28.2363H16.6074V23.3633H17.5278ZM19.4924 25.4685V26.1947H17.2868V25.4685H19.4924ZM19.7501 23.3633V24.0896H17.2868V23.3633H19.7501Z" fill="black"/>
<path d="M13.5985 28.2363H12.5475L12.5542 27.5134H13.5985C13.8818 27.5134 14.1195 27.4509 14.3113 27.326C14.5032 27.1988 14.6483 27.0169 14.7464 26.7804C14.8446 26.5417 14.8937 26.2561 14.8937 25.9236V25.6726C14.8937 25.416 14.8658 25.1896 14.81 24.9932C14.7542 24.7969 14.6717 24.6317 14.5624 24.4979C14.4553 24.364 14.3225 24.2625 14.1641 24.1933C14.0057 24.1241 13.8238 24.0896 13.6185 24.0896H12.5275V23.3633H13.6185C13.9443 23.3633 14.2411 23.4179 14.5088 23.5273C14.7788 23.6366 15.012 23.7939 15.2083 23.9992C15.4069 24.2022 15.5586 24.4454 15.6635 24.7288C15.7706 25.0122 15.8241 25.329 15.8241 25.6793V25.9236C15.8241 26.2717 15.7706 26.5885 15.6635 26.8741C15.5586 27.1575 15.4069 27.4007 15.2083 27.6038C15.012 27.8068 14.7777 27.963 14.5055 28.0723C14.2333 28.1816 13.9309 28.2363 13.5985 28.2363ZM13.063 23.3633V28.2363H12.1426V23.3633H13.063Z" fill="black"/>
<path d="M9.61838 26.4591H8.36331V25.7362H9.61838C9.82366 25.7362 9.98989 25.7027 10.1171 25.6358C10.2465 25.5666 10.3413 25.4729 10.4016 25.3547C10.4618 25.2342 10.4919 25.097 10.4919 24.943C10.4919 24.7935 10.4618 24.6541 10.4016 24.5246C10.3413 24.3952 10.2465 24.2904 10.1171 24.21C9.98989 24.1297 9.82366 24.0896 9.61838 24.0896H8.66453V28.2363H7.74414V23.3633H9.61838C9.9977 23.3633 10.3212 23.4313 10.589 23.5674C10.859 23.7013 11.0642 23.8876 11.2048 24.1264C11.3476 24.3629 11.419 24.6329 11.419 24.9363C11.419 25.2509 11.3476 25.522 11.2048 25.7496C11.0642 25.9772 10.859 26.1523 10.589 26.2751C10.3212 26.3978 9.9977 26.4591 9.61838 26.4591Z" fill="black"/>
</svg>
