<svg width="48" height="48" viewBox="0 0 48 48" fill="none" xmlns="http://www.w3.org/2000/svg">
<path fill-rule="evenodd" clip-rule="evenodd" d="M29 22.75C26.9289 22.75 25.25 21.0711 25.25 19C25.25 16.9289 26.9289 15.25 29 15.25C31.0711 15.25 32.75 16.9289 32.75 19C32.75 21.0711 31.0711 22.75 29 22.75ZM29 41.5C27.6193 41.5 26.5 40.3807 26.5 39C26.5 37.6193 27.6193 36.5 29 36.5C30.3807 36.5 31.5 37.6193 31.5 39C31.5 40.3807 30.3807 41.5 29 41.5ZM29 32.75C26.9289 32.75 25.25 31.0711 25.25 29C25.25 26.9289 26.9289 25.25 29 25.25C31.0711 25.25 32.75 26.9289 32.75 29C32.75 31.0711 31.0711 32.75 29 32.75ZM29 11.5C27.6193 11.5 26.5 10.3807 26.5 9C26.5 7.61929 27.6193 6.5 29 6.5C30.3807 6.5 31.5 7.61929 31.5 9C31.5 10.3807 30.3807 11.5 29 11.5ZM1.5 17.75C2.2 17.75 2.75 18.3 2.75 19C2.75 19.7 2.2 20.25 1.5 20.25C0.8 20.25 0.25 19.7 0.25 19C0.25 18.3 0.8 17.75 1.5 17.75ZM30.25 1.5C30.25 2.2 29.7 2.75 29 2.75C28.3 2.75 27.75 2.2 27.75 1.5C27.75 0.8 28.3 0.25 29 0.25C29.7 0.25 30.25 0.8 30.25 1.5ZM46.5 30.25C45.8 30.25 45.25 29.7 45.25 29C45.25 28.3 45.8 27.75 46.5 27.75C47.2 27.75 47.75 28.3 47.75 29C47.75 29.7 47.2 30.25 46.5 30.25ZM39 41.5C37.6193 41.5 36.5 40.3807 36.5 39C36.5 37.6193 37.6193 36.5 39 36.5C40.3807 36.5 41.5 37.6193 41.5 39C41.5 40.3807 40.3807 41.5 39 41.5ZM27.75 46.5C27.75 45.8 28.3 45.25 29 45.25C29.7 45.25 30.25 45.8 30.25 46.5C30.25 47.2 29.7 47.75 29 47.75C28.3 47.75 27.75 47.2 27.75 46.5ZM46.5 20.25C45.8 20.25 45.25 19.7 45.25 19C45.25 18.3 45.8 17.75 46.5 17.75C47.2 17.75 47.75 18.3 47.75 19C47.75 19.7 47.2 20.25 46.5 20.25ZM39 31.5C37.6193 31.5 36.5 30.3807 36.5 29C36.5 27.6193 37.6193 26.5 39 26.5C40.3807 26.5 41.5 27.6193 41.5 29C41.5 30.3807 40.3807 31.5 39 31.5ZM39 11.5C37.6193 11.5 36.5 10.3807 36.5 9C36.5 7.61929 37.6193 6.5 39 6.5C40.3807 6.5 41.5 7.61929 41.5 9C41.5 10.3807 40.3807 11.5 39 11.5ZM9 41.5C7.61929 41.5 6.5 40.3807 6.5 39C6.5 37.6193 7.61929 36.5 9 36.5C10.3807 36.5 11.5 37.6193 11.5 39C11.5 40.3807 10.3807 41.5 9 41.5ZM9 31.5C7.61929 31.5 6.5 30.3807 6.5 29C6.5 27.6193 7.61929 26.5 9 26.5C10.3807 26.5 11.5 27.6193 11.5 29C11.5 30.3807 10.3807 31.5 9 31.5ZM2.75 29C2.75 29.7 2.2 30.25 1.5 30.25C0.8 30.25 0.25 29.7 0.25 29C0.25 28.3 0.8 27.75 1.5 27.75C2.2 27.75 2.75 28.3 2.75 29ZM19 11.5C17.6193 11.5 16.5 10.3807 16.5 9C16.5 7.61929 17.6193 6.5 19 6.5C20.3807 6.5 21.5 7.61929 21.5 9C21.5 10.3807 20.3807 11.5 19 11.5ZM9 21.5C7.61929 21.5 6.5 20.3807 6.5 19C6.5 17.6193 7.61929 16.5 9 16.5C10.3807 16.5 11.5 17.6193 11.5 19C11.5 20.3807 10.3807 21.5 9 21.5ZM9 11.5C7.61929 11.5 6.5 10.3807 6.5 9C6.5 7.61929 7.61929 6.5 9 6.5C10.3807 6.5 11.5 7.61929 11.5 9C11.5 10.3807 10.3807 11.5 9 11.5ZM17.75 46.5C17.75 45.8 18.3 45.25 19 45.25C19.7 45.25 20.25 45.8 20.25 46.5C20.25 47.2 19.7 47.75 19 47.75C18.3 47.75 17.75 47.2 17.75 46.5ZM19 41.5C17.6193 41.5 16.5 40.3807 16.5 39C16.5 37.6193 17.6193 36.5 19 36.5C20.3807 36.5 21.5 37.6193 21.5 39C21.5 40.3807 20.3807 41.5 19 41.5ZM20.25 1.5C20.25 2.2 19.7 2.75 19 2.75C18.3 2.75 17.75 2.2 17.75 1.5C17.75 0.8 18.3 0.25 19 0.25C19.7 0.25 20.25 0.8 20.25 1.5ZM19 32.75C16.9289 32.75 15.25 31.0711 15.25 29C15.25 26.9289 16.9289 25.25 19 25.25C21.0711 25.25 22.75 26.9289 22.75 29C22.75 31.0711 21.0711 32.75 19 32.75ZM19 22.75C16.9289 22.75 15.25 21.0711 15.25 19C15.25 16.9289 16.9289 15.25 19 15.25C21.0711 15.25 22.75 16.9289 22.75 19C22.75 21.0711 21.0711 22.75 19 22.75ZM39 21.5C37.6193 21.5 36.5 20.3807 36.5 19C36.5 17.6193 37.6193 16.5 39 16.5C40.3807 16.5 41.5 17.6193 41.5 19C41.5 20.3807 40.3807 21.5 39 21.5Z" fill="white"/>
</svg>
