<svg width="37" height="37" viewBox="0 0 37 37" fill="none" xmlns="http://www.w3.org/2000/svg">
<path d="M25.1709 20.6012C23.8527 20.6012 22.6055 20.3098 21.4847 19.7903L16.0966 20.9342L17.2236 15.5353C16.701 14.4114 16.408 13.158 16.408 11.8368C16.408 7.00371 20.327 3.08325 25.1632 3.08325C29.9994 3.08325 33.9167 7.00371 33.9167 11.8368C33.9167 16.67 29.9963 20.5904 25.1632 20.5904" stroke="#262556" stroke-width="2.3125" stroke-linecap="round" stroke-linejoin="round"/>
<path fill-rule="evenodd" clip-rule="evenodd" d="M23.4333 28.3218L21.9379 26.8264C21.1902 26.0787 19.9799 26.0787 19.2338 26.8264L18.059 28.0011C17.7969 28.2632 17.3992 28.3511 17.06 28.2031C15.3565 27.4569 13.6745 26.3269 12.1745 24.8269C10.6806 23.333 9.55365 21.6587 8.80749 19.9614C8.65178 19.6114 8.74274 19.1998 9.01407 18.9269L10.067 17.8739C10.9227 17.0183 10.9227 15.8096 10.1749 15.0619L8.67799 13.5665C7.68207 12.5706 6.06949 12.5706 5.07357 13.5665L4.24261 14.3975C3.29757 15.3425 2.90445 16.7054 3.15882 18.0559C3.78782 21.3859 5.72415 25.0334 8.84449 28.1553C11.9648 31.2772 15.6124 33.212 18.9439 33.841C20.2944 34.0954 21.6573 33.7022 22.6023 32.7572L23.4333 31.9278C24.4277 30.9319 24.4277 29.3177 23.4333 28.3218Z" stroke="#262556" stroke-width="2.3125" stroke-linecap="round" stroke-linejoin="round"/>
<path d="M21.0783 11.9551C21.1084 11.9852 21.1084 12.034 21.0783 12.0641C21.0482 12.0942 20.9994 12.0942 20.9693 12.0641C20.9392 12.034 20.9392 11.9852 20.9693 11.9551C20.9994 11.925 21.0482 11.925 21.0783 11.9551" stroke="#262556" stroke-width="2.3125" stroke-linecap="round" stroke-linejoin="round"/>
<path d="M25.0958 11.9551C25.126 11.9852 25.126 12.034 25.0958 12.0641C25.0657 12.0942 25.0169 12.0942 24.9868 12.0641C24.9567 12.034 24.9567 11.9852 24.9868 11.9551C25.0169 11.925 25.0657 11.925 25.0958 11.9551" stroke="#262556" stroke-width="2.3125" stroke-linecap="round" stroke-linejoin="round"/>
<path d="M29.1118 11.9551C29.1419 11.9852 29.1419 12.034 29.1118 12.0641C29.0817 12.0942 29.0329 12.0942 29.0028 12.0641C28.9727 12.034 28.9727 11.9852 29.0028 11.9551C29.0329 11.925 29.0817 11.925 29.1118 11.9551" stroke="#262556" stroke-width="2.3125" stroke-linecap="round" stroke-linejoin="round"/>
</svg>
