<svg width="40" height="49" viewBox="0 0 40 49" fill="none" xmlns="http://www.w3.org/2000/svg">
<path d="M9.5 2C5.35786 2 2 5.35786 2 9.5C2 9.64852 2.0043 9.79592 2.01278 9.94209C2.04477 10.4934 1.62373 10.9663 1.07237 10.9983C0.521013 11.0303 0.0481225 10.6093 0.01614 10.0579C0.00542539 9.8732 0 9.68717 0 9.5C0 4.25329 4.25329 0 9.5 0C9.68717 0 9.8732 0.00542539 10.0579 0.01614C10.6093 0.0481225 11.0303 0.521013 10.9983 1.07237C10.9663 1.62373 10.4934 2.04477 9.94209 2.01278C9.79592 2.0043 9.64852 2 9.5 2Z" fill="#262556"/>
<path d="M10.9959 4.93265C11.0455 5.48271 10.6398 5.9688 10.0897 6.01837C7.93254 6.21276 6.21276 7.93254 6.01837 10.0897C5.9688 10.6398 5.48271 11.0455 4.93265 10.9959C4.3826 10.9464 3.97687 10.4603 4.02644 9.91023C4.30759 6.79028 6.79028 4.30759 9.91023 4.02644C10.4603 3.97687 10.9464 4.3826 10.9959 4.93265Z" fill="#262556"/>
<path fill-rule="evenodd" clip-rule="evenodd" d="M19.5 18.5C20.0523 18.5 20.5 18.9477 20.5 19.5V21H23C23.5523 21 24 21.4477 24 22C24 22.5523 23.5523 23 23 23H20.5V25H21C21.4934 25 22.2111 25.1398 22.8343 25.5885C23.5085 26.0739 24 26.8741 24 28C24 29.2948 23.4846 30.1605 22.6836 30.6182C22.0121 31.002 21.2861 31.0005 21.0252 31L21 31H20.5V33C20.5 33.5523 20.0523 34 19.5 34C18.9477 34 18.5 33.5523 18.5 33V31H16C15.4477 31 15 30.5523 15 30C15 29.4477 15.4477 29 16 29H18.5V27H18C17.5066 27 16.7889 26.8602 16.1657 26.4115C15.4915 25.9261 15 25.1259 15 24C15 22.8741 15.4915 22.0739 16.1657 21.5885C16.7889 21.1398 17.5066 21 18 21H18.5V19.5C18.5 18.9477 18.9477 18.5 19.5 18.5ZM18 23H18.5V25H18C17.8267 25 17.5445 24.9398 17.3343 24.7885C17.1751 24.6739 17 24.4741 17 24C17 23.5259 17.1751 23.3261 17.3343 23.2115C17.5445 23.0602 17.8267 23 18 23ZM20.5 29V27H21C21.1733 27 21.4555 27.0602 21.6657 27.2115C21.8249 27.3261 22 27.5259 22 28C22 28.3762 21.9297 28.5829 21.8734 28.6895C21.8211 28.7886 21.7596 28.8427 21.6914 28.8818C21.5109 28.9849 21.2637 29 21 29H20.5Z" fill="#262556"/>
<path d="M17 39C17 38.4477 17.4477 38 18 38H21C21.5523 38 22 38.4477 22 39C22 39.5523 21.5523 40 21 40H18C17.4477 40 17 39.5523 17 39Z" fill="#262556"/>
<path fill-rule="evenodd" clip-rule="evenodd" d="M9 12C9 10.3431 10.3431 9 12 9H27C28.6569 9 30 10.3431 30 12V16.3275C30.4303 16.1182 30.9307 16 31.5 16C32.342 16 33.0334 16.2586 33.57 16.6879C34.0909 17.1046 34.4116 17.6378 34.6106 18.1154C34.81 18.5939 34.9049 19.0584 34.9514 19.3937C34.9751 19.5639 34.9871 19.7075 34.9934 19.8117C34.9965 19.8639 34.9981 19.9067 34.999 19.9385L34.9997 20.0703L35 20.1211V24C35 24.5581 35.1942 25.1271 35.5751 25.8058C35.8587 26.311 36.2024 26.8071 36.5949 27.3736L36.5956 27.3747C36.7492 27.5965 36.9103 27.829 37.0782 28.0771C38.2364 29.7886 39.5 31.945 39.5 35C39.5 37.6061 38.5823 39.8035 37.3685 41.4554C36.1678 43.0894 34.6367 44.2442 33.3211 44.7339C33.1082 44.8131 32.8381 45.0657 32.6816 45.3955C32.1854 46.4406 31.1853 47.2106 30.0302 47.7122C28.8587 48.2209 27.4281 48.5 25.9 48.5C23.9714 48.5 23.0552 47.7979 21.6166 46.8296C20.8938 46.3431 20.2592 45.7679 19.7959 45.1414C19.5393 44.7943 19.3198 44.4098 19.1768 44H12C11.0746 44 10.247 43.581 9.69668 42.9223C9.51557 42.9763 9.32843 43 9.14286 43C7.47321 43 6 41.7207 6 40C6 39.5587 6.09688 39.1465 6.26911 38.7774C4.94337 38.2793 4 36.9998 4 35.5C4 34.5207 4.40223 33.6353 5.05051 33C4.40223 32.3647 4 31.4793 4 30.5C4 29.247 4.65842 28.1478 5.64814 27.5295C5.24005 26.9571 5 26.2566 5 25.5C5 23.567 6.567 22 8.5 22C8.66957 22 8.83684 22.0122 9 22.039V12ZM30 41V20.0039L30.0002 19.9941C30.0006 19.9819 30.0013 19.9603 30.0031 19.9305C30.0067 19.8707 30.0141 19.7799 30.0296 19.6688C30.0611 19.4416 30.1224 19.1561 30.2356 18.8846C30.3491 18.6122 30.4972 18.3954 30.6794 18.2496C30.8459 18.1164 31.092 18 31.5 18C31.908 18 32.1541 18.1164 32.3206 18.2496C32.5028 18.3954 32.6509 18.6122 32.7644 18.8846C32.8775 19.1561 32.9389 19.4416 32.9704 19.6688C32.9859 19.7799 32.9933 19.8707 32.9969 19.9305C32.9987 19.9603 32.9994 19.9819 32.9998 19.9941L33 20.0042V24C33 25.0419 33.3683 25.9604 33.8311 26.7848C34.1645 27.3788 34.5888 27.9911 35.0013 28.5863C35.1441 28.7925 35.286 28.9973 35.4218 29.1979C36.5136 30.8114 37.5 32.555 37.5 35C37.5 37.1207 36.7559 38.9115 35.7568 40.2712C34.7446 41.6487 33.5118 42.5288 32.6235 42.8595C31.8011 43.1655 31.192 43.8696 30.8748 44.5377C30.66 44.9902 30.1336 45.4869 29.2336 45.8777C28.3502 46.2613 27.1971 46.5 25.9 46.5C24.4286 46.5 23.8948 45.9521 22.7334 45.1704C22.1788 44.7971 21.739 44.3903 21.4399 44H27C28.6569 44 30 42.6569 30 41ZM28 12V41C28 41.5523 27.5523 42 27 42H12C11.4477 42 11 41.5523 11 41V40.2524C11.0001 40.2238 11.0001 40.1956 11.0001 40.1678C11.0001 40.1381 11.0001 40.1088 11.0001 40.0801L11 40L11.0001 39.9199C11.0001 39.8643 11.0002 39.8067 11 39.7476V12C11 11.4477 11.4477 11 12 11H27C27.5523 11 28 11.4477 28 12ZM9 30.5C9 29.6716 8.32843 29 7.5 29C6.67157 29 6 29.6716 6 30.5C6 31.3284 6.67157 32 7.5 32C8.32843 32 9 31.3284 9 30.5ZM7.5 34C6.67157 34 6 34.6716 6 35.5C6 36.3284 6.67157 37 7.5 37C8.32843 37 9 36.3284 9 35.5C9 34.6716 8.32843 34 7.5 34ZM8.98817 39.2774C8.9997 39.4834 9 39.7169 9 40C9 40.2831 8.9997 40.5166 8.98817 40.7226C8.98201 40.8327 8.97323 40.9199 8.9632 40.9883C8.36996 40.9093 8 40.4451 8 40C8 39.5549 8.36996 39.0907 8.9632 39.0117C8.97323 39.0801 8.98201 39.1673 8.98817 39.2774ZM8.85496 24.1406C8.95696 24.3686 9 24.7799 9 25.5C9 26.2201 8.95696 26.6314 8.85496 26.8594C8.82064 26.9361 8.79707 26.9494 8.79281 26.9519C8.78381 26.9574 8.7113 27 8.5 27C7.67157 27 7 26.3284 7 25.5C7 24.6716 7.67157 24 8.5 24C8.7113 24 8.78334 24.0423 8.79234 24.0479C8.79661 24.0503 8.82064 24.0639 8.85496 24.1406Z" fill="#262556"/>
<path d="M34.9997 20.0703C34.9997 20.0703 34.9999 19.978 34.9991 19.9426L34.9995 19.9583L34.9998 19.978L35 19.9912L35 19.9962L34.9997 20.0703Z" fill="#262556"/>
</svg>
